<svg width="81" height="48" viewBox="0 0 81 48" fill="none" xmlns="http://www.w3.org/2000/svg">
<g clip-path="url(#clip0_575_335)">
<path d="M23.6884 17.512C23.6884 18.4878 23.7937 19.2791 23.9779 19.8593C24.1884 20.4395 24.4516 21.0725 24.82 21.7582C24.9516 21.9692 25.0042 22.1801 25.0042 22.3648C25.0042 22.6285 24.8463 22.8922 24.5042 23.156L22.8463 24.2637C22.6095 24.4219 22.3726 24.501 22.1621 24.501C21.899 24.501 21.6358 24.3692 21.3726 24.1318C21.0042 23.7362 20.6884 23.3142 20.4253 22.8922C20.1621 22.4439 19.899 21.9428 19.6095 21.3362C17.5568 23.7626 14.9779 24.9758 11.8726 24.9758C9.66211 24.9758 7.89895 24.3428 6.60948 23.0769C5.32 21.8109 4.66211 20.123 4.66211 18.0131C4.66211 15.7714 5.45158 13.9516 7.05685 12.5801C8.66211 11.2087 10.7937 10.523 13.5042 10.523C14.399 10.523 15.32 10.6021 16.2937 10.734C17.2674 10.8659 18.2674 11.0769 19.32 11.3142V9.38894C19.32 7.38454 18.899 5.98674 18.0832 5.16916C17.2411 4.35158 15.82 3.95597 13.7937 3.95597C12.8726 3.95597 11.9253 4.06147 10.9516 4.29883C9.9779 4.53619 9.03053 4.8263 8.10948 5.19553C7.68843 5.38015 7.37264 5.48564 7.18843 5.53839C7.00421 5.59114 6.87264 5.61751 6.76737 5.61751C6.39895 5.61751 6.21474 5.35378 6.21474 4.79993V3.50762C6.21474 3.08564 6.26737 2.76916 6.39895 2.58454C6.53053 2.39993 6.76737 2.21531 7.13579 2.0307C8.05685 1.55597 9.16211 1.16037 10.4516 0.843885C11.7411 0.501028 13.1095 0.342786 14.5568 0.342786C17.6884 0.342786 19.9779 1.05487 21.4516 2.47905C22.899 3.90323 23.6358 6.06586 23.6358 8.96696V17.512H23.6884ZM13.0042 21.5208C13.8726 21.5208 14.7674 21.3626 15.7147 21.0461C16.6621 20.7296 17.5042 20.1494 18.2147 19.3582C18.6358 18.8571 18.9516 18.3032 19.1095 17.6703C19.2674 17.0373 19.3726 16.2725 19.3726 15.3758V14.2681C18.6095 14.0834 17.7937 13.9252 16.9516 13.8197C16.1095 13.7142 15.2937 13.6615 14.4779 13.6615C12.7147 13.6615 11.4253 14.0043 10.5568 14.7164C9.68842 15.4285 9.26737 16.4307 9.26737 17.7494C9.26737 18.9889 9.58316 19.912 10.2411 20.545C10.8726 21.2043 11.7937 21.5208 13.0042 21.5208ZM34.1358 24.3692C33.6621 24.3692 33.3463 24.29 33.1358 24.1054C32.9253 23.9472 32.7411 23.5779 32.5832 23.0769L26.3989 2.69004C26.2411 2.16257 26.1621 1.81971 26.1621 1.63509C26.1621 1.21312 26.3726 0.975753 26.7937 0.975753H29.3726C29.8726 0.975753 30.2147 1.05487 30.399 1.23949C30.6095 1.39773 30.7674 1.76696 30.9253 2.26806L35.3463 19.7274L39.4516 2.26806C39.5832 1.74059 39.7411 1.39773 39.9516 1.23949C40.1621 1.08125 40.5305 0.975753 41.0042 0.975753H43.1095C43.6095 0.975753 43.9516 1.05487 44.1621 1.23949C44.3726 1.39773 44.5568 1.76696 44.6621 2.26806L48.82 19.9384L53.3726 2.26806C53.5305 1.74059 53.7147 1.39773 53.8989 1.23949C54.1095 1.08125 54.4516 0.975753 54.9253 0.975753H57.3726C57.7937 0.975753 58.0305 1.18674 58.0305 1.63509C58.0305 1.76696 58.0042 1.89883 57.9779 2.05707C57.9516 2.21531 57.8989 2.4263 57.7937 2.71641L51.4516 23.1032C51.2937 23.6307 51.1095 23.9736 50.8989 24.1318C50.6884 24.29 50.3463 24.3955 49.8989 24.3955H47.6358C47.1358 24.3955 46.7937 24.3164 46.5832 24.1318C46.3726 23.9472 46.1884 23.6043 46.0832 23.0769L42.0042 6.06586L37.9516 23.0505C37.82 23.578 37.6621 23.9208 37.4516 24.1054C37.2411 24.29 36.8726 24.3692 36.3989 24.3692H34.1358ZM67.9516 25.0812C66.5832 25.0812 65.2147 24.923 63.8989 24.6065C62.5832 24.29 61.5568 23.9472 60.8726 23.5516C60.4516 23.3142 60.1621 23.0505 60.0568 22.8131C59.9516 22.5758 59.8989 22.312 59.8989 22.0747V20.7296C59.8989 20.1758 60.1095 19.912 60.5042 19.912C60.6621 19.912 60.82 19.9384 60.9779 19.9911C61.1358 20.0439 61.3726 20.1494 61.6358 20.2549C62.5305 20.6505 63.5042 20.967 64.5305 21.178C65.5832 21.3889 66.6095 21.4944 67.6621 21.4944C69.32 21.4944 70.6095 21.2043 71.5042 20.6241C72.3989 20.0439 72.8726 19.1999 72.8726 18.1186C72.8726 17.3801 72.6358 16.7736 72.1621 16.2725C71.6884 15.7714 70.7937 15.323 69.5042 14.901L65.6884 13.7142C63.7674 13.1076 62.3463 12.2109 61.4779 11.0241C60.6095 9.86366 60.1621 8.57136 60.1621 7.19993C60.1621 6.09224 60.3989 5.11641 60.8726 4.27246C61.3463 3.4285 61.9779 2.69004 62.7674 2.10982C63.5568 1.50323 64.4516 1.05487 65.5042 0.738391C66.5568 0.421907 67.6621 0.290039 68.82 0.290039C69.3989 0.290039 70.0042 0.316413 70.5832 0.395534C71.1884 0.474654 71.7411 0.580149 72.2937 0.685643C72.82 0.817511 73.32 0.94938 73.7937 1.10762C74.2674 1.26586 74.6358 1.4241 74.8989 1.58235C75.2674 1.79334 75.5305 2.00432 75.6884 2.24169C75.8463 2.45268 75.9253 2.74279 75.9253 3.11202V4.35158C75.9253 4.90542 75.7147 5.19553 75.32 5.19553C75.1095 5.19553 74.7674 5.09004 74.32 4.87905C72.82 4.19334 71.1358 3.85048 69.2674 3.85048C67.7674 3.85048 66.5832 4.08784 65.7674 4.58894C64.9516 5.09004 64.5305 5.85487 64.5305 6.93619C64.5305 7.67465 64.7937 8.30762 65.32 8.80872C65.8463 9.30982 66.82 9.81092 68.2147 10.2593L71.9516 11.4461C73.8463 12.0527 75.2147 12.8966 76.0305 13.978C76.8463 15.0593 77.2411 16.2988 77.2411 17.6703C77.2411 18.8043 77.0042 19.8329 76.5568 20.7296C76.0832 21.6263 75.4516 22.4175 74.6358 23.0505C73.82 23.7098 72.8463 24.1845 71.7147 24.5274C70.5305 24.8966 69.2937 25.0812 67.9516 25.0812Z" fill="#252F3E"/>
<path fill-rule="evenodd" clip-rule="evenodd" d="M72.9254 37.8987C64.2675 44.3075 51.6885 47.7097 40.8727 47.7097C25.7148 47.7097 12.0569 42.0921 1.74116 32.7558C0.925366 32.0174 1.66221 31.0152 2.63589 31.5954C13.7938 38.0833 27.5569 42.013 41.7938 42.013C51.399 42.013 61.9517 40.0086 71.6622 35.8943C73.1096 35.235 74.3464 36.8438 72.9254 37.8987Z" fill="#FF9900"/>
<path fill-rule="evenodd" clip-rule="evenodd" d="M76.5307 33.7845C75.4254 32.3603 69.2149 33.0988 66.3991 33.4416C65.557 33.5471 65.4254 32.8087 66.1886 32.2548C71.1359 28.7735 79.2675 29.7757 80.2149 30.9361C81.1623 32.123 79.9517 40.2724 75.3202 44.1757C74.6096 44.7823 73.9254 44.4658 74.2412 43.6746C75.2938 41.0636 77.636 35.1823 76.5307 33.7845Z" fill="#FF9900"/>
</g>
<defs>
<clipPath id="clip0_575_335">
<rect width="80" height="48" fill="white" transform="translate(0.95166)"/>
</clipPath>
</defs>
</svg>
