<svg width="164" height="48" viewBox="0 0 164 48" fill="none" xmlns="http://www.w3.org/2000/svg">
<g clip-path="url(#clip0_454_157)">
<path d="M45.3003 14.0131H52.9224C57.7818 14.0131 61.796 16.8247 61.796 23.2442V24.5931C61.796 31.0613 58.0418 33.9704 53.0687 33.9704H45.3003V14.0131ZM49.5583 17.6373V30.33H52.8249C55.5877 30.33 57.4405 28.526 57.4405 24.5118V23.4555C57.4405 19.4412 55.4902 17.6373 52.6787 17.6373H49.5583ZM64.055 17.8323H67.4679L68.0205 21.5865C68.6705 19.0349 70.3282 17.6698 73.3348 17.6698H74.3912V21.9765H72.636C69.1743 21.9765 68.3292 23.1792 68.3292 26.5921V34.0192H64.12V17.8323H64.055ZM75.2363 26.2508V25.7957C75.2363 20.3838 78.698 17.426 83.411 17.426C88.2216 17.426 91.5857 20.3838 91.5857 25.7957V26.2508C91.5857 31.5652 88.3191 34.4255 83.411 34.4255C78.1941 34.3767 75.2363 31.5814 75.2363 26.2508ZM87.279 26.202V25.7957C87.279 22.7891 85.7675 20.9852 83.3623 20.9852C81.0057 20.9852 79.4455 22.6429 79.4455 25.7957V26.202C79.4455 29.1111 80.957 30.7688 83.3623 30.7688C85.7675 30.7201 87.279 29.1111 87.279 26.202ZM93.796 17.8323H97.3064L97.7127 20.8877C98.5578 18.8399 100.362 17.426 103.027 17.426C107.139 17.426 109.853 20.3838 109.853 25.8607V26.3158C109.853 31.6302 106.846 34.4417 103.027 34.4417C100.476 34.4417 98.7203 33.2879 97.8589 31.4351V39.6098H93.7472L93.796 17.8323ZM105.579 26.202V25.8445C105.579 22.6266 103.921 21.0339 101.711 21.0339C99.3541 21.0339 97.7939 22.8379 97.7939 25.8445V26.1533C97.7939 29.0136 99.3054 30.8176 101.662 30.8176C104.083 30.7688 105.579 29.2249 105.579 26.202ZM116.077 31.0288L115.72 33.9867H112.112V12.4204H116.224V20.6926C117.134 18.5799 118.938 17.426 121.489 17.426C125.357 17.4748 128.218 20.1401 128.218 25.5032V26.007C128.218 31.3701 125.503 34.4417 121.392 34.4417C118.678 34.3767 116.922 33.1253 116.077 31.0288ZM123.895 26.007V25.6007C123.895 22.6429 122.286 20.9852 120.027 20.9852C117.719 20.9852 116.11 22.8379 116.11 25.6495V26.007C116.11 29.0136 117.67 30.7688 119.978 30.7688C122.448 30.7688 123.895 29.2249 123.895 26.007ZM130.021 26.2508V25.7957C130.021 20.3838 133.483 17.426 138.196 17.426C143.007 17.426 146.371 20.3838 146.371 25.7957V26.2508C146.371 31.5652 143.056 34.4255 138.196 34.4255C132.979 34.3767 130.021 31.5814 130.021 26.2508ZM142.097 26.202V25.7957C142.097 22.7891 140.585 20.9852 138.18 20.9852C135.823 20.9852 134.263 22.6429 134.263 25.7957V26.202C134.263 29.1111 135.775 30.7688 138.18 30.7688C140.601 30.7201 142.097 29.1111 142.097 26.202ZM151.88 25.6007L146.208 17.8323H151.068L154.334 22.6916L157.65 17.8323H162.46L156.707 25.5519L162.769 33.9867H158.007L154.302 28.6236L150.694 33.9867H145.721L151.88 25.6007Z" fill="black"/>
<path d="M19.1022 14.0132L9.67611 20.0264L19.1022 26.0396L9.67611 32.0528L0.25 26.0071L9.67611 19.9939L0.25 14.0132L9.67611 8L19.1022 14.0132ZM9.62735 33.9868L19.0535 27.9736L28.4796 33.9868L19.0535 40L9.62735 33.9868ZM19.1022 26.0071L28.5283 19.9939L19.1022 14.0132L28.4796 8L37.9057 14.0132L28.4796 20.0264L37.9057 26.0396L28.4796 32.0528L19.1022 26.0071Z" fill="#0061FF"/>
</g>
<defs>
<clipPath id="clip0_454_157">
<rect width="163" height="48" fill="white" transform="translate(0.25)"/>
</clipPath>
</defs>
</svg>
