<svg width="51" height="48" viewBox="0 0 51 48" fill="none" xmlns="http://www.w3.org/2000/svg">
<path d="M50.1829 5.77237V1.6192L45.9716 1.15773C45.7377 1.15773 44.3339 0.927002 41.9943 0.927002C32.4019 0.927002 25.383 3.69578 21.4057 8.54115C18.3642 6.69529 14.1529 5.54164 9.23969 5.54164C6.90007 5.54164 5.26234 5.77237 5.26234 5.77237L0.817078 6.46456L1.05104 10.387C1.285 17.309 4.79442 30.4607 16.9604 30.4607H17.4283V38.3055C8.5378 39.4592 1.05104 42.4587 1.05104 42.4587V47.0733H47.8433V42.4587C47.8433 42.4587 40.3566 39.4592 31.466 38.3055V30.9221C46.2056 30.6914 50.1829 14.3094 50.1829 5.77237ZM24.4472 37.8441H22.1076V24.9231C22.1076 24.9231 21.6396 17.0782 15.0887 17.0782C15.0887 17.0782 18.5981 18.9241 19.534 25.6153C18.5981 25.846 17.6623 25.846 16.9604 25.846C6.19819 25.846 5.73027 10.387 5.73027 10.387C5.73027 10.387 7.13404 10.1563 9.23969 10.1563C13.685 10.1563 20.9378 11.0792 23.0434 17.309C24.2132 6.92603 36.1452 5.54164 41.9943 5.54164C44.0999 5.54164 45.5037 5.77237 45.5037 5.77237C45.5037 5.77237 45.5037 26.5382 30.7641 26.5382H29.1264C29.1264 21.9236 33.8056 15.0016 33.8056 15.0016C26.7868 17.309 26.7868 26.3075 26.7868 26.3075V37.8441H24.4472Z" fill="#2563EB"/>
</svg>
