<svg width="146" height="48" viewBox="0 0 146 48" fill="none" xmlns="http://www.w3.org/2000/svg">
<path d="M62.3994 25.2608C62.3994 32.1664 56.9971 37.2551 50.3673 37.2551C43.7375 37.2551 38.3352 32.1664 38.3352 25.2608C38.3352 18.3066 43.7375 13.2666 50.3673 13.2666C56.9971 13.2666 62.3994 18.3066 62.3994 25.2608ZM57.1323 25.2608C57.1323 20.9455 54.0012 17.9929 50.3673 17.9929C46.7333 17.9929 43.6023 20.9455 43.6023 25.2608C43.6023 29.5329 46.7333 32.5288 50.3673 32.5288C54.0012 32.5288 57.1323 29.5275 57.1323 25.2608Z" fill="#EA4335"/>
<path d="M88.3562 25.2608C88.3562 32.1664 82.9539 37.2551 76.3241 37.2551C69.6943 37.2551 64.292 32.1664 64.292 25.2608C64.292 18.312 69.6943 13.2666 76.3241 13.2666C82.9539 13.2666 88.3562 18.3066 88.3562 25.2608ZM83.0891 25.2608C83.0891 20.9455 79.958 17.9929 76.3241 17.9929C72.6901 17.9929 69.5591 20.9455 69.5591 25.2608C69.5591 29.5329 72.6901 32.5288 76.3241 32.5288C79.958 32.5288 83.0891 29.5275 83.0891 25.2608Z" fill="#FBBC05"/>
<path d="M113.231 13.9912V35.5246C113.231 44.3824 108.008 48.0001 101.832 48.0001C96.0188 48.0001 92.5201 44.112 91.2006 40.9323L95.7863 39.0234C96.6029 40.9755 98.6037 43.2792 101.827 43.2792C105.78 43.2792 108.229 40.8404 108.229 36.2492V34.5242H108.046C106.867 35.9788 104.595 37.2497 101.729 37.2497C95.7322 37.2497 90.238 32.0258 90.238 25.3041C90.238 18.5337 95.7322 13.2666 101.729 13.2666C104.59 13.2666 106.861 14.5374 108.046 15.9488H108.229V13.9966H113.231V13.9912ZM108.603 25.3041C108.603 21.0807 105.785 17.9929 102.2 17.9929C98.5659 17.9929 95.5213 21.0807 95.5213 25.3041C95.5213 29.4842 98.5659 32.5288 102.2 32.5288C105.785 32.5288 108.603 29.4842 108.603 25.3041Z" fill="#4285F4"/>
<path d="M121.478 1.37036V36.5203H116.341V1.37036H121.478Z" fill="#34A853"/>
<path d="M141.497 29.2085L145.586 31.9339C144.266 33.8861 141.086 37.2497 135.592 37.2497C128.779 37.2497 123.69 31.9826 123.69 25.2555C123.69 18.1227 128.822 13.2612 135.003 13.2612C141.227 13.2612 144.272 18.2147 145.267 20.8915L145.813 22.2542L129.779 28.8948C131.007 31.3012 132.915 32.5288 135.592 32.5288C138.274 32.5288 140.135 31.2093 141.497 29.2085ZM128.914 24.8931L139.632 20.4426C139.042 18.9447 137.269 17.901 135.181 17.901C132.504 17.901 128.779 20.2642 128.914 24.8931Z" fill="#EA4335"/>
<path d="M18.889 22.139V17.0504H36.0368C36.2044 17.9373 36.2909 18.9864 36.2909 20.122C36.2909 23.9398 35.2472 28.6607 31.8837 32.0243C28.612 35.4311 24.4319 37.2481 18.8944 37.2481C8.63065 37.2481 0 28.8878 0 18.624C0 8.36027 8.63065 0 18.8944 0C24.5725 0 28.6174 2.22796 31.6565 5.13189L28.0659 8.72258C25.8866 6.67848 22.934 5.08862 18.889 5.08862C11.394 5.08862 5.53205 11.129 5.53205 18.624C5.53205 26.1191 11.394 32.1595 18.889 32.1595C23.7505 32.1595 26.5193 30.2073 28.293 28.4336C29.7314 26.9951 30.6778 24.9402 31.0509 22.1336L18.889 22.139Z" fill="#4285F4"/>
</svg>
