<svg width="152" height="40" viewBox="0 0 152 40" fill="none" xmlns="http://www.w3.org/2000/svg">
<g clip-path="url(#clip0_575_277)">
<path d="M111.903 2.86539C111.903 1.28371 113.218 0 114.84 0H148.699C150.321 0 151.636 1.28371 151.636 2.86539V37.1351C151.636 38.7173 150.321 40 148.699 40H114.84C113.218 40 111.903 38.7173 111.903 37.1357V2.86539Z" fill="#006699"/>
<path d="M0.678223 33.506H17.2599V28.0596H6.68003V7.28265H0.678223V33.506ZM25.6551 33.506V15.4439H19.6538V33.506H25.6551ZM22.655 12.9783C24.7473 12.9783 26.05 11.5912 26.05 9.85688C26.0112 8.08477 24.7473 6.73706 22.6948 6.73706C20.6418 6.73706 19.2993 8.08529 19.2993 9.85688C19.2993 11.5912 20.6019 12.9783 22.6156 12.9783H22.655ZM28.4413 33.506H34.4425V23.4189C34.4425 22.8791 34.4813 22.3393 34.6402 21.9548C35.0734 20.8762 36.0608 19.7588 37.719 19.7588C39.8911 19.7588 40.76 21.4155 40.76 23.8423V33.5055H46.7603V23.1493C46.7603 17.6011 43.7995 15.0195 39.8507 15.0195C36.6136 15.0195 35.1919 16.8299 34.4022 18.0633H34.4425V15.4439H28.4413C28.5204 17.1389 28.4413 33.506 28.4413 33.506ZM55.2268 7.28265H49.2255V33.506H55.2268V27.6499L56.7266 25.7608L61.4252 33.506H68.8078L60.9124 22.2937L67.8209 14.6659H60.5967C60.5967 14.6659 55.6615 21.49 55.2268 22.3V7.28265Z" fill="black"/>
<path d="M84.8563 25.9715C84.9355 25.5078 85.054 24.618 85.054 23.6119C85.054 18.9429 82.6847 14.2026 76.4469 14.2026C69.7744 14.2026 66.6946 19.4816 66.6946 24.2697C66.6946 30.1914 70.4456 33.8894 76.9991 33.8894C79.6054 33.8894 82.013 33.5054 83.9879 32.6959L83.1981 28.7309C81.5788 29.2681 79.9206 29.5373 77.8681 29.5373C75.0651 29.5373 72.6177 28.3857 72.42 25.9327L84.8563 25.9705V25.9715ZM72.3807 21.91C72.5385 20.3688 73.5659 18.0946 76.1318 18.0946C78.8555 18.0946 79.488 20.5225 79.488 21.91H72.3807ZM99.8668 7.28251V16.3603H99.7877C98.9187 15.0897 97.1027 14.2419 94.6957 14.2419C90.0757 14.2419 86.0094 17.9404 86.0483 24.2587C86.0483 30.1154 89.7207 33.9298 94.2998 33.9298C96.7875 33.9298 99.1558 32.8501 100.341 30.7696H100.459L100.696 33.5059H106.026C105.947 32.2342 105.868 30.0382 105.868 27.8806V7.28198H99.8663L99.8668 7.28251ZM99.8668 25.1453C99.8668 25.6069 99.8275 26.0701 99.7478 26.4542C99.3938 28.1119 97.9722 29.2666 96.2348 29.2666C93.7481 29.2666 92.1287 27.2636 92.1287 24.1045C92.1287 21.1383 93.5116 18.7493 96.2747 18.7493C98.13 18.7493 99.4326 20.0204 99.7882 21.5995C99.8668 21.9473 99.8668 22.3329 99.8668 22.6791V25.1453Z" fill="black"/>
<path d="M123.948 33.4838V15.4217H117.946V33.4838H123.948ZM120.948 12.9561C123.04 12.9561 124.343 11.569 124.343 9.83571C124.304 8.06308 123.04 6.71484 120.988 6.71484C118.934 6.71484 117.592 8.06308 117.592 9.83571C117.592 11.569 118.894 12.9561 120.909 12.9561H120.947H120.948ZM127.269 33.4838H133.27V23.3983C133.27 22.859 133.309 22.3187 133.468 21.9336C133.901 20.8545 134.889 19.7376 136.547 19.7376C138.718 19.7376 139.587 21.3938 139.587 23.8222V33.4838H145.588V23.1276C145.588 17.5799 142.627 14.9983 138.679 14.9983C135.442 14.9983 134.02 16.8082 133.231 18.041H133.27V15.4222H127.27C127.348 17.1167 127.269 33.4838 127.269 33.4838Z" fill="white"/>
</g>
<defs>
<clipPath id="clip0_575_277">
<rect width="151" height="40" fill="white" transform="translate(0.657715)"/>
</clipPath>
</defs>
</svg>
