<svg width="189" height="40" viewBox="0 0 189 40" fill="none" xmlns="http://www.w3.org/2000/svg">
<g clip-path="url(#clip0_575_282)">
<path d="M78.6878 7.99995V31.9999H74.5113V13.1666H74.4556L66.9935 31.9999H64.2091L56.58 13.1666H56.5243V31.9999H52.6819V7.99995H58.6961L65.6013 25.7777H65.7127L73.0077 7.99995H78.6878ZM82.1404 9.83328C82.1404 9.16661 82.3632 8.61106 82.8643 8.16661C83.3655 7.72217 83.9224 7.49995 84.5907 7.49995C85.3146 7.49995 85.9271 7.72217 86.3726 8.16661C86.8181 8.61106 87.0966 9.16661 87.0966 9.83328C87.0966 10.4999 86.8738 11.0555 86.3726 11.4999C85.8715 11.9444 85.3146 12.1666 84.5907 12.1666C83.8667 12.1666 83.3098 11.9444 82.8643 11.4999C82.4188 10.9999 82.1404 10.4444 82.1404 9.83328ZM86.6511 14.7777V31.9999H82.5859V14.7777H86.6511ZM98.958 29.0555C99.5705 29.0555 100.239 28.9444 100.963 28.6111C101.687 28.3333 102.355 27.9444 102.967 27.4999V31.2777C102.299 31.6666 101.575 31.9444 100.74 32.1111C99.9046 32.2777 99.0136 32.3888 98.0113 32.3888C95.4497 32.3888 93.3892 31.6111 91.83 29.9999C90.2151 28.3888 89.4354 26.3333 89.4354 23.8888C89.4354 21.1111 90.2708 18.8333 91.8857 17.0555C93.5006 15.2777 95.7838 14.3888 98.7909 14.3888C99.5705 14.3888 100.35 14.4999 101.074 14.6666C101.854 14.8333 102.466 15.1111 102.912 15.3333V19.2222C102.299 18.7777 101.631 18.3888 101.018 18.1666C100.35 17.9444 99.6819 17.7777 99.0136 17.7777C97.3987 17.7777 96.1179 18.2777 95.1155 19.3333C94.1132 20.3888 93.6677 21.7777 93.6677 23.5555C93.6677 25.2777 94.1688 26.6666 95.1155 27.6111C96.0622 28.5555 97.343 29.0555 98.958 29.0555ZM114.495 14.4999C114.829 14.4999 115.107 14.4999 115.386 14.5555C115.664 14.6111 115.887 14.6666 116.054 14.7222V18.8333C115.831 18.6666 115.553 18.4999 115.107 18.3888C114.662 18.2777 114.216 18.1666 113.604 18.1666C112.601 18.1666 111.766 18.6111 111.098 19.4444C110.43 20.2777 110.04 21.5555 110.04 23.3333V31.9999H105.975V14.7777H110.04V17.4999H110.095C110.485 16.5555 111.042 15.8333 111.766 15.2777C112.546 14.7777 113.437 14.4999 114.495 14.4999ZM116.277 23.6666C116.277 20.8333 117.112 18.5555 118.671 16.8888C120.286 15.2222 122.514 14.3888 125.354 14.3888C128.027 14.3888 130.143 15.1666 131.646 16.7777C133.15 18.3888 133.93 20.5555 133.93 23.2777C133.93 26.0555 133.094 28.2777 131.535 29.9444C129.92 31.6111 127.748 32.4444 124.964 32.4444C122.291 32.4444 120.175 31.6666 118.616 30.1111C117.056 28.4999 116.277 26.3333 116.277 23.6666ZM120.509 23.4999C120.509 25.2777 120.899 26.6666 121.734 27.6111C122.569 28.5555 123.739 29.0555 125.242 29.0555C126.69 29.0555 127.86 28.6111 128.639 27.6111C129.419 26.6666 129.809 25.2777 129.809 23.3888C129.809 21.5555 129.419 20.1666 128.639 19.1666C127.86 18.2222 126.69 17.7222 125.298 17.7222C123.794 17.7222 122.681 18.2222 121.845 19.2222C120.899 20.2777 120.509 21.6666 120.509 23.4999ZM139.999 19.3333C139.999 19.8888 140.166 20.3888 140.556 20.7222C140.946 21.0555 141.726 21.4444 143.007 21.9444C144.621 22.6111 145.791 23.3333 146.403 24.1111C147.072 24.9444 147.406 25.8888 147.406 27.0555C147.406 28.6666 146.793 29.9444 145.512 30.9444C144.287 31.9444 142.561 32.3888 140.445 32.3888C139.721 32.3888 138.941 32.2777 138.05 32.1111C137.159 31.9444 136.435 31.7222 135.823 31.4444V27.4444C136.547 27.9444 137.382 28.3888 138.217 28.6666C139.053 28.9444 139.832 29.1111 140.556 29.1111C141.447 29.1111 142.171 28.9999 142.561 28.7222C143.007 28.4444 143.229 28.0555 143.229 27.4444C143.229 26.8888 143.007 26.4444 142.561 25.9999C142.116 25.6111 141.225 25.1666 139.999 24.6666C138.496 24.0555 137.438 23.3333 136.825 22.5555C136.213 21.7777 135.879 20.7777 135.879 19.5555C135.879 17.9999 136.491 16.7222 137.716 15.7222C138.941 14.7222 140.556 14.2222 142.505 14.2222C143.118 14.2222 143.786 14.2777 144.51 14.4444C145.234 14.6111 145.902 14.7777 146.403 14.9444V18.8888C145.847 18.5555 145.234 18.2222 144.51 17.9444C143.786 17.6666 143.062 17.5555 142.394 17.5555C141.614 17.5555 141.002 17.7222 140.612 17.9999C140.222 18.3888 139.999 18.7777 139.999 19.3333ZM149.132 23.6666C149.132 20.8333 149.967 18.5555 151.527 16.8888C153.142 15.2222 155.369 14.3888 158.209 14.3888C160.882 14.3888 162.998 15.1666 164.502 16.7777C166.005 18.3888 166.785 20.5555 166.785 23.2777C166.785 26.0555 165.95 28.2777 164.39 29.9444C162.775 31.6111 160.604 32.4444 157.819 32.4444C155.146 32.4444 153.03 31.6666 151.471 30.1111C149.967 28.4999 149.132 26.3333 149.132 23.6666ZM153.364 23.4999C153.364 25.2777 153.754 26.6666 154.589 27.6111C155.425 28.5555 156.594 29.0555 158.098 29.0555C159.546 29.0555 160.715 28.6111 161.495 27.6111C162.274 26.6666 162.664 25.2777 162.664 23.3888C162.664 21.5555 162.274 20.1666 161.495 19.1666C160.715 18.2222 159.546 17.7222 158.153 17.7222C156.65 17.7222 155.536 18.2222 154.701 19.2222C153.81 20.2777 153.364 21.6666 153.364 23.4999ZM180.317 18.1111H174.247V31.9999H170.126V18.1111H167.23V14.7777H170.126V12.3888C170.126 10.6111 170.739 9.11106 171.908 7.94439C173.078 6.77772 174.581 6.22217 176.419 6.22217C176.92 6.22217 177.366 6.27772 177.755 6.27772C178.145 6.27772 178.479 6.38883 178.758 6.49995V9.99995C178.646 9.94439 178.368 9.83328 178.034 9.72217C177.7 9.61106 177.31 9.5555 176.864 9.5555C176.029 9.5555 175.361 9.83328 174.915 10.3333C174.47 10.8333 174.247 11.6666 174.247 12.6666V14.7222H180.317V10.8333L184.382 9.61106V14.7222H188.503V18.0555H184.382V26.1111C184.382 27.1666 184.605 27.8888 184.939 28.3333C185.329 28.7777 185.941 28.9999 186.777 28.9999C186.999 28.9999 187.278 28.9444 187.612 28.8333C187.946 28.7222 188.225 28.6111 188.447 28.4444V31.7777C188.169 31.9444 187.779 32.0555 187.166 32.1666C186.554 32.2777 185.997 32.3333 185.384 32.3333C183.658 32.3333 182.377 31.8888 181.542 30.9999C180.707 30.1111 180.261 28.7222 180.261 26.8888L180.317 18.1111Z" fill="#737373"/>
<path d="M19.548 0H0.50293V19H19.548V0Z" fill="#F25022"/>
<path d="M40.5978 0H21.5527V19H40.5978V0Z" fill="#7FBA00"/>
<path d="M19.548 21H0.50293V40H19.548V21Z" fill="#00A4EF"/>
<path d="M40.5978 21H21.5527V40H40.5978V21Z" fill="#FFB900"/>
</g>
<defs>
<clipPath id="clip0_575_282">
<rect width="188" height="40" fill="white" transform="translate(0.50293)"/>
</clipPath>
</defs>
</svg>
