<svg width="68" height="40" viewBox="0 0 68 40" fill="none" xmlns="http://www.w3.org/2000/svg">
<path fill-rule="evenodd" clip-rule="evenodd" d="M27.2775 10.8259C27.5588 10.8259 27.7854 10.5974 27.7854 10.3165C27.7873 10.2485 27.7754 10.1809 27.7507 10.1177C27.726 10.0544 27.6888 9.9967 27.6414 9.94802C27.594 9.89933 27.5373 9.86064 27.4747 9.83422C27.4121 9.8078 27.3449 9.79419 27.2769 9.79419C27.209 9.79419 27.1417 9.8078 27.0792 9.83422C27.0166 9.86064 26.9599 9.89933 26.9125 9.94802C26.8651 9.9967 26.8279 10.0544 26.8032 10.1177C26.7785 10.1809 26.7666 10.2485 26.7685 10.3165C26.7685 10.5974 26.9948 10.8259 27.2775 10.8259ZM33.4259 21.2645C34.1813 21.2645 34.6896 21.1626 35.0989 21.0116C35.5061 20.8602 35.819 20.6779 36.0468 20.4913C36.2629 20.3145 36.4001 20.1351 36.6307 20.0172C36.8341 19.912 37.1205 19.8873 37.4418 19.8873C37.9031 19.8873 38.4224 20.0299 38.8019 20.2388L38.8564 19.5325C38.6036 19.4077 37.7121 19.0952 36.9378 19.0952C36.058 19.0952 35.7255 19.3324 35.4005 19.6257C35.0225 19.9684 34.5448 20.376 33.2531 20.376C32.9089 20.376 32.0829 20.2828 31.7474 20.2828C31.5437 20.2828 31.3872 20.3337 31.3872 20.3337C31.4487 20.5269 31.5804 21.0593 31.5804 21.0593C31.8897 21.0978 32.4293 21.2645 33.4259 21.2645ZM29.4548 19.1701C29.7164 19.1701 30.4772 19.2862 31.3559 19.3706C31.8551 19.4176 32.3893 19.4547 32.8936 19.4547C33.8807 19.4547 34.9617 18.9853 35.9176 18.4952L35.7306 17.8151C35.2841 18.0597 34.4345 18.3315 33.7265 18.4442C33.5522 18.4726 33.046 18.4795 32.902 18.4566C32.6633 18.4195 32.3769 18.3336 32.0691 18.2776C31.6368 18.1965 31.1646 18.1772 30.8847 18.1648C30.5758 18.151 30.022 18.2034 29.7499 18.2212C28.75 18.2809 28.0893 18.5163 27.4569 18.9431C27.1374 19.1592 26.7295 19.5122 26.4148 19.9393C26.5767 19.9513 27.0384 20.0801 27.0384 20.0801C27.7203 19.5002 28.7449 19.1701 29.4548 19.1701Z" fill="#2463A9"/>
<path fill-rule="evenodd" clip-rule="evenodd" d="M17.406 19.4985C17.8929 19.4985 18.0883 19.6564 18.3568 19.8179C18.5449 19.934 18.6926 20.0621 18.8331 20.1891C19.1336 20.4576 19.0477 20.7039 18.812 20.8899C18.6908 20.9863 18.5871 21.1023 18.2815 21.301C18.1341 21.3982 17.8794 21.5543 17.7055 21.6277C17.3995 21.7544 17.2663 21.7686 17.1553 21.7686C17.0429 21.7686 16.8639 21.7511 16.7635 21.651L15.9852 22.127C16.2188 22.3092 16.484 22.3711 16.9305 22.3711C17.4348 22.3711 17.8372 22.2623 18.3342 22.0676C18.9786 21.8126 19.703 21.3116 19.9435 21.1744C20.4358 20.8931 20.9329 20.7105 21.4652 20.7105C21.9342 20.7105 22.4629 20.9881 23.0552 21.2712C23.7546 21.6066 24.6085 21.9352 25.3937 21.9352C25.8646 21.9352 26.3918 21.8664 26.9437 21.754C27.924 21.5539 28.9781 21.2235 30.0096 20.8738L29.6745 20.2717C29.4231 20.3644 28.5618 20.6068 27.6358 20.8127C26.8681 20.9812 26.0894 21.1336 25.6855 21.1336C25.3555 21.1336 24.9669 21.1096 24.6191 21.0023C24.0285 20.8247 23.498 20.6384 23.498 20.164C23.498 19.8358 23.6385 19.6036 24.0358 19.4439C24.6788 19.1856 25.6804 19.2016 26.2073 19.2016C26.3059 19.096 26.7047 18.6165 26.7047 18.6165C26.2824 18.5315 25.8528 18.488 25.4221 18.4866C24.7617 18.4866 24.1515 18.571 23.6458 18.7835C23.1768 18.9807 22.8078 19.2652 22.5407 19.6498C22.4334 19.8027 22.3228 19.9482 22.1616 19.9482C21.8942 19.9482 21.4303 19.7302 20.9456 19.7302C20.7346 19.7302 20.5555 19.7739 20.3693 19.7739C19.8788 19.7739 19.2395 19.4173 18.6701 19.1135C18.3117 18.9221 17.9427 18.7427 17.5141 18.7427C17.3365 18.7427 17.0927 18.7868 16.8763 18.8781C16.46 19.052 16.0379 19.3333 15.8254 19.5105L16.2068 19.7725C16.4291 19.6564 16.8337 19.4985 17.406 19.4985ZM51.8296 24.9679C49.9968 23.4223 48.2238 21.7311 46.9736 20.3484C44.8145 17.9645 41.8731 13.4152 40.8685 10.8409C40.4973 9.8938 39.7314 10.2155 40.1237 11.1786C41.0722 13.5051 43.2597 16.926 45.5436 19.7463C45.0113 19.5105 44.3513 19.1939 43.9943 19.0364C43.8728 19.235 43.5723 19.6284 43.263 19.9515C42.905 20.3241 42.536 20.6261 42.4218 20.7316C42.1703 20.9655 41.9862 20.983 41.817 20.7232C41.7403 20.5999 41.5769 20.379 41.4921 19.9955L41.0067 19.3809C40.7466 19.0542 39.528 17.387 39.1547 16.8263C38.7825 16.2678 38.2997 15.67 37.5174 15.67C36.5495 15.67 36.2155 16.7419 36.1402 17.7203L36.7827 17.4409C36.9326 16.8347 37.2299 16.5185 37.5177 16.5185C37.7229 16.5185 37.9747 16.8172 37.9747 17.0403C37.8816 17.3022 37.7124 17.8433 37.6302 18.2614L38.2633 18.476C38.2633 18.1682 38.3924 17.6093 38.5704 17.3197C38.5704 17.3197 38.7457 17.4689 38.8112 17.5904C38.8531 17.669 39.166 18.1471 39.5284 18.7831C39.8519 19.3507 40.2113 20.0519 40.5417 20.6104C40.7015 20.8793 40.8848 21.1202 41.0071 21.3097C41.1705 21.5597 41.3171 21.7347 41.4725 21.8231C41.618 21.9036 41.7752 21.9057 41.9018 21.9057C42.3111 21.9057 42.4989 21.77 42.7765 21.5335C43.2968 21.0849 43.7451 20.4616 44.2087 19.9027L45.3017 20.3961C45.7243 20.5972 46.1508 20.7899 46.581 20.9743C47.5128 22.0324 48.556 23.069 49.6505 24.0547L50.3938 24.71C50.5965 24.8853 50.7995 25.0574 51.0058 25.2281L51.8296 24.9679Z" fill="#2463A9"/>
<path fill-rule="evenodd" clip-rule="evenodd" d="M55.9322 24.6509C54.0602 20.5532 51.5936 15.5138 49.4836 12.4268L48.991 11.7344C48.2866 10.7844 47.5243 9.99665 46.7773 9.23255L46.1973 8.66166C44.7353 7.24518 43.0947 5.82906 41.8445 4.82009C40.7417 3.93155 39.9576 1.88232 37.4313 1.88232C35.1543 1.88232 34.3757 3.43016 34.121 4.33725C33.9518 4.93252 33.8786 5.1381 33.72 5.3615L32.2737 7.08363L33.9798 6.94645L33.1153 8.38186C33.6108 8.27852 36.6028 7.67744 37.2181 8.64383C37.9651 9.81254 37.4553 11.0809 38.8518 13.7396L39.4558 14.7904C40.1508 15.9082 40.9738 17.0059 41.7052 17.8723L41.0058 19.3815L41.4912 19.9961L42.5784 17.7035C42.0235 17.2079 40.3625 14.9745 39.6759 13.7323C38.1154 10.907 38.7285 9.45377 37.7763 8.15882C36.8943 6.957 34.3717 7.52462 34.3717 7.52462L35.302 6.21947L33.6916 6.41595L34.4364 5.52014C34.5951 5.28837 34.6318 5.14792 34.6966 4.92415C35.0128 3.77728 35.842 2.64023 37.4164 2.64023C39.3281 2.64023 39.8746 4.10766 41.2034 5.276C42.5486 6.46034 45.3692 8.73734 47.9496 11.682C50.0305 14.0558 52.6976 19.5748 54.7464 23.9308C52.5065 22.8393 48.713 19.0865 47.124 16.275L46.3741 16.1873C48.0803 19.4238 51.7417 23.1922 55.3632 25.244L55.9322 24.6509Z" fill="#2463A9"/>
<path fill-rule="evenodd" clip-rule="evenodd" d="M50.7451 11.1232C51.3422 10.6942 52.0492 10.3446 52.794 10.0618C53.2524 10.6171 54.3331 11.1036 55.1903 11.2178L55.0531 12.1249C54.1024 11.645 52.4217 11.1563 50.7451 11.1232L49.9934 11.7694C52.2682 11.8116 53.7163 12.2723 55.5913 13.0611L55.9635 10.6662C55.2202 10.5643 54.0482 10.3518 53.6425 9.77549C55.3573 9.25336 57.1369 9.05652 58.1877 9.07107V6.12057C57.7187 6.39492 57.1282 6.65144 56.5711 6.8239C55.8896 7.03276 55.27 7.12445 55.0994 6.8239C54.9109 6.49352 55.8511 5.90481 56.82 5.38995L54.6391 3.57832C54.3087 4.02295 53.5581 5.26697 52.7929 6.08892C52.2493 6.67254 51.6893 7.05532 51.3695 6.81663C51.2017 6.69 51.1952 6.32469 51.3338 5.86442C51.5991 4.98025 52.2966 3.75224 52.7216 3.21119L49.707 2.92629C49.707 4.1583 49.1285 5.51475 48.4164 6.61105C47.8022 7.55452 46.9112 8.24039 46.1977 8.66173L46.7776 9.23262C47.6596 8.61953 48.5187 7.86926 49.1831 6.80062C49.7176 5.94156 50.2142 4.90311 50.4005 3.68711L51.4444 3.80828C51.0104 4.60403 50.5199 5.83968 50.4828 6.6478C50.509 7.19758 50.6148 7.29582 50.8979 7.50504C51.4215 7.89691 52.0699 7.63348 52.6881 7.10444C53.3696 6.52263 54.0398 5.5475 54.7199 4.66515L55.6011 5.40014C54.4841 6.08855 54.1679 6.82499 54.5088 7.31329C54.6416 7.50286 54.9287 7.64549 55.2849 7.65604C55.6382 7.66477 56.0567 7.56071 56.5137 7.45192C56.8349 7.37441 57.1832 7.26235 57.5044 7.16374V8.33754C54.9658 8.51874 50.633 9.54626 48.9917 11.7338L49.4843 12.4262C49.6266 12.1926 49.7984 11.9743 49.9937 11.7687L50.7451 11.1232ZM17.5488 5.35648L17.8898 5.61263C18.7827 4.88529 19.8262 3.56231 20.4149 2.31647L20.1107 2.10034C19.5413 2.62247 18.183 4.32459 17.5488 5.35648Z" fill="#2463A9"/>
<path fill-rule="evenodd" clip-rule="evenodd" d="M17.0252 4.56082C16.5246 2.79358 17.8086 1.73549 19.1494 1.83373C19.6523 0.865514 20.4407 0.672306 21.279 1.17479C22.0591 1.64416 21.994 2.83688 21.3438 3.39576C21.5759 4.45858 20.6325 5.9733 19.1672 5.89799C19.3412 7.36505 17.5415 8.19973 16.4507 7.2417C15.544 6.44632 15.7335 5.12152 17.0252 4.56082ZM16.4048 4.29048C15.9395 4.39236 15.6968 4.62595 15.4894 5.13062C15.6284 3.98302 14.8657 2.88309 13.6094 2.9675C13.7323 0.91718 11.7013 -0.303915 9.90531 0.694138C8.84431 -0.214407 7.65815 -0.0299327 6.94463 0.815302C6.26277 1.62342 6.28569 2.98679 7.66361 3.71449C7.3154 5.13062 8.61254 6.53801 10.1375 6.2109C10.2251 6.6468 10.545 6.88039 10.9667 7.05432C10.3325 7.09143 10.0723 7.72199 10.0723 7.72199C8.05002 7.20386 7.00648 8.54794 6.97265 9.9586C5.49685 10.4069 5.08388 12.2516 6.21401 13.329C7.38235 14.4464 8.77591 13.9879 9.38355 12.8454C10.6872 13.341 12.0826 12.5362 12.119 11.0956C13.5722 11.2325 14.1293 10.087 13.9939 8.88014L13.5333 8.84303C13.335 9.96406 12.8023 10.4473 11.5863 10.4473C11.5336 11.5243 10.3827 12.459 9.079 12.2116C8.71333 13.0725 7.63995 13.3534 6.90715 12.6333C6.17617 11.9129 6.41849 10.5582 7.70836 10.3137C7.6556 8.99257 8.94146 8.1739 10.7778 8.26159C11.2996 7.61502 11.7213 7.34067 12.5032 7.41635L12.5105 7.04049C11.7777 6.94188 10.9518 6.24765 10.8906 5.50138C9.32678 5.62582 8.25632 4.72965 8.30945 3.32408C7.30448 2.85325 7.48532 1.82172 7.8106 1.43022C8.37094 0.75381 9.15432 0.808024 9.78742 1.35453C11.5743 0.671215 13.013 2.08188 13.013 3.6228C13.013 3.6228 13.848 3.60679 14.3171 4.09545C14.9374 4.74384 14.9374 5.30781 15.0848 5.93655C15.2238 6.53037 15.5225 7.31957 16.2517 7.88864C17.5412 8.89397 19.5395 8.62144 19.7432 6.50089C21.4595 6.65335 22.5878 5.306 22.022 3.6581C23.2238 2.80049 22.9848 1.03289 21.855 0.349203C21.6014 0.181708 21.3145 0.0710003 21.0141 0.0246606C20.7137 -0.0216791 20.4069 -0.00255608 20.1145 0.080719C19.8222 0.163994 19.5513 0.309455 19.3204 0.507143C19.0896 0.704831 18.9041 0.950078 18.7768 1.22609C17.0179 0.82185 15.5844 2.57563 16.4048 4.29048ZM24.3398 14.5639C24.4944 13.9454 23.679 13.8537 23.5666 14.4235C23.4473 15.0333 22.7057 16.0735 22.0031 16.7252L22.2542 16.9959C23.1765 16.3068 24.1415 15.3531 24.3398 14.5639ZM28.4353 4.34651C28.5694 4.34149 28.6963 4.2847 28.7893 4.18808C28.8824 4.09146 28.9344 3.96253 28.9344 3.82838C28.9344 3.69423 28.8824 3.5653 28.7893 3.46868C28.6963 3.37206 28.5694 3.31528 28.4353 3.31025C28.149 3.31025 27.919 3.54385 27.919 3.82838C27.919 4.11473 28.149 4.34651 28.4353 4.34651ZM36.0646 4.81916C36.0685 4.65881 36.135 4.50633 36.2498 4.3943C36.3646 4.28227 36.5186 4.21956 36.679 4.21956C36.8394 4.21956 36.9935 4.28227 37.1082 4.3943C37.223 4.50633 37.2895 4.65881 37.2934 4.81916C37.2936 4.9 37.2779 4.9801 37.2472 5.05487C37.2164 5.12963 37.1712 5.1976 37.1142 5.25489C37.0571 5.31217 36.9893 5.35764 36.9147 5.3887C36.8401 5.41976 36.76 5.4358 36.6792 5.43589C36.3408 5.43589 36.0646 5.16009 36.0646 4.81916ZM35.091 15.8727C31.0922 15.5656 27.1109 15.8167 27.1109 15.8167L27.3914 15.0839C31.2148 14.8062 35.1474 15.0839 35.1474 15.0839L35.091 15.8727Z" fill="#2463A9"/>
<path fill-rule="evenodd" clip-rule="evenodd" d="M10.9264 18.6551C10.9264 18.6551 11.1531 18.9579 11.5064 19.3337C11.6261 19.5026 11.7574 19.6234 11.9241 19.7802C12.6572 20.4951 13.7357 21.0311 14.848 21.2454C15.1642 21.3058 15.4454 21.3528 15.7584 21.3528C16.2328 21.3528 16.6698 21.0981 16.9493 20.8481L16.5137 20.3401C16.3733 20.382 16.0815 20.382 15.8883 20.382C14.2753 20.382 12.2286 19.3264 11.7574 18.1032C11.7097 17.9838 11.6537 17.9172 11.7014 17.8044C11.7469 17.692 11.8069 17.4551 11.84 17.2372C11.935 17.346 12.1296 17.5094 12.3774 17.6691C12.9785 18.054 14.1207 18.5864 14.3437 18.729C14.8116 18.5951 15.2649 18.4144 15.6965 18.1894C16.032 18.0155 16.4908 17.859 17.0213 17.859C18.2002 17.859 19.5548 18.53 20.8272 19.1573L21.6968 18.8163C20.5671 18.0206 18.111 16.9083 16.744 16.9083C15.9392 16.9083 15.1817 17.4988 14.6428 17.4988C13.9802 17.4988 12.0827 16.5728 12.0827 15.8014C12.0827 15.2076 13.3107 14.87 15.2853 14.6273C14.9409 15.1353 14.618 15.6577 14.3175 16.1929L14.82 16.4724C17.9124 11.9864 21.1278 9.07375 23.8338 7.30069C24.8176 6.65557 25.041 6.27825 25.3834 5.57347C26.2217 3.85862 27.0124 2.53892 28.3881 2.53892C29.0292 2.53892 29.5546 2.90096 29.9152 3.34741L30.9096 3.64613L29.9025 4.32945L30.9326 4.7406C29.5881 5.11829 27.7521 6.42744 27.0073 8.34786C25.5752 8.42354 24.8846 9.58497 24.4174 10.5583C24.1008 11.2139 23.5987 11.4756 22.8659 11.9729L17.0097 16.0616L17.816 16.174L23.2258 12.5438C24.2944 11.8238 24.8001 11.2929 25.057 10.7795C25.5577 9.77453 26.0991 9.0279 27.1605 9.0279C27.6822 9.0279 28.2389 9.25095 28.6854 9.67447L29.6358 9.98375L28.5992 10.6179L29.4688 11.1543C26.9844 11.9329 25.4467 13.7144 24.5542 17.1193L25.2113 17.267C25.5399 16.1409 25.8666 15.1061 26.448 14.1921C27.8853 14.1764 29.3425 14.1237 30.7706 14.1237C34.5835 14.1237 37.7494 14.2852 39.4573 14.7895L38.8533 13.7387C37.0264 13.4258 34.3746 13.2661 30.771 13.2661C29.5641 13.2661 28.339 13.3097 27.1234 13.3239C27.9089 12.4929 29.0369 11.7917 30.7765 11.2525L29.543 10.5725L30.9133 9.80983L29.0456 9.11377C28.7189 8.82051 28.3128 8.55162 27.8019 8.42136C28.4009 6.58171 30.4373 5.50652 32.3912 4.76498L31.0228 4.20428L32.4018 3.44892L30.2776 2.77033C29.7224 2.11685 29.1901 1.81958 28.371 1.81958C26.3997 1.81958 25.5704 3.53261 24.7903 5.05097C24.3773 5.85218 24.119 6.18948 23.4197 6.64648C21.9031 7.63907 19.9722 9.15707 18.1278 11.1022C17.1647 10.4069 15.1947 8.37151 14.6628 7.26139C14.4518 7.523 14.2429 8.0928 14.2429 8.0928C14.4452 8.30492 16.7626 10.6507 17.6249 11.6451C17.5598 11.7172 17.4954 11.7892 17.4303 11.8631C16.5112 12.0457 14.1254 12.276 13.3133 12.1654L12.8566 12.9757C13.4624 12.9161 15.8348 12.6363 16.8186 12.5784C16.5171 12.9447 16.2247 13.3185 15.9417 13.6994C12.8934 14.0473 10.8551 14.6727 10.8551 15.8011C10.8551 15.9874 10.9304 16.198 10.9304 16.3963C10.9304 16.869 10.7528 17.0433 10.4173 17.2539C10.1994 17.3929 10.1852 17.4879 10.2787 17.6178C10.7845 18.435 9.21371 18.8407 10.3082 20.3027L11.236 20.3587C11.2356 20.3591 10.3307 19.8326 10.9264 18.6551ZM9.72383 2.42431L9.42183 2.73358C9.85591 3.35396 11.7782 5.07608 12.7529 5.71574L13.1113 5.27111C12.472 4.51902 10.6549 2.89732 9.72383 2.42431ZM8.39722 11.1048L8.68175 11.4155C9.41455 11.0608 10.7917 10.0416 11.5369 9.27751L11.3317 8.97333C10.4563 9.339 9.10346 10.3403 8.39722 11.1048Z" fill="#2463A9"/>
<path fill-rule="evenodd" clip-rule="evenodd" d="M50.8476 23.8014C50.8477 23.6742 50.8228 23.5482 50.7742 23.4307C50.7257 23.3131 50.6544 23.2063 50.5645 23.1162C50.4746 23.0262 50.3679 22.9548 50.2504 22.906C50.1329 22.8573 50.007 22.8322 49.8797 22.8321L48.4465 22.8314C48.3191 22.8316 48.193 22.857 48.0754 22.906C47.9578 22.955 47.851 23.0267 47.7611 23.117C47.6712 23.2073 47.6 23.3144 47.5516 23.4322C47.5031 23.55 47.4783 23.6762 47.4787 23.8036L47.4794 38.7963C47.4791 38.9235 47.5039 39.0496 47.5524 39.1673C47.601 39.285 47.6722 39.3919 47.7621 39.482C47.852 39.5722 47.9588 39.6436 48.0764 39.6924C48.1939 39.7412 48.32 39.7663 48.4473 39.7663H49.8805C50.0078 39.766 50.1338 39.7407 50.2512 39.6917C50.3687 39.6427 50.4754 39.5711 50.5652 39.4808C50.655 39.3906 50.7262 39.2836 50.7747 39.1659C50.8231 39.0482 50.8479 38.9221 50.8476 38.7948V23.8014ZM52.6745 24.2002V24.913C52.6747 24.9833 52.6888 25.0528 52.7159 25.1176C52.743 25.1824 52.7826 25.2412 52.8325 25.2907C52.8823 25.3402 52.9414 25.3794 53.0064 25.4061C53.0714 25.4327 53.141 25.4463 53.2112 25.4461H63.1015C63.5519 25.4461 63.918 25.0822 63.918 24.631V23.4238C63.918 22.9733 63.5476 22.5647 63.0993 22.6087C63.0993 22.6087 53.5398 23.5467 53.2312 23.5817C52.875 23.621 52.6745 23.9051 52.6745 24.2002ZM44.6683 39.767C42.2079 39.767 40.6593 37.9015 40.6593 35.8243L40.6571 29.8258H39.9527C39.8635 29.8259 39.7752 29.8085 39.6927 29.7744C39.6103 29.7404 39.5354 29.6904 39.4723 29.6274C39.4092 29.5644 39.3591 29.4895 39.325 29.4071C39.2909 29.3247 39.2733 29.2364 39.2734 29.1472V28.143C39.2734 27.7678 39.579 27.4666 39.9534 27.4666L40.6571 27.4673L40.6557 23.7789C40.6554 23.6548 40.6797 23.5319 40.727 23.4172C40.7743 23.3025 40.8438 23.1983 40.9315 23.1104C41.0192 23.0226 41.1233 22.953 41.2379 22.9055C41.3525 22.858 41.4754 22.8335 41.5995 22.8336H42.9974C43.2482 22.8344 43.4884 22.9346 43.6654 23.1123C43.8423 23.29 43.9416 23.5307 43.9413 23.7814L43.942 27.4669H46.1215C46.4974 27.4669 46.803 27.7689 46.803 28.1441V29.1483C46.8029 29.2374 46.7853 29.3256 46.7511 29.4079C46.717 29.4901 46.6669 29.5649 46.6038 29.6278C46.5407 29.6907 46.4658 29.7405 46.3834 29.7744C46.301 29.8083 46.2128 29.8257 46.1237 29.8254H43.942L43.9435 35.3742C43.9435 36.4636 44.6035 37.2069 45.7842 37.2069L45.9825 37.2055C46.3897 37.2055 46.7208 37.5337 46.7208 37.9408V39.0309C46.7208 39.1277 46.7017 39.2235 46.6647 39.3129C46.6276 39.4023 46.5732 39.4835 46.5047 39.5518C46.4362 39.6201 46.3548 39.6742 46.2654 39.711C46.1759 39.7479 46.08 39.7666 45.9832 39.7663H44.6683V39.767ZM21.6275 27.035C17.6502 27.035 15.4194 30.1478 15.4194 33.4272C15.4194 36.922 17.8089 39.9999 21.6534 39.9999C24.2847 39.9999 26.8787 38.6132 27.3688 36.3359C27.435 36.0288 27.228 35.626 26.795 35.6245H24.9149C24.5737 35.6245 24.2946 35.7879 24.1265 36.0346C23.5887 36.8234 22.8002 37.2433 21.6348 37.2433C19.988 37.2433 18.8462 35.9458 18.7603 34.5068H26.7568C27.4932 34.5068 27.8221 34.1073 27.8221 33.4265C27.8229 30.2286 25.9297 27.035 21.6275 27.035ZM21.6275 29.602C23.0957 29.602 24.363 30.6466 24.4914 32.0602H18.7855C18.9135 30.6466 20.1594 29.602 21.6275 29.602ZM58.0647 27.035C54.0877 27.035 51.8569 30.1478 51.8569 33.4272C51.8569 36.922 54.2467 39.9999 58.0909 39.9999C60.7222 39.9999 63.3162 38.6132 63.8066 36.3359C63.8729 36.0288 63.6658 35.626 63.2332 35.6245H61.3528C61.0115 35.6245 60.7324 35.7879 60.564 36.0346C60.0266 36.8234 59.2377 37.2433 58.0723 37.2433C56.4259 37.2433 55.2844 35.9458 55.1978 34.5068H63.195C63.9311 34.5068 64.2604 34.1073 64.2604 33.4265C64.2604 30.2286 62.3672 27.035 58.0647 27.035ZM58.0647 29.602C59.5335 29.602 60.8008 30.6466 60.9293 32.0602H55.2226C55.3507 30.6466 56.5965 29.602 58.0647 29.602Z" fill="white"/>
<path fill-rule="evenodd" clip-rule="evenodd" d="M37.9676 23.0005H12.0658C11.9259 23.0005 11.7874 23.0281 11.6581 23.0817C11.5289 23.1353 11.4115 23.2138 11.3126 23.3128C11.2138 23.4118 11.1354 23.5294 11.0821 23.6587C11.0287 23.7881 11.0013 23.9266 11.0016 24.0666L11.0907 34.2396C11.0907 34.2396 5.50918 24.1583 5.21809 23.6438C4.94484 23.1598 4.35721 22.7141 3.544 22.7141H1.41399C1.27393 22.7141 1.13524 22.7417 1.00585 22.7953C0.876458 22.849 0.7589 22.9275 0.659895 23.0266C0.560889 23.1257 0.482377 23.2433 0.428843 23.3727C0.37531 23.5022 0.347805 23.6409 0.347901 23.7809L0.348992 38.6997C0.348897 38.8397 0.376377 38.9784 0.429865 39.1077C0.483353 39.2371 0.561801 39.3547 0.660729 39.4538C0.759658 39.5528 0.877129 39.6314 1.00644 39.6851C1.13575 39.7388 1.27436 39.7664 1.41436 39.7665H2.78063C3.0636 39.7658 3.33472 39.6528 3.53437 39.4523C3.73402 39.2517 3.84585 38.9801 3.84527 38.6972L3.7594 28.2392C3.7594 28.2392 9.39478 38.4213 9.63602 38.8223C9.96094 39.3645 10.5111 39.7669 11.3087 39.7669H13.2655C13.4055 39.7668 13.544 39.7391 13.6733 39.6855C13.8026 39.6318 13.9201 39.5532 14.019 39.4541C14.1179 39.355 14.1963 39.2374 14.2497 39.1081C14.3032 38.9787 14.3306 38.84 14.3305 38.7001L14.3297 25.5289L37.969 25.5296C38.0646 25.5299 38.1593 25.5113 38.2477 25.475C38.3361 25.4386 38.4165 25.3852 38.4842 25.3177C38.5519 25.2503 38.6057 25.1701 38.6424 25.0819C38.6791 24.9936 38.6981 24.899 38.6982 24.8034V23.7274C38.6976 23.5342 38.6203 23.3491 38.4833 23.2127C38.3463 23.0764 38.1608 23.0001 37.9676 23.0005Z" fill="white"/>
<path fill-rule="evenodd" clip-rule="evenodd" d="M33.7757 29.4775C34.9021 29.4775 35.7441 29.8861 36.0476 30.5916C36.1931 30.9307 36.4755 30.9958 36.8633 30.9958H38.4119C38.6677 30.9958 38.962 30.7757 38.962 30.4409C38.962 28.641 36.8153 27.0334 33.7735 27.0334C30.6287 27.0334 28.5631 28.5314 28.5631 30.9187C28.5631 32.7445 30.0061 33.831 31.7799 34.2949C32.5884 34.5059 33.9689 34.8472 34.6409 35.0241C35.3657 35.2136 36.0137 35.4356 36.0137 36.0559C36.0137 37.0358 34.9811 37.3691 33.8532 37.3691C32.7845 37.3691 31.7202 36.8921 31.415 36.1298C31.2385 35.6885 30.9289 35.6244 30.4595 35.6244H28.8844C28.6096 35.6244 28.2935 35.8602 28.2935 36.2186V36.422C28.2935 38.1645 30.6312 39.9896 33.8561 39.9896C36.1429 39.9896 39.3288 39.0388 39.3288 35.9723C39.3288 34.1963 38.1405 32.9668 36.2069 32.4753C35.4508 32.2835 33.633 31.8214 33.2375 31.7192C32.5327 31.5365 31.8749 31.3069 31.8749 30.7029C31.8752 29.7878 32.7208 29.4775 33.7757 29.4775Z" fill="white"/>
<path fill-rule="evenodd" clip-rule="evenodd" d="M50.8477 23.8014C50.8479 23.6742 50.8229 23.5482 50.7744 23.4307C50.7258 23.3131 50.6545 23.2063 50.5646 23.1162C50.4748 23.0262 50.368 22.9548 50.2505 22.906C50.133 22.8573 50.0071 22.8322 49.8799 22.8321L48.4466 22.8314C48.3192 22.8316 48.1931 22.857 48.0755 22.906C47.9579 22.955 47.8511 23.0267 47.7613 23.117C47.6714 23.2073 47.6002 23.3144 47.5517 23.4322C47.5032 23.55 47.4785 23.6762 47.4788 23.8036L47.4795 38.7963C47.4792 38.9235 47.5041 39.0496 47.5526 39.1673C47.6011 39.285 47.6723 39.3919 47.7622 39.482C47.8521 39.5722 47.9589 39.6436 48.0765 39.6924C48.1941 39.7412 48.3201 39.7663 48.4474 39.7663H49.8806C50.0079 39.766 50.1339 39.7407 50.2514 39.6917C50.3689 39.6427 50.4756 39.5711 50.5654 39.4808C50.6552 39.3906 50.7263 39.2836 50.7748 39.1659C50.8232 39.0482 50.848 38.9221 50.8477 38.7948V23.8014ZM52.6746 24.2002V24.913C52.6749 24.9833 52.6889 25.0528 52.716 25.1176C52.7431 25.1824 52.7827 25.2412 52.8326 25.2907C52.8824 25.3402 52.9415 25.3794 53.0065 25.4061C53.0715 25.4327 53.1411 25.4463 53.2113 25.4461H63.1016C63.5521 25.4461 63.9181 25.0822 63.9181 24.631V23.4238C63.9181 22.9733 63.5477 22.5647 63.0994 22.6087C63.0994 22.6087 53.5399 23.5467 53.2313 23.5817C52.8751 23.621 52.6746 23.9051 52.6746 24.2002ZM44.6684 39.767C42.208 39.767 40.6594 37.9015 40.6594 35.8243L40.6572 29.8258H39.9528C39.8636 29.8259 39.7753 29.8085 39.6929 29.7744C39.6104 29.7404 39.5355 29.6904 39.4724 29.6274C39.4093 29.5644 39.3593 29.4895 39.3251 29.4071C39.291 29.3247 39.2735 29.2364 39.2735 29.1472V28.143C39.2735 27.7678 39.5791 27.4666 39.9536 27.4666L40.6572 27.4673L40.6558 23.7789C40.6556 23.6548 40.6798 23.5319 40.7271 23.4172C40.7744 23.3025 40.8439 23.1983 40.9316 23.1104C41.0193 23.0226 41.1234 22.953 41.238 22.9055C41.3527 22.858 41.4755 22.8335 41.5996 22.8336H42.9976C43.2483 22.8344 43.4886 22.9346 43.6655 23.1123C43.8425 23.29 43.9417 23.5307 43.9414 23.7814L43.9421 27.4669H46.1216C46.4975 27.4669 46.8031 27.7689 46.8031 28.1441V29.1483C46.8031 29.2374 46.7854 29.3256 46.7513 29.4079C46.7171 29.4901 46.667 29.5649 46.6039 29.6278C46.5408 29.6907 46.4659 29.7405 46.3835 29.7744C46.3012 29.8083 46.2129 29.8257 46.1238 29.8254H43.9421L43.9436 35.3742C43.9436 36.4636 44.6036 37.2069 45.7843 37.2069L45.9826 37.2055C46.3898 37.2055 46.7209 37.5337 46.7209 37.9408V39.0309C46.7209 39.1277 46.7019 39.2235 46.6648 39.3129C46.6277 39.4023 46.5734 39.4835 46.5048 39.5518C46.4363 39.6201 46.355 39.6742 46.2655 39.711C46.176 39.7479 46.0801 39.7666 45.9833 39.7663H44.6684V39.767ZM27.823 33.4265C27.823 30.2286 25.9299 27.035 21.628 27.035C17.6507 27.035 15.4199 30.1478 15.4199 33.4272C15.4199 36.922 17.8094 39.9999 21.6538 39.9999C24.2852 39.9999 26.8792 38.6132 27.3693 36.3359C27.4355 36.0288 27.2285 35.626 26.7955 35.6245H24.9154C24.5741 35.6245 24.2951 35.7879 24.127 36.0346C23.5892 36.8234 22.8007 37.2433 21.6353 37.2433C19.9885 37.2433 18.8467 35.9458 18.7608 34.5068H26.7573C27.4937 34.5068 27.823 34.1073 27.823 33.4265ZM18.7856 32.0599C18.914 30.6463 20.1595 29.6017 21.628 29.6017C23.0962 29.6017 24.3635 30.6463 24.4919 32.0599H18.7856ZM64.2605 33.4265C64.2605 30.2286 62.3674 27.035 58.0651 27.035C54.0882 27.035 51.8574 30.1478 51.8574 33.4272C51.8574 36.922 54.2472 39.9999 58.0913 39.9999C60.7227 39.9999 63.3167 38.6132 63.8071 36.3359C63.8733 36.0288 63.6663 35.626 63.2337 35.6245H61.3533C61.012 35.6245 60.7329 35.7879 60.5645 36.0346C60.0271 36.8234 59.2382 37.2433 58.0728 37.2433C56.4263 37.2433 55.2849 35.9458 55.1983 34.5068H63.1955C63.9312 34.5068 64.2605 34.1073 64.2605 33.4265ZM55.2231 32.0599C55.3512 30.6463 56.5966 29.6017 58.0651 29.6017C59.534 29.6017 60.8013 30.6463 60.9298 32.0599H55.2231Z" fill="#2463A9"/>
<path fill-rule="evenodd" clip-rule="evenodd" d="M37.9676 23.0005H12.0658C11.9259 23.0005 11.7874 23.0281 11.6581 23.0817C11.5289 23.1353 11.4115 23.2138 11.3126 23.3128C11.2138 23.4118 11.1354 23.5294 11.0821 23.6587C11.0287 23.7881 11.0013 23.9266 11.0016 24.0666L11.0907 34.2396C11.0907 34.2396 5.50918 24.1583 5.21809 23.6438C4.94484 23.1598 4.35721 22.7141 3.544 22.7141H1.41399C1.27393 22.7141 1.13524 22.7417 1.00585 22.7953C0.876458 22.849 0.7589 22.9275 0.659895 23.0266C0.560889 23.1257 0.482377 23.2433 0.428843 23.3727C0.37531 23.5022 0.347805 23.6409 0.347901 23.7809L0.348992 38.6997C0.348897 38.8397 0.376377 38.9784 0.429865 39.1077C0.483353 39.2371 0.561801 39.3547 0.660729 39.4538C0.759658 39.5528 0.877129 39.6314 1.00644 39.6851C1.13575 39.7388 1.27436 39.7664 1.41436 39.7665H2.78063C3.0636 39.7658 3.33472 39.6528 3.53437 39.4523C3.73402 39.2517 3.84585 38.9801 3.84527 38.6972L3.7594 28.2392C3.7594 28.2392 9.39478 38.4213 9.63602 38.8223C9.96094 39.3645 10.5111 39.7669 11.3087 39.7669H13.2655C13.4055 39.7668 13.544 39.7391 13.6733 39.6855C13.8026 39.6318 13.9201 39.5532 14.019 39.4541C14.1179 39.355 14.1963 39.2374 14.2497 39.1081C14.3032 38.9787 14.3306 38.84 14.3305 38.7001L14.3297 25.5289L37.969 25.5296C38.0646 25.5299 38.1593 25.5113 38.2477 25.475C38.3361 25.4386 38.4165 25.3852 38.4842 25.3177C38.5519 25.2503 38.6057 25.1701 38.6424 25.0819C38.6791 24.9936 38.6981 24.899 38.6982 24.8034V23.7274C38.6976 23.5342 38.6203 23.3491 38.4833 23.2127C38.3463 23.0764 38.1608 23.0001 37.9676 23.0005Z" fill="#2463A9"/>
<path fill-rule="evenodd" clip-rule="evenodd" d="M33.7757 29.4775C34.9021 29.4775 35.7441 29.8861 36.0476 30.5916C36.1931 30.9307 36.4755 30.9958 36.8633 30.9958H38.4119C38.6677 30.9958 38.962 30.7757 38.962 30.4409C38.962 28.641 36.8153 27.0334 33.7735 27.0334C30.6287 27.0334 28.5631 28.5314 28.5631 30.9187C28.5631 32.7445 30.0061 33.831 31.7799 34.2949C32.5884 34.5059 33.9689 34.8472 34.6409 35.0241C35.3657 35.2136 36.0137 35.4356 36.0137 36.0559C36.0137 37.0358 34.9811 37.3691 33.8532 37.3691C32.7845 37.3691 31.7202 36.8921 31.415 36.1298C31.2385 35.6885 30.9289 35.6244 30.4595 35.6244H28.8844C28.6096 35.6244 28.2935 35.8602 28.2935 36.2186V36.422C28.2935 38.1645 30.6312 39.9896 33.8561 39.9896C36.1429 39.9896 39.3288 39.0388 39.3288 35.9723C39.3288 34.1963 38.1405 32.9668 36.2069 32.4753C35.4508 32.2835 33.633 31.8214 33.2375 31.7192C32.5327 31.5365 31.8749 31.3069 31.8749 30.7029C31.8752 29.7878 32.7208 29.4775 33.7757 29.4775ZM65.3713 39.1367H65.0202V37.495H65.6337C66.0572 37.495 66.3075 37.6158 66.3075 37.9909C66.3075 38.2929 66.13 38.4024 65.9124 38.4188L66.3316 39.1367H65.9157L65.5369 38.4468H65.3713V39.1367ZM65.6817 38.1689C65.8396 38.1689 65.932 38.1361 65.932 37.9542C65.932 37.785 65.7501 37.773 65.618 37.773H65.3713V38.1689H65.6817ZM65.6249 39.8422C64.8146 39.8422 64.092 39.2815 64.092 38.3173C64.092 37.3538 64.8146 36.7931 65.6249 36.7931C66.4323 36.7931 67.155 37.3538 67.155 38.3173C67.155 39.2815 66.4323 39.8422 65.6249 39.8422ZM65.6249 37.1475C65.0202 37.1475 64.5319 37.6158 64.5319 38.3173C64.5319 39.0195 65.0202 39.4922 65.6249 39.4878V39.4922C66.2148 39.4922 66.7143 39.0195 66.7143 38.3173C66.7143 37.6158 66.2148 37.1475 65.6249 37.1475Z" fill="#2463A9"/>
</svg>
