<svg width="14" height="19" viewBox="0 0 14 19" fill="none" xmlns="http://www.w3.org/2000/svg">
<path d="M7.004 1.77048L6.916 1.71417C5.91867 1.07369 5.04133 0.509226 4.28933 0.224881C3.87478 0.0566767 3.4316 -0.0185864 2.988 0.00388116C2.52103 0.0415132 2.0747 0.22256 1.704 0.52471C0.932 1.13563 0.598666 2.03511 0.416 3.03032C0.238666 3.99455 0.170667 5.25017 0.0866667 6.77887L0.0826664 6.8577C0.0319997 7.77267 0 8.67779 0 9.49844C0 10.3191 0.0319997 11.2256 0.0826664 12.1406L0.0866667 12.218C0.170667 13.7467 0.238666 15.0023 0.416 15.9652C0.598666 16.9618 0.932 17.8599 1.704 18.4722C2.08533 18.7748 2.51333 18.955 2.988 18.993C3.444 19.0282 3.88133 18.9268 4.28933 18.772C5.04133 18.4877 5.91867 17.9232 6.916 17.2841L7.004 17.2278C7.572 16.8618 8.12933 16.486 8.62667 16.1158C9.23573 15.6583 9.82943 15.1785 10.4067 14.6772L10.4733 14.6195C11.492 13.7425 12.356 12.9978 12.9533 12.2659C13.604 11.4635 14 10.602 14 9.49844C14 8.39485 13.604 7.53196 12.952 6.73102C12.356 5.99904 11.492 5.25299 10.4747 4.37743L10.408 4.31972C9.80267 3.79889 9.19467 3.30058 8.62667 2.88111C8.09699 2.4925 7.55583 2.12164 7.004 1.76907" fill="#2563EB"/>
</svg>
