<svg width="141" height="48" viewBox="0 0 141 48" fill="none" xmlns="http://www.w3.org/2000/svg">
<g clip-path="url(#clip0_454_149)">
<path d="M21.8227 3.0791C10.2247 3.0791 0.822266 12.4813 0.822266 24.0792C0.822266 35.6777 10.2247 45.0791 21.8227 45.0791C33.4219 45.0791 42.8233 35.6777 42.8233 24.0792C42.8233 12.482 33.4219 3.0801 21.8224 3.0801L21.8227 3.0791ZM31.4533 33.3673C31.0771 33.9842 30.2696 34.1798 29.6528 33.8011C24.7221 30.7894 18.515 30.1073 11.205 31.7774C10.5006 31.9379 9.79839 31.4966 9.6379 30.7919C9.47665 30.0872 9.91625 29.3851 10.6224 29.2246C18.622 27.3969 25.4839 28.1839 31.0195 31.5668C31.6364 31.9454 31.832 32.7504 31.4533 33.3673ZM34.0237 27.6492C33.5497 28.4196 32.5416 28.6628 31.7718 28.1889C26.1269 24.7192 17.5222 23.7144 10.8454 25.7411C9.97945 26.0026 9.06489 25.5146 8.80208 24.6502C8.54127 23.7843 9.02953 22.8715 9.89394 22.6082C17.5207 20.2941 27.0021 21.415 33.4845 25.3985C34.2544 25.8725 34.4977 26.8806 34.0237 27.6495V27.6492ZM34.2444 21.6949C27.476 17.6748 16.3092 17.3051 9.84704 19.2664C8.80935 19.5811 7.71197 18.9953 7.3975 17.9576C7.08303 16.9194 7.66834 15.8228 8.70678 15.5073C16.1249 13.2554 28.4566 13.6905 36.2491 18.3165C37.1844 18.8704 37.4904 20.0759 36.9362 21.008C36.3845 21.9414 35.1757 22.2491 34.2454 21.6949H34.2444ZM57.9574 22.4653C54.3312 21.6006 53.6867 20.9937 53.6867 19.7186C53.6867 18.5139 54.8202 17.7031 56.5079 17.7031C58.1429 17.7031 59.7629 18.3187 61.4632 19.5861C61.5133 19.6245 61.5785 19.6398 61.6412 19.6298C61.7064 19.6203 61.7616 19.5854 61.7992 19.533L63.5696 17.0373C63.6424 16.9345 63.6223 16.7928 63.5245 16.7143C61.5008 15.0911 59.2238 14.3019 56.5606 14.3019C52.646 14.3019 49.9101 16.6514 49.9101 20.013C49.9101 23.6178 52.2699 24.8942 56.3474 25.8795C59.8156 26.6787 60.4024 27.3483 60.4024 28.545C60.4024 29.8716 59.2187 30.6966 57.3129 30.6966C55.1964 30.6966 53.4685 29.9819 51.5376 28.3118C51.49 28.2691 51.4248 28.2516 51.3646 28.2541C51.2994 28.2591 51.2417 28.2892 51.2016 28.3368L49.2155 30.6991C49.1327 30.7994 49.1427 30.9449 49.238 31.0301C51.4849 33.0363 54.2484 34.0945 57.2326 34.0945C61.4506 34.0945 64.1765 31.79 64.1765 28.2215C64.184 25.2105 62.381 23.5428 57.9649 22.4685L57.9574 22.4653ZM73.7209 18.8893C71.8928 18.8893 70.3931 19.6095 69.1543 21.0853V19.4242C69.1543 19.293 69.049 19.1862 68.9186 19.1862H65.6711C65.5407 19.1862 65.4354 19.293 65.4354 19.4242V37.8812C65.4354 38.0116 65.5407 38.1194 65.6711 38.1194H68.9186C69.049 38.1194 69.1543 38.0116 69.1543 37.8812V32.0558C70.3931 33.4425 71.8928 34.1221 73.7209 34.1221C77.1188 34.1221 80.5594 31.5066 80.5594 26.5064C80.5644 21.5053 77.1239 18.889 73.7234 18.889L73.7209 18.8893ZM76.7828 26.5064C76.7828 29.0515 75.2155 30.8295 72.9686 30.8295C70.7492 30.8295 69.0741 28.9713 69.0741 26.5064C69.0741 24.0414 70.7492 22.1836 72.9686 22.1836C75.1779 22.1834 76.7828 24.001 76.7828 26.5062V26.5064ZM89.3741 18.8893C84.9981 18.8893 81.57 22.2586 81.57 26.5609C81.57 30.817 84.9755 34.1497 89.3214 34.1497C93.7124 34.1497 97.1505 30.7919 97.1505 26.5064C97.1505 22.2356 93.735 18.8898 89.3741 18.8898V18.8893ZM89.3741 30.8546C87.0469 30.8546 85.2915 28.9838 85.2915 26.5052C85.2915 24.0153 86.9867 22.2085 89.3214 22.2085C91.6636 22.2085 93.429 24.0785 93.429 26.5596C93.429 29.049 91.7238 30.8546 89.3741 30.8546ZM106.494 19.1862H102.921V15.5334C102.921 15.4025 102.815 15.2957 102.685 15.2957H99.4375C99.3071 15.2957 99.1993 15.4025 99.1993 15.5334V19.1862H97.6395C97.5091 19.1862 97.4038 19.293 97.4038 19.4242V22.2145C97.4038 22.3454 97.5091 22.4525 97.6395 22.4525H99.1993V29.6734C99.1993 32.5899 100.651 34.0695 103.518 34.0695C104.681 34.0695 105.647 33.8287 106.557 33.3121C106.632 33.272 106.677 33.1918 106.677 33.1065V30.4483C106.677 30.3681 106.635 30.2903 106.564 30.2477C106.494 30.2026 106.406 30.2001 106.334 30.2377C105.709 30.5511 105.105 30.6966 104.428 30.6966C103.387 30.6966 102.921 30.2226 102.921 29.1644V22.4537H106.494C106.625 22.4537 106.73 22.3469 106.73 22.2157V19.4257C106.735 19.2945 106.63 19.1877 106.497 19.1877L106.494 19.1862ZM118.943 19.2005V18.7518C118.943 17.432 119.449 16.8435 120.583 16.8435C121.26 16.8435 121.804 16.9779 122.413 17.181C122.488 17.2046 122.566 17.1928 122.626 17.1479C122.689 17.103 122.724 17.031 122.724 16.9548V14.2189C122.724 14.1143 122.659 14.0218 122.556 13.9909C121.914 13.7996 121.092 13.6032 119.858 13.6032C116.861 13.6032 115.274 15.2919 115.274 18.485V19.1721H113.714C113.584 19.1721 113.476 19.279 113.476 19.4099V22.2145C113.476 22.3454 113.584 22.4525 113.714 22.4525H115.274V33.588C115.274 33.7209 115.382 33.8262 115.512 33.8262H118.757C118.89 33.8262 118.995 33.7209 118.995 33.588V22.4532H122.027L126.671 33.588C126.145 34.7566 125.626 34.9898 124.918 34.9898C124.347 34.9898 123.742 34.8193 123.128 34.4807C123.07 34.4506 123 34.4456 122.94 34.4632C122.877 34.4858 122.825 34.5309 122.799 34.5911L121.699 37.006C121.646 37.1214 121.691 37.2543 121.801 37.3145C122.95 37.9364 123.986 38.2022 125.267 38.2022C127.664 38.2022 128.991 37.0837 130.157 34.0795L135.789 19.5255C135.82 19.4522 135.809 19.3695 135.764 19.3045C135.722 19.2401 135.649 19.2012 135.571 19.2012H132.191C132.088 19.2012 131.998 19.2657 131.965 19.3607L128.502 29.2496L124.71 19.3542C124.675 19.2622 124.587 19.2012 124.49 19.2012H118.943V19.2005ZM111.725 19.1862H108.478C108.347 19.1862 108.24 19.293 108.24 19.4242V33.588C108.24 33.7209 108.347 33.8262 108.478 33.8262H111.725C111.856 33.8262 111.964 33.7209 111.964 33.588V19.4252C111.964 19.294 111.858 19.1872 111.725 19.1872V19.1862ZM110.12 12.7366C108.834 12.7366 107.791 13.7778 107.791 15.064C107.791 16.3509 108.834 17.3934 110.12 17.3934C111.407 17.3934 112.448 16.3509 112.448 15.064C112.448 13.778 111.404 12.7366 110.12 12.7366ZM138.563 23.7404C137.279 23.7404 136.278 22.7085 136.278 21.4554C136.278 20.2023 137.292 19.1586 138.576 19.1586C139.859 19.1586 140.86 20.1903 140.86 21.4424C140.86 22.6955 139.847 23.7404 138.563 23.7404ZM138.576 19.3858C137.404 19.3858 136.519 20.3161 136.519 21.4554C136.519 22.5942 137.399 23.512 138.563 23.512C139.734 23.512 140.619 22.5824 140.619 21.4424C140.619 20.3036 139.739 19.3858 138.576 19.3858ZM139.082 21.6773L139.729 22.5821H139.182L138.601 21.7521H138.102V22.5821H137.645V20.1837H138.713C139.273 20.1837 139.639 20.4689 139.639 20.9488C139.641 21.3421 139.413 21.5823 139.085 21.6773H139.082ZM138.696 20.5953H138.102V21.3538H138.696C138.992 21.3538 139.17 21.2086 139.17 20.9742C139.17 20.7274 138.992 20.5953 138.696 20.5953Z" fill="#1ED760"/>
</g>
<defs>
<clipPath id="clip0_454_149">
<rect width="140" height="48" fill="white" transform="translate(0.75)"/>
</clipPath>
</defs>
</svg>
