<svg width="36" height="40" viewBox="0 0 36 40" fill="none" xmlns="http://www.w3.org/2000/svg">
<path d="M28.9971 8.17875C29.1393 9.2244 30.7178 10.6335 31.1451 10.6005C31.4309 10.6005 31.5398 9.23538 31.5398 8.17875C31.5398 7.57317 31.5734 7.09965 31.2552 6.98957C30.7508 8.01375 29.4244 8.22293 28.9971 8.17875ZM29.0846 7.7162C30.2241 7.7162 31.2664 6.80285 31.2664 5.99908C31.2664 5.62465 31.0906 5.31687 30.641 5.26196C30.7178 5.36106 30.7506 5.43819 30.7506 5.61367C30.7506 6.21949 29.8306 6.89122 28.8323 6.89122C28.4702 6.89122 28.361 7.14383 28.361 7.27588C28.3613 7.58416 28.6568 7.7162 29.0846 7.7162ZM28.8433 6.47261C28.6904 6.47261 28.4704 6.47261 28.3506 6.23048C28.2512 6.03228 28.2845 5.71302 28.098 5.56974C28.2845 5.62465 28.4816 5.62465 28.635 5.62465C29.1286 5.62465 29.6002 5.28392 29.9614 5.28392C30.2027 5.28392 30.2788 5.43819 30.2788 5.5917C30.2788 6.07596 29.3044 6.47261 28.8433 6.47261ZM4.32284 15.1022C4.69496 15.1022 4.61766 12.8127 5.22095 12.8127C5.36388 12.8127 5.40763 12.9559 5.40763 13.1317C5.40763 13.6491 5.15532 14.4087 5.15532 14.8271C5.15532 15.036 5.21026 15.1022 5.30869 15.1022C5.57218 15.1022 6.0323 12.5815 6.48197 12.5815C6.6244 12.5815 6.69003 12.7245 6.69003 12.8678C6.69003 13.3958 6.02136 14.915 6.02136 15.3438C6.02136 15.4099 6.04348 15.4649 6.09792 15.4649C6.37235 15.4649 6.9207 14.2762 7.09595 13.6821C7.19438 13.3738 7.32588 13.2088 7.44619 13.2088C7.55581 13.2088 7.6545 13.3301 7.6545 13.583C7.6545 14.1773 7.10688 15.5754 6.62415 16.511C6.25129 17.2372 5.67062 18.2833 5.67062 18.8669C5.67062 19.164 5.7258 19.472 6.15261 19.8464C5.45113 19.8025 5.16651 19.7366 4.90302 19.1862C3.72999 21.5301 7.06264 21.2999 5.92267 23.38C5.71487 23.0058 4.07029 22.6204 4.07029 20.4413C4.07029 18.5584 5.71487 17.4578 5.71487 16.6763C5.71487 16.5222 5.65968 16.3902 5.5175 16.2694C5.15532 15.9611 5.14463 15.7077 4.85952 15.7077C4.65146 15.7077 4.39941 16.1922 4.66215 16.6211C4.7499 16.7641 4.82695 16.8525 4.82695 16.9848C4.82695 17.2931 4.34497 18.1183 4.00492 18.1183C3.66512 18.1183 3.40187 17.2711 3.40187 15.9062C3.40187 14.695 3.6758 13.4737 4.01585 13.4737C4.11429 13.4737 4.14735 13.5396 4.14735 13.6277C4.14735 13.7707 4.10335 14.0563 4.10335 14.541C4.1031 15.058 4.22391 15.1022 4.32284 15.1022ZM21.1151 4.28146C21.2908 4.28146 21.3239 4.7113 21.3564 4.96441C21.3783 5.09646 21.4002 5.10769 21.4554 5.10769C21.5869 5.10769 21.7952 4.60097 21.9371 4.60097C22.1464 4.60097 22.7052 5.18482 23.6364 5.18482C24.9628 5.18482 26.2129 4.24876 26.2129 2.59778C26.2129 1.00147 25.0943 0.0656498 23.5489 0.0656498C22.8143 0.0656498 22.2774 0.428845 21.9923 0.428845C21.8171 0.439828 21.5538 0 21.4218 0C21.3669 0 21.3127 0.109583 21.3127 0.296797C21.3127 0.417862 21.3127 0.803522 21.1807 0.803522C20.918 0.803522 19.8986 0.0434336 19.8986 0.319012C19.8986 0.572375 20.5782 1.3432 20.5782 1.54089C20.5782 1.73934 19.9097 1.92631 19.9097 2.05835C19.9097 2.30073 20.6224 2.34467 20.6224 2.65294C20.6224 2.96072 19.8762 3.2031 19.8762 3.4345C19.8762 3.62171 20.6224 3.48942 20.6224 3.72081C20.6224 3.95196 20.0743 4.72203 20.0743 4.94244C20.0743 4.99786 20.085 4.99786 20.1292 4.99786C20.3368 4.99761 20.9622 4.28146 21.1151 4.28146ZM7.05195 20.5511C7.04076 20.3309 7.19438 20.1215 7.42432 20.0995C7.6545 20.0663 7.86305 20.2426 7.88468 20.4737C7.90705 20.7051 7.74224 20.9035 7.51181 20.9362C7.28213 20.9477 7.07407 20.7822 7.05195 20.5511ZM5.83542 20.8923C5.87942 21.2667 6.22966 21.5521 6.6244 21.5084C6.76683 21.4971 6.89883 21.4532 6.98608 21.3978C7.07407 21.7505 7.34751 21.9707 7.75318 21.9265C8.15885 21.8938 8.44422 21.5521 8.40022 21.1457C8.40022 21.0358 8.36741 20.9697 8.3346 20.8923L8.41141 20.8813C8.79471 20.8374 9.09051 20.4849 9.05745 20.0995C9.01395 19.7029 8.65252 19.4168 8.27966 19.4498C8.13698 19.483 8.01642 19.5267 7.92892 19.6038C7.82999 19.274 7.54487 19.0097 7.1397 19.0539C6.7559 19.0758 6.4596 19.4498 6.50359 19.8569C6.50359 19.9123 6.52522 20.0004 6.55853 20.0773L6.48172 20.088C6.09792 20.1432 5.80236 20.463 5.83542 20.8923ZM30.2574 0.704423C30.257 0.74068 30.2638 0.776657 30.2774 0.810241C30.291 0.843826 30.3112 0.87434 30.3367 0.89999C30.3622 0.925641 30.3926 0.945911 30.426 0.959608C30.4594 0.973305 30.4952 0.980154 30.5314 0.979753C30.6847 0.979753 30.8058 0.858937 30.8058 0.704423C30.8058 0.550159 30.685 0.428845 30.5314 0.428845C30.3775 0.428845 30.2574 0.550159 30.2574 0.704423ZM24.1412 11.1395C24.1412 11.3928 24.3495 11.602 24.6011 11.602C24.723 11.6013 24.8397 11.5523 24.9259 11.4657C25.0121 11.3791 25.0608 11.2619 25.0615 11.1395C25.0606 11.0171 25.0118 10.9 24.9257 10.8135C24.8395 10.727 24.7229 10.678 24.6011 10.6772C24.3495 10.6772 24.1412 10.8869 24.1412 11.1395ZM24.1738 12.5261C24.1737 12.594 24.187 12.6613 24.2128 12.7241C24.2386 12.7868 24.2765 12.8439 24.3243 12.892C24.3721 12.94 24.4288 12.9782 24.4913 13.0043C24.5537 13.0303 24.6207 13.0437 24.6883 13.0438C24.756 13.0439 24.823 13.0306 24.8855 13.0046C24.948 12.9787 25.0048 12.9407 25.0527 12.8927C25.1006 12.8447 25.1386 12.7877 25.1645 12.725C25.1904 12.6623 25.2038 12.595 25.2039 12.5271C25.204 12.3899 25.1499 12.2583 25.0534 12.1612C24.9569 12.0641 24.8259 12.0095 24.6893 12.0094C24.5527 12.0093 24.4217 12.0636 24.325 12.1605C24.2283 12.2574 24.1739 12.3889 24.1738 12.5261ZM22.5953 13.4619C22.5957 13.6633 22.6755 13.8563 22.8173 13.9987C22.959 14.141 23.1512 14.2212 23.3518 14.2215C23.5521 14.2209 23.7441 14.1407 23.8858 13.9983C24.0274 13.856 24.1072 13.6631 24.1077 13.4619C24.1072 13.2607 24.0274 13.0679 23.8858 12.9257C23.7441 12.7834 23.5521 12.7033 23.3518 12.7028C23.1513 12.703 22.9591 12.7831 22.8173 12.9254C22.6755 13.0677 22.5957 13.2606 22.5953 13.4619ZM23.0008 11.9103C23.0008 12.1529 23.1979 12.3509 23.4393 12.3509C23.6806 12.3509 23.8782 12.1529 23.8782 11.9103C23.8782 11.6682 23.6806 11.47 23.4393 11.47C23.1979 11.47 23.0008 11.6682 23.0008 11.9103ZM21.5643 12.7907C21.5643 12.9075 21.6105 13.0196 21.6928 13.1022C21.775 13.1849 21.8866 13.2313 22.003 13.2313C22.1194 13.2313 22.2309 13.1849 22.3132 13.1022C22.3955 13.0196 22.4417 12.9075 22.4417 12.7907C22.4379 12.6764 22.39 12.5681 22.3081 12.4886C22.2263 12.4091 22.1169 12.3647 22.003 12.3647C21.8891 12.3647 21.7797 12.4091 21.6979 12.4886C21.616 12.5681 21.5681 12.6764 21.5643 12.7907ZM22.694 10.2151C22.6952 10.4016 22.7695 10.5801 22.9008 10.712C23.0321 10.8439 23.2098 10.9186 23.3955 10.9198C23.5812 10.9185 23.7589 10.8438 23.8902 10.712C24.0215 10.5801 24.0957 10.4016 24.097 10.2151C24.0958 10.0287 24.0215 9.85019 23.8902 9.71834C23.7589 9.58648 23.5812 9.51189 23.3955 9.51071C23.2098 9.51189 23.0321 9.58648 22.9008 9.71834C22.7695 9.85019 22.6952 10.0287 22.694 10.2151ZM23.5163 8.86096C23.5149 8.91674 23.5246 8.97224 23.5449 9.02419C23.5652 9.07614 23.5956 9.1235 23.6344 9.16347C23.6731 9.20343 23.7195 9.23521 23.7707 9.25693C23.8219 9.27864 23.8769 9.28985 23.9324 9.2899C23.988 9.28995 24.043 9.27884 24.0942 9.25722C24.1455 9.23559 24.1919 9.2039 24.2307 9.164C24.2695 9.1241 24.3 9.0768 24.3204 9.02489C24.3408 8.97297 24.3506 8.91749 24.3493 8.8617C24.3467 8.75255 24.3018 8.64872 24.224 8.57239C24.1463 8.49606 24.0419 8.45328 23.9332 8.45318C23.8244 8.45308 23.72 8.49568 23.6421 8.57187C23.5642 8.64806 23.5191 8.7518 23.5163 8.86096ZM21.5317 9.91759C21.5317 10.0286 21.5756 10.1351 21.6538 10.2136C21.732 10.2921 21.838 10.3362 21.9486 10.3362C22.0591 10.3362 22.1651 10.2921 22.2433 10.2136C22.3215 10.1351 22.3654 10.0286 22.3654 9.91759C22.3654 9.68619 22.179 9.49973 21.9483 9.49973C21.7181 9.49973 21.5317 9.68619 21.5317 9.91759ZM21.4768 11.3487C21.4768 11.7231 21.7728 12.0206 22.1462 12.0206C22.2341 12.0211 22.3213 12.004 22.4026 11.9704C22.484 11.9368 22.5579 11.8873 22.62 11.8248C22.6822 11.7623 22.7313 11.688 22.7647 11.6063C22.7981 11.5245 22.8149 11.437 22.8143 11.3487C22.8149 11.2604 22.798 11.1728 22.7646 11.0911C22.7313 11.0095 22.6821 10.9352 22.6199 10.8728C22.5578 10.8103 22.4839 10.7609 22.4026 10.7273C22.3212 10.6937 22.2341 10.6767 22.1462 10.6772C22.0582 10.6766 21.9709 10.6935 21.8895 10.7271C21.808 10.7606 21.734 10.81 21.6718 10.8725C21.6095 10.9349 21.5602 11.0092 21.5267 11.0909C21.4932 11.1727 21.4763 11.2603 21.4768 11.3487ZM20.0962 12.0536C20.0962 12.3951 20.381 12.6809 20.7211 12.6809C21.0604 12.6809 21.3455 12.3951 21.3455 12.0536C21.3455 11.7123 21.0606 11.426 20.7211 11.426C20.381 11.426 20.0962 11.7123 20.0962 12.0536ZM20.4685 10.5014C20.4685 10.7436 20.6662 10.942 20.9075 10.942C21.0236 10.9415 21.1349 10.8949 21.2169 10.8124C21.299 10.7298 21.3452 10.6181 21.3455 10.5014C21.3455 10.2591 21.1484 10.0609 20.9075 10.0609C20.7912 10.0611 20.6798 10.1076 20.5975 10.1902C20.5152 10.2727 20.4689 10.3847 20.4685 10.5014ZM19.0109 26.7271C19.0109 26.9683 19.208 27.1662 19.4494 27.1662C19.6898 27.1662 19.8874 26.9683 19.8874 26.7271C19.8872 26.6104 19.841 26.4986 19.7589 26.4159C19.6769 26.3333 19.5656 26.2866 19.4494 26.2861C19.208 26.2861 19.0109 26.484 19.0109 26.7271ZM7.21676 8.48653C7.21676 8.72891 7.41363 8.9271 7.6545 8.9271C7.7708 8.92684 7.88227 8.88035 7.96453 8.79779C8.04679 8.71523 8.09315 8.60332 8.09348 8.48653C8.09295 8.36987 8.0465 8.25815 7.96426 8.17575C7.88202 8.09335 7.77067 8.04696 7.6545 8.0467C7.41363 8.0467 7.21676 8.2449 7.21676 8.48653ZM6.64628 7.49604C6.6466 7.61283 6.69297 7.72474 6.77523 7.8073C6.85749 7.88986 6.96896 7.93636 7.08526 7.93662C7.32588 7.93662 7.52275 7.73842 7.52275 7.49604C7.52275 7.25391 7.32588 7.05546 7.08526 7.05546C6.96896 7.05573 6.85749 7.10222 6.77523 7.18478C6.69297 7.26734 6.6466 7.37925 6.64628 7.49604ZM7.11782 18.3272C7.57793 18.3272 7.96198 17.9858 7.96198 17.2267V16.1041C7.96198 15.6745 7.9943 15.1898 8.27966 14.8491C8.24685 14.9923 8.24685 15.1463 8.24685 15.2889C8.24685 16.2359 8.77283 16.8854 8.77283 17.7995C8.77283 18.1403 8.6744 18.3275 8.41141 18.3275C8.15885 18.3275 8.18098 18.0963 8.12629 18.0963C8.08254 18.0963 8.01667 18.2394 8.01667 18.3931C8.01667 18.6248 8.18123 18.988 8.64184 18.988C9.03607 18.988 9.354 18.6248 9.354 18.2172C9.354 17.2269 8.5874 16.1263 8.5874 15.0695C8.5874 14.6069 8.70696 14.2989 8.80589 14.0563C8.80589 16.2474 10.6585 17.8437 10.6585 18.7571C10.6585 18.9663 10.5052 19.1315 10.2747 19.1315C10.0232 19.1315 9.90236 18.9333 9.90236 18.779C9.90236 18.7017 9.89142 18.6799 9.85861 18.6799C9.79274 18.6799 9.59512 18.9001 9.59512 19.1864C9.59512 19.5491 9.89117 19.9897 10.4393 19.9897C11.0642 19.9897 11.4045 19.4612 11.4045 18.988C11.4045 17.8325 9.15688 16.0817 9.15688 14.2105C9.15688 13.891 9.21157 13.3741 9.442 12.9779C7.99455 13.913 7.54537 15.1576 7.54537 16.2472C7.54537 17.1935 7.51231 17.667 7.03032 17.667C6.77827 17.667 6.71265 17.4358 6.6249 17.4358C6.55903 17.4358 6.52597 17.6343 6.52597 17.6892C6.52522 18.0961 6.82152 18.3272 7.11782 18.3272ZM26.1142 7.33104C26.5962 7.33104 26.9583 7.11063 26.9583 6.97858C26.9583 6.9344 26.8922 6.9022 26.7495 6.9022C26.6073 6.9022 26.3217 6.89122 25.7848 6.80285C25.324 6.72597 24.973 6.54999 24.8415 6.54999C24.7972 6.54999 24.7758 6.5717 24.7758 6.60465C24.7763 6.89097 25.3026 7.33104 26.1142 7.33104ZM23.7246 5.93293C23.8668 5.84482 24.48 5.98785 25.2812 5.59145C25.368 5.54231 25.4657 5.51595 25.5653 5.51482C25.9499 5.51482 25.8507 5.9549 26.2022 5.9549C26.4761 5.9549 26.8271 5.72375 27.0354 5.72375C27.363 5.72375 27.8351 6.75867 27.8351 7.24293C27.8351 7.80407 26.9916 8.14555 25.9936 8.14555C24.5352 8.14555 23.6587 6.8685 23.6587 6.04276C23.6587 5.97686 23.6916 5.9549 23.7246 5.93293ZM7.34726 22.4771C6.98583 22.5655 6.40491 23.1379 6.40491 24.0412C6.40491 25.1189 7.55581 26.7818 9.45244 26.7818C11.053 26.7818 11.447 25.6695 11.447 24.9207C11.447 23.2592 10.4276 22.0917 9.10145 22.0917C8.37785 22.0917 7.73106 22.6204 7.73106 23.402C7.73106 24.1289 8.27916 25.2182 9.58369 25.2182C10.1972 25.2182 10.5591 24.7774 10.5591 24.2709C10.5591 23.7767 10.1092 23.0937 9.45194 23.0937C9.25432 23.0937 9.11189 23.2257 9.11189 23.4352C9.11189 23.6993 9.47406 23.9636 9.92349 23.9636C10.0331 23.9636 10.1201 23.9417 10.1644 23.9194C10.1862 23.9526 10.1972 24.0078 10.1972 24.0517C10.1972 24.3041 9.95655 24.4581 9.58369 24.4581C9.02439 24.4581 8.48747 24.0408 8.48747 23.3798C8.48747 22.9834 8.82678 22.6968 9.32069 22.6968C10.2956 22.6968 10.877 23.5672 10.877 24.4359C10.877 25.2182 10.4492 25.6693 9.57275 25.6693C7.81905 25.6695 6.9642 24.0847 7.34726 22.4771ZM6.25154 10.5124C5.99924 10.5786 5.4735 10.8869 5.4735 11.4368C5.4735 11.8334 5.78024 12.0868 6.16379 12.0868C6.36116 12.0868 6.50384 12.0423 6.59134 11.9764C6.28435 11.6794 6.17473 11.3489 6.17473 11.0192C6.17473 10.7878 6.20754 10.6445 6.25154 10.5124ZM3.56593 10.6664C3.555 10.7214 3.555 10.7765 3.555 10.8314C3.555 11.3487 3.82917 11.635 4.19135 11.635C4.46503 11.635 4.78296 11.4697 5.06782 11.1063C4.93751 11.1286 4.80553 11.1396 4.67334 11.1392C4.26741 11.1395 3.82917 11.0299 3.56593 10.6664ZM3.18263 11.6462C3.18263 12.4827 3.43394 12.8788 3.88411 12.8788C4.23485 12.8788 4.70615 12.6257 5.26544 12.1417C4.83764 12.2408 4.50928 12.3067 4.21322 12.3067C3.81824 12.3067 3.511 12.1527 3.18263 11.6462ZM19.8655 28.928C20.3917 28.928 20.3587 28.8838 20.5237 28.8838C20.6883 28.8838 20.6985 28.9829 20.6985 29.0488C20.6985 29.2915 20.1611 29.5883 19.208 29.5883C18.6482 29.5883 18.3089 29.2915 18.2107 28.961C17.6619 29.3132 16.8294 29.6325 16.0079 29.6325C13.7605 29.6325 13.19 28.6525 12.4888 28.3329C11.9516 28.0908 11.1296 28.5641 9.97892 27.2761C10.1318 27.309 10.3401 27.32 10.5049 27.32C11.5134 27.32 12.0505 26.8255 12.0505 26.033C12.0505 25.9339 12.0396 25.8233 12.0287 25.7247C12.3359 25.8455 13.0371 26.3744 13.2012 27.3093C13.2233 27.4193 13.6727 27.5184 13.9581 27.5184C14.3523 27.5184 14.8567 27.3532 14.9335 26.7044C16.249 26.5948 17.1361 25.8125 17.3226 24.8216C17.7941 24.9758 18.3305 25.4052 18.4625 25.6256C18.6485 25.5592 18.868 25.5265 19.1203 25.5265C19.4713 25.5265 19.8655 25.5926 20.337 25.7359C20.3589 25.5926 20.3813 25.4164 20.6008 25.4164C20.9294 25.4164 20.8416 25.7798 20.9513 25.989C21.0062 26.0991 21.2799 26.165 21.2799 26.3857C21.2799 26.5951 21.1041 26.6717 20.9953 26.6717C20.951 26.6717 20.8963 26.661 20.8633 26.65C20.6443 26.7274 20.6331 28.3115 19.7121 28.3115C19.0325 28.3115 18.4076 27.7501 18.1344 27.0454C18.0574 26.8367 17.8928 26.7047 17.7392 26.7047C17.5634 26.7047 17.4653 26.7384 17.2569 26.9685C16.6656 27.618 15.6792 28.1794 14.4625 28.1794C14.0899 28.1794 13.7941 28.1467 13.7167 28.1467C13.673 28.1467 13.673 28.1577 13.673 28.1687C13.673 28.2458 14.0459 28.5429 14.857 28.5429C16.7859 28.5429 17.2569 27.4528 17.5637 27.4528C17.6082 27.4528 17.7394 27.4528 17.8162 27.629C18.2657 28.6861 19.2413 28.9285 19.8551 28.9285H19.8655V28.928ZM13.6397 6.80285C14.3625 6.80285 14.6919 7.43014 14.6919 8.13482C14.6919 8.44284 14.6044 8.89415 14.462 8.89415C14.3193 8.89415 14.3412 8.64079 14.3193 8.4094C14.2974 8.11285 14.2425 8.0467 14.1445 8.0467C13.9581 8.0467 13.8376 8.48653 13.8376 8.89415C13.8376 9.14752 13.8808 9.43358 14.0784 9.43358C14.1875 9.43358 14.2865 9.37841 14.3523 9.31277C14.3084 9.81874 13.936 10.2591 13.4098 10.2591C12.4448 10.2591 12.0831 9.1253 11.9735 8.46481C11.3933 9.08137 10.8556 9.53268 9.89092 9.53268C8.99208 9.53268 8.5869 8.87219 8.5869 8.2449C8.5869 8.05743 8.65252 7.57317 8.88196 7.57317C9.15639 7.57317 8.91477 8.47579 9.45244 8.47579C9.58393 8.47579 9.82505 8.36571 9.9568 8.00277C10.0336 7.7826 10.0769 7.55121 10.0769 7.35276C10.0769 7.05547 10.0115 6.86875 9.79199 6.86875C9.60531 6.86875 9.37513 7.01178 9.29857 7.08841C9.56181 6.29613 10.1972 5.88875 10.8989 5.88875C11.7649 5.88875 12.2255 6.65957 12.2255 7.51801C12.2254 7.64346 12.2143 7.76867 12.1925 7.89219C12.5661 7.27563 13.0809 6.80285 13.6397 6.80285ZM10.8885 0.24188C10.8885 0.175731 10.5598 0.109583 10.1099 0.109583C9.39775 0.109583 9.49669 0.704423 8.94858 0.704423C8.37859 0.704423 8.52103 0.087866 7.79767 0.087866C7.35869 0.087866 6.95376 0.164998 6.95376 0.264096C6.95376 0.396145 7.46856 0.341228 7.46856 0.704673C7.46856 1.09008 6.36166 1.20042 6.36166 1.43081C6.36166 1.50794 6.4494 1.54089 6.55903 1.54089C6.80014 1.54089 7.18419 1.43081 7.45738 1.43081C7.61124 1.43081 7.75368 1.46426 7.75368 1.60729C7.75368 1.88262 7.16232 2.37787 7.16232 2.59828C7.16232 2.66468 7.21725 2.68664 7.27194 2.68664C7.49068 2.68664 7.8638 2.12475 8.21453 2.12475C8.79545 2.12475 8.41215 3.36885 8.72933 3.36885C9.0582 3.36885 8.91576 2.14697 9.38731 2.14697C9.77111 2.14697 10.0565 2.99442 10.3192 2.99442C10.3846 2.99442 10.4395 2.93951 10.4395 2.86213C10.4395 2.63148 10.1104 2.15795 10.1104 1.84942C10.1104 1.66221 10.2422 1.57409 10.4177 1.57409C10.67 1.57409 11.01 1.72836 11.1962 1.72836C11.2621 1.72836 11.3277 1.70639 11.3277 1.62926C11.3277 1.36491 10.3518 1.0791 10.3518 0.737622C10.3513 0.395895 10.8885 0.395895 10.8885 0.24188ZM26.5089 21.9157C26.2782 21.9157 25.0063 23.6224 24.1847 23.6224C23.9876 23.6224 23.8231 23.248 23.8231 22.9619C23.8231 22.8076 23.9215 22.6971 24.2732 22.6207C26.1579 22.1911 25.7408 20.7715 27.3518 20.7715C28.2402 20.7715 29.2273 21.3776 29.2273 22.742C29.2273 24.1943 27.1669 26.0005 26.8596 26.0005C26.6076 26.0005 26.3334 25.6368 26.3334 25.3947C26.3334 25.3175 26.3665 25.2187 26.586 25.1303C27.6374 24.7115 28.2405 23.7437 28.2405 23.2482C28.2405 23.1384 28.186 23.028 28.0434 23.028C27.8564 23.028 27.0573 24.8548 26.1694 24.8548C25.5546 24.8548 24.93 24.2934 24.93 24.03C24.93 23.5894 26.706 22.7744 26.706 22.1576C26.7055 21.9265 26.5964 21.9157 26.5089 21.9157ZM27.6921 21.2335C27.5383 21.2335 27.3737 21.3551 27.3737 21.6512C27.3737 21.9816 27.6268 22.1908 27.7689 22.2567C27.8661 22.3119 27.9753 22.3422 28.0869 22.3448C28.4048 22.3448 28.6568 22.2567 28.6568 21.9924C28.6568 21.6512 28.1637 21.2335 27.6921 21.2335ZM13.4642 1.36466C13.4642 1.56286 14.1552 1.99245 14.4727 1.99245C14.6591 1.99245 14.714 1.73909 14.714 1.4745C14.714 1.145 14.5711 1.13352 14.2862 1.13352C13.9253 1.13352 13.4642 1.23287 13.4642 1.36466ZM14.6047 3.54433C14.6047 2.88359 12.8075 1.66171 12.8075 1.16697C12.8075 1.145 12.8075 1.13377 12.8179 1.1118C12.9496 0.748356 14.4401 0.494993 14.4401 0.197698C14.4401 0.0544168 14.1774 0.0544169 14.0459 0.0544169C13.026 0.0544169 11.5355 0.428845 11.5355 0.792539C11.5355 1.16697 12.8728 2.08057 12.8728 2.53213C12.8728 2.65294 12.7965 2.69738 12.676 2.69738C12.3033 2.69738 11.4915 2.24582 11.1082 2.24582C10.9327 2.24582 10.8673 2.36663 10.8673 2.54286C10.8673 3.07081 11.4915 4.07302 11.4915 4.36982C11.4915 4.40277 11.4806 4.44695 11.4373 4.44695C11.2399 4.44695 10.308 3.34638 9.97942 3.34638C9.85886 3.34638 9.84767 3.51163 9.84767 3.75351V4.12794C9.84767 4.3808 9.83674 4.53482 9.71618 4.53482C9.43106 4.53482 9.29932 3.73155 9.02539 3.73155C8.74002 3.73155 8.68608 5.16286 8.4119 5.16286C8.09398 5.16286 8.36766 3.58826 8.06042 3.58826C7.72086 3.58826 7.33682 4.63417 7.09645 4.63417C7.00845 4.63417 6.98657 4.54605 6.98657 4.46867C6.98657 4.15016 7.17325 3.63245 7.17325 3.32417C7.17325 3.1699 7.12926 3.08204 6.99751 3.08204C6.65771 3.08204 5.91273 3.6327 5.62737 3.6327C5.58362 3.6327 5.52893 3.61073 5.52893 3.5663C5.52893 3.30195 6.72383 2.46573 6.72383 2.0913C6.72383 1.72786 5.07926 1.96999 5.07926 1.55163C5.07926 1.19992 6.25204 0.836222 6.25204 0.472778C6.25204 0.153765 4.85977 0.0109834 4.32334 0.0109834C3.67605 0.0109834 3.32531 0.087616 3.32531 0.27483C3.32531 0.560893 4.79414 0.649257 4.79414 0.902371C4.79414 1.145 3.27038 1.79401 3.27038 2.16844C3.27038 2.49843 5.41906 2.1899 5.41906 2.53188C5.41906 2.90556 3.54431 4.52358 3.54431 5.06351C3.54431 5.18482 3.6323 5.23974 3.75237 5.23974C4.32309 5.23974 5.80261 4.15016 6.20779 4.15016C6.35022 4.15016 6.36141 4.32564 6.36141 4.47965C6.36141 4.76621 6.26297 5.20629 6.26297 5.5258C6.26297 5.77867 6.32835 5.95465 6.54809 5.95465C6.95351 5.95465 7.32613 5.26146 7.60006 5.26146C7.95129 5.26146 7.74249 7.29735 8.26922 7.29735C8.7179 7.29735 8.90433 5.09621 9.18969 5.09621C9.47506 5.09621 9.70524 5.73423 9.96823 5.73423C10.2966 5.73423 10.1432 4.62243 10.4942 4.62243C10.8778 4.62243 11.9737 5.94342 12.4672 5.94342C12.6208 5.94342 12.6757 5.8221 12.6757 5.66809C12.6757 5.08523 11.8646 3.76425 11.8646 3.34564C11.8646 3.2353 11.8972 3.20235 12.018 3.20235C12.4453 3.20235 13.6951 3.7972 14.2867 3.7972C14.4836 3.79769 14.6047 3.68761 14.6047 3.54433ZM29.5676 16.214C29.7429 15.6633 29.9614 15.2774 30.3225 14.6836C29.9614 14.4966 29.0083 14.1002 29.0083 13.4509C29.0083 12.6916 29.9517 12.0978 30.1473 12.0978C30.2353 12.0978 30.2574 12.1749 30.2574 12.3179C30.2574 12.7138 30.0705 13.3521 30.0705 13.6931C30.0705 14.0008 30.2681 14.2984 30.4429 14.2984C30.6298 14.2984 31.1448 13.6379 31.1448 12.9889C31.1448 11.8222 30.1252 11.47 29.8087 11.47C29.5122 11.47 28.9748 11.9542 27.7133 11.9542C25.3568 11.9542 24.8201 9.60931 24.8201 8.58563C24.8201 8.54169 24.8303 8.53071 24.8415 8.53071C24.8969 8.53071 25.1268 8.81677 25.8721 8.81677C26.2561 8.81677 26.6071 8.71792 27.1664 8.71792C28.4811 8.71792 29.0628 9.63203 29.8741 10.7987C30.3663 11.1065 31.5393 11.602 31.5393 12.9999C31.5393 14.2322 30.2348 14.915 29.9179 16.2357C30.4212 16.181 30.7175 15.2776 31.2331 15.2776C31.4963 15.2776 31.6166 15.4873 31.6166 15.8173C31.6166 16.3023 31.3427 17.0282 30.816 17.4798C30.8272 17.4356 30.8272 17.3804 30.8272 17.3148C30.8272 17.0063 30.7063 16.5659 30.3554 16.5659C29.8087 16.5659 29.633 17.1603 29.3255 17.6558C29.0081 16.533 28.5798 15.52 27.8127 14.904C27.0349 14.2762 25.6968 14.6177 25.6968 13.4732C25.6968 13.1646 25.8939 12.7245 25.8939 12.3728C25.8939 12.252 25.8721 12.1417 25.8064 12.0536C26.8589 12.4492 26.486 13.1536 27.1333 13.8798C27.5378 14.3423 28.6563 14.7827 29.3039 16.6867C29.3141 16.6321 29.3253 16.489 29.3253 16.3902C29.3253 14.7612 27.1773 13.1649 26.9909 12.5049C28.2395 12.6479 28.459 12.9562 29.0513 14.6067C29.1724 14.9482 29.5676 15.7954 29.5676 16.214ZM6.02136 7.24293C6.0858 7.03623 6.11898 6.82099 6.11979 6.6044C6.11979 6.07571 5.87917 5.27269 5.1332 5.27269C4.70565 5.27269 4.39916 5.61342 4.39916 6.0208C4.39941 6.89097 5.26519 7.24293 6.02136 7.24293ZM5.08945 10.0169C4.72777 10.0169 4.33353 9.56588 4.33353 9.15875C4.33353 8.93834 4.49834 8.66276 4.61765 8.66276C4.6619 8.66276 4.68378 8.69571 4.69496 8.77284C4.76059 9.31276 5.11157 9.62079 5.44069 9.77431C5.4735 9.79653 5.49562 9.80776 5.49562 9.82947C5.49562 9.90661 5.28682 10.0169 5.08945 10.0169ZM6.38328 8.98227C6.38328 9.13628 6.29529 9.33473 6.11979 9.33473C5.73674 9.33473 5.4295 8.75087 5.4295 8.42063C5.4295 8.21195 5.55006 8.18973 5.71462 8.18973C5.79118 8.18973 5.82374 8.20071 5.87917 8.23366C5.97736 8.28883 5.97736 8.50874 6.09767 8.67374C6.16379 8.78382 6.38328 8.90514 6.38328 8.98227ZM5.99923 7.82629C5.93411 7.8153 5.84611 7.8153 5.75837 7.8153C5.39669 7.8153 4.91396 7.88145 4.48715 8.16776C3.52194 8.79531 3.67531 9.78529 3.52194 10.0389C3.49955 10.0754 3.48815 10.1176 3.48912 10.1605C3.48912 10.2593 3.59875 10.3691 3.69718 10.3691C3.78543 10.3691 3.84011 10.3477 3.88386 10.3477C4.1471 10.3477 4.44291 10.5349 4.87046 10.5349C5.12251 10.5349 5.41856 10.4575 5.79143 10.2703C6.58065 9.87416 6.88789 8.8944 6.88789 8.72916C6.88789 8.51998 6.72333 8.55293 6.5809 8.35473C6.42728 8.12408 6.50384 8.03622 6.40541 7.90367C6.33904 7.8485 6.19685 7.8485 5.99923 7.82629ZM7.16182 9.59883C6.9207 9.88439 6.66815 10.3689 6.66815 10.8649C6.66815 11.4587 7.02983 11.9542 7.58887 11.9542C8.12629 11.9542 8.37835 11.4917 8.37835 11.0189C8.37835 10.281 7.70918 9.76358 7.16182 9.59883ZM4.81552 7.48506C4.81552 7.48506 4.49834 7.72719 4.1031 7.72719C3.63181 7.72719 3.25894 7.37473 3.25894 6.87973C3.25894 6.53851 3.43394 6.18629 3.84011 6.01006C3.82918 6.07621 3.82917 6.13113 3.82917 6.19728C3.82917 6.82482 4.18016 7.29759 4.81552 7.48506ZM24.3165 13.8908C24.3165 13.6711 24.5131 13.4836 24.7326 13.4836C24.9735 13.4836 25.1604 13.6711 25.1604 13.8908C25.1604 14.1439 24.9735 14.3201 24.7326 14.3201C24.5131 14.3201 24.3165 14.1439 24.3165 13.8908ZM24.6011 26.5507C24.656 26.5507 24.7214 26.5836 24.7214 26.7818C24.7214 27.0232 24.6118 27.3422 24.2185 27.5958C23.9439 27.783 23.5713 27.9368 23.0226 27.948C23.1101 27.6837 23.176 27.4089 23.176 27.1443C23.176 27.0561 23.1648 26.9897 23.1541 26.8921H23.2963C24.1631 26.8921 24.535 26.5507 24.6011 26.5507ZM24.6883 25.4603C24.7763 25.3832 24.7975 25.2624 24.7975 25.1411V24.8877C24.7975 24.5684 24.3162 24.381 23.6585 24.381C22.8583 24.381 22.4303 24.7444 22.4303 24.8987V25.4052C22.4303 25.6146 22.9128 25.8235 23.5051 25.8235C23.9767 25.8235 24.4045 25.7027 24.6883 25.4603ZM25.2588 25.5816C24.9735 25.8016 24.3053 26.2973 23.1979 26.2973C22.606 26.2973 22.3433 26.1101 22.2555 26.1101C22.1464 26.1101 22.0254 26.2199 21.9046 26.3632C21.6413 26.6715 21.3015 27.2431 21.3015 27.8704C21.3015 28.3115 21.6413 28.7518 22.2774 28.7518C24.3277 28.7518 25.8619 27.4633 25.8619 26.4184C25.8619 25.8235 25.5109 25.5816 25.2588 25.5816ZM25.6419 16.324C25.6419 16.5989 25.7301 16.9179 26.0046 16.9179C26.2347 16.9179 26.4323 16.5657 26.4323 16.1808C26.4323 15.7402 26.355 15.399 26.355 15.2225C26.355 15.1461 26.3881 15.1129 26.4323 15.1129C26.5964 15.1239 26.7498 15.5754 26.9255 15.5754C27.1231 15.5754 27.4182 15.212 27.5383 15.212C27.5713 15.212 27.5825 15.2559 27.5825 15.2669C27.5825 15.4322 27.33 15.7954 27.33 15.9386C27.33 16.0597 27.9666 16.0817 27.9666 16.192C27.9666 16.3572 27.2976 16.3572 26.9805 16.5C26.6737 16.6318 26.4868 16.7968 26.4868 17.017C26.4868 17.2372 26.7058 17.2813 27.013 17.2813C27.7471 17.2813 28.2626 16.8849 28.4269 16.8849C28.46 16.8849 28.4819 16.9067 28.4819 16.9399C28.4819 17.0502 28.109 17.4136 28.109 17.5789C28.109 17.7661 28.7891 17.9855 28.7779 18.0958C28.7672 18.1285 28.7235 18.1395 28.6464 18.1395C28.5261 18.1395 28.3397 18.1068 28.1967 18.1068C28.1087 18.1068 28.0322 18.1173 27.9996 18.1615C27.9223 18.2499 28.0215 18.8332 27.8676 18.8332C27.7254 18.8332 27.3521 17.5342 26.5092 17.5342C26.3884 17.5342 26.3004 17.6333 26.3004 17.7985C26.3004 18.2386 26.7286 18.7448 27.1341 18.9872C27.3195 19.1088 27.6268 19.2296 27.6268 19.2958C27.6268 19.4271 26.9258 19.3065 26.9258 19.5262C26.9258 19.7246 27.0133 20.0219 27.0133 20.1981C27.0133 20.253 27.0031 20.3189 26.9365 20.3189C26.8055 20.3189 26.4868 19.7136 26.3334 19.7136C26.2024 19.7136 25.9168 20.0768 25.7965 20.0768C25.7634 20.0768 25.7411 20.0439 25.7411 20.0107C25.7411 19.7573 26.147 19.1854 26.147 18.6238C26.147 18.3594 26.1144 17.7873 25.7965 17.7873C25.5328 17.7873 25.2372 18.2049 25.1052 18.6238C25.0284 18.8662 25.0838 19.8015 24.9081 19.8015C24.744 19.8015 24.7873 19.1742 24.5683 19.1742C24.4047 19.1742 24.0542 19.471 23.9332 19.471C23.9113 19.471 23.8894 19.46 23.8894 19.438C23.8894 19.3062 24.2069 18.8769 24.2069 18.789C24.2069 18.6238 23.483 18.6018 23.483 18.4695C23.483 18.3921 23.7679 18.3375 24.0316 18.2933C24.5904 18.1942 25.4124 17.7873 25.4124 17.2147C25.4124 16.5759 24.7977 16.3013 24.3938 16.037C24.185 15.9047 23.9548 15.7944 23.9548 15.7065C23.9548 15.6181 24.2185 15.6181 24.3277 15.6181C24.4907 15.6181 24.6558 15.6074 24.6558 15.4751C24.6558 15.376 24.6329 15.1785 24.6329 15.0245C24.6329 14.9142 24.6441 14.8263 24.6883 14.8263C24.8529 14.8263 25.0836 15.3653 25.1932 15.3653C25.368 15.3653 25.6098 14.9254 25.7744 14.9254C25.8288 14.9254 25.8507 14.9584 25.8507 15.0572C25.8507 15.4649 25.6419 15.9274 25.6419 16.324ZM20.4136 13.0992C20.5344 14.0343 21.7842 13.5608 21.7842 14.6945C21.7842 14.8598 21.74 15.1022 21.74 15.3108C21.74 15.5532 21.7619 15.7624 21.9483 15.7624C22.1347 15.7624 22.179 15.6304 22.179 15.4539C22.179 15.2774 22.1347 15.058 22.1347 14.9369C22.1347 14.5515 22.4092 14.4634 22.5732 14.4634C22.9898 14.4634 23.3078 14.893 23.9332 14.893C23.7905 15.5972 22.3435 15.4099 22.3435 16.181C22.3435 16.5659 22.7266 16.6543 22.9791 16.6543C23.2093 16.6543 23.2859 16.6208 23.2859 16.4234C23.2859 16.3131 23.264 16.1922 23.264 16.1149C23.264 16.0709 23.2966 16.0273 23.352 16.0273C23.5934 16.0273 24.7763 16.9294 24.7763 17.205C24.7763 17.4581 23.5273 17.7112 23.1651 17.7112C23.0562 17.7112 23.0341 17.6343 23.0341 17.5904C23.0341 17.513 23.2205 17.2818 23.2205 17.1495C23.2205 17.0507 23.0565 16.9845 22.6175 16.9845C22.4092 16.9845 22.2558 17.0065 22.2558 17.1718C22.2558 17.4688 22.7375 17.8322 22.7375 18.1073C22.7375 18.3272 22.6065 18.4593 22.2558 18.4593C21.9597 18.4593 21.5101 18.2281 21.5101 17.8435C21.5101 17.5349 21.8285 17.2267 21.8285 17.0397C21.8285 16.9845 21.7842 16.8964 21.6527 16.8964C21.2468 16.8964 21.1377 17.975 19.7009 18.0963C19.9316 17.8874 20.1292 17.656 20.1292 17.1827C20.1292 16.9513 20.0743 16.7639 20.0743 16.5113C20.0743 16.181 20.2272 16.0158 20.4467 16.0158C20.8526 16.0158 21.0497 16.5879 21.3127 16.5879C21.4554 16.5879 21.6083 16.4563 21.6083 16.2584C21.6083 15.4212 20.0079 15.5422 20.0079 14.3648C20.0082 14.045 20.1173 13.6491 20.4136 13.0992ZM22.4964 20.2535C22.4964 20.4078 22.606 20.5291 22.7592 20.5291C22.9349 20.5291 23.045 20.3749 23.045 20.1989C23.045 19.9675 22.8362 19.6482 22.6386 19.6482C22.5511 19.6482 22.5842 19.78 22.5618 19.923C22.5513 20.0334 22.4964 20.1657 22.4964 20.2535ZM21.9264 18.7898C23.0776 19.0097 23.7027 19.8794 23.7027 20.6941C23.7027 21.2558 23.3518 21.772 22.737 21.772C22.1787 21.772 21.7728 21.3868 21.7728 20.771C21.7728 20.3087 22.1345 19.8242 22.1345 19.3504C22.1347 19.164 22.0803 18.9767 21.9264 18.7898ZM20.4685 20.6614C20.5782 20.771 20.6112 20.8813 20.6112 20.9914C20.6112 21.1562 20.5344 21.3326 20.5344 21.5189C20.5344 21.7832 20.7315 22.0138 21.0169 22.0138C21.3236 22.0138 21.5314 21.7717 21.5314 21.4857C21.5317 21.0685 21.1039 20.6614 20.4685 20.6614ZM24.097 19.9565C24.1738 20.0773 24.2066 20.1989 24.2066 20.309C24.2066 20.617 23.9983 20.9035 23.9983 21.2226C23.9983 21.585 24.273 21.8825 24.6881 21.8825C25.1383 21.8825 25.445 21.5191 25.445 21.0908C25.4453 20.5074 24.919 20.0114 24.097 19.9565ZM20.7315 19.3729C21.2354 19.439 21.3564 19.615 21.3564 19.758C21.3564 20.0007 21.1375 20.0776 20.9291 20.0776C20.7758 20.0776 20.6005 20.0446 20.4136 20.0446C20.1722 20.0446 19.9316 20.0998 19.734 20.3309C19.8762 20.3529 20.085 20.4517 20.085 20.6721C20.085 21.3109 18.3196 20.782 18.3196 22.4222C18.3196 23.2921 19.2192 24.238 20.5782 24.238C21.2796 24.238 21.7288 24.0078 21.7288 23.7435C21.7288 23.5343 21.3564 23.6773 21.3564 23.5013C21.3564 23.4237 21.4879 23.2809 21.4879 23.1598C21.4879 23.1049 21.4442 23.0058 21.3564 23.0058C21.1588 23.0058 20.787 23.3248 20.0301 23.3248C19.4382 23.3248 18.857 22.9836 18.857 22.5211C18.857 22.4222 18.9013 22.3668 18.9666 22.3668C19.032 22.3668 19.12 22.4112 19.1968 22.4112C19.2629 22.4112 19.2736 22.3668 19.2736 22.2457C19.2736 22.1249 19.2736 21.7832 19.4824 21.7832C19.6898 21.7832 20.085 22.554 21.5978 22.554C22.1022 22.554 23.0776 22.4552 23.4393 22.1247C23.4286 23.3363 22.4852 24.9314 20.5128 24.9314C18.4625 24.9314 17.3668 23.2809 17.3668 21.761C17.3668 20.0773 18.7365 18.5471 20.6115 18.5471C21.0935 18.5471 21.4994 18.7126 21.4994 18.9213C21.4991 19.2081 20.787 19.0319 20.7315 19.3729ZM12.7963 8.10162C12.7963 7.9144 12.7523 7.87047 12.7083 7.87047C12.5989 7.87047 12.4776 8.00252 12.3028 8.29931C12.3247 8.69546 12.3906 8.87194 12.4997 8.87194C12.6205 8.87219 12.7963 8.48653 12.7963 8.10162ZM11.2939 8.55268C11.4147 8.55268 11.5678 8.42063 11.8532 8.10162C11.8751 7.95858 11.875 7.82604 11.875 7.66104C11.875 7.44088 11.7871 7.19825 11.6553 7.19825C11.3272 7.19825 11.1626 8.0794 11.1626 8.3103C11.1626 8.44284 11.2288 8.55268 11.2939 8.55268ZM13.0809 9.53243C13.3551 9.53243 13.6618 8.47554 13.6618 7.8153C13.6618 7.67227 13.6399 7.51826 13.5743 7.51826C13.3441 7.51826 12.9596 8.60759 12.9596 9.20268C12.9598 9.43358 13.0148 9.53243 13.0809 9.53243ZM10.395 8.9271C10.7679 8.9271 11.1957 6.90195 11.1957 6.56047C11.1957 6.47236 11.1626 6.40621 11.0863 6.40621C10.7463 6.40621 10.2745 8.33251 10.2745 8.76161C10.2742 8.83874 10.2963 8.9271 10.395 8.9271ZM11.5899 9.76358C11.1186 9.76358 11.097 10.3364 11.097 11.4919C10.746 10.7326 10.1649 9.91784 9.4855 9.91784C9.02489 9.91784 8.8494 10.2261 8.8494 10.7655C8.8494 10.8761 8.86033 11.0411 8.88196 11.14C8.93714 10.9535 9.11239 10.8764 9.33213 10.8764C9.80343 10.8764 10.3732 11.2391 10.746 11.7346C10.3185 11.6574 9.90186 11.5803 9.55112 11.5803C9.33213 11.5803 9.13451 11.6023 8.9702 11.6794C8.65252 11.8224 8.22448 12.296 8.22448 13.0114C8.22448 13.1214 8.23566 13.2418 8.25804 13.3741C8.64159 12.5154 9.66099 12.1307 10.3187 12.1307C10.4497 12.1307 10.5487 12.1417 10.6255 12.1529C10.2854 12.4602 10.2089 13.0001 10.187 13.3631C10.176 13.5393 10.1099 13.5505 9.99011 13.5505C9.99011 13.913 10.2745 14.4527 10.2745 14.728C10.2745 14.8271 10.2198 14.9152 10.1651 14.9372C10.1651 15.4212 10.6471 15.7734 10.6471 16.0817C10.6471 16.1588 10.6255 16.2247 10.5924 16.2581C10.6255 16.4561 11.1517 16.7971 11.2176 16.9401C11.3272 17.1715 11.404 17.1932 11.4584 17.1932C11.6446 17.1932 11.9407 16.9733 11.9407 16.7746C11.9407 16.709 11.886 16.6318 11.8422 16.5986C11.6337 16.4449 11.5243 16.1144 11.4368 15.8942C11.3902 15.8947 11.3447 15.8799 11.3071 15.8521C11.2696 15.8244 11.2421 15.7851 11.2288 15.7402C11.1845 15.5969 11.1624 15.0797 11.0751 14.8268C10.9322 14.7936 10.8668 14.7387 10.8668 14.4412C10.8668 14.2981 10.9543 13.7368 10.9543 13.5388C10.8882 13.5388 10.8007 13.4946 10.8007 13.3626C10.8007 13.0109 11.1517 12.7353 11.2504 12.2845C11.875 12.7465 12.0284 13.2195 12.0284 13.6379C12.0284 13.8576 11.9954 14.0667 11.9516 14.2652C12.4125 14.034 13.1025 13.6931 13.1025 12.9999C13.1025 12.5927 12.9161 12.1417 11.6772 11.9652C12.061 11.8222 12.5437 11.745 12.9491 11.745C13.6506 11.745 14.0563 11.9652 14.1443 12.4602C14.2862 12.2408 14.3958 11.9874 14.3958 11.7563C14.3958 11.2166 13.9472 10.8651 13.3764 10.8651C12.708 10.8651 12.1157 11.2169 11.4796 11.6462C11.7649 11.0521 11.9623 10.6999 12.3133 10.6999C12.368 10.6999 12.4227 10.7104 12.4773 10.7216C12.3463 10.2371 11.8532 9.76358 11.5899 9.76358ZM4.59628 2.90556C4.59628 3.12547 3.76305 3.86359 3.46725 3.86359C3.35763 3.86359 3.32482 3.7313 3.32482 3.61048C3.32482 3.39007 3.42325 3.08179 3.54381 2.98244C3.68624 2.85039 4.01536 2.78499 4.26741 2.78499C4.42128 2.78524 4.59628 2.81744 4.59628 2.90556ZM30.0601 17.6997C30.6082 17.6997 31.0466 18.4153 31.0466 19.2523C31.0466 20.1432 30.63 21.1127 29.8858 21.7722C29.8746 20.2867 28.0652 20.7603 28.0652 19.6812C28.0652 19.2191 28.3939 18.9106 28.7891 18.9106C29.1396 18.9106 29.4145 19.0099 29.6116 19.2081C29.4145 19.0212 29.3151 18.7568 29.3151 18.5035C29.3146 18.0851 29.5783 17.6997 30.0601 17.6997ZM21.9264 6.43941C21.8389 6.29613 21.5098 6.21924 21.3564 6.21924C20.8745 6.21924 20.5456 6.56072 20.4797 6.86875C20.431 6.74994 20.4048 6.62304 20.4024 6.49457C20.4024 6.00981 20.7315 5.41572 21.5317 5.41572C22.2337 5.41572 22.5076 5.7899 22.606 5.7899C22.7152 5.7899 22.8255 5.67982 22.9128 5.67982C23.0336 5.67982 23.0336 5.86703 23.0336 5.99908C23.0336 6.43966 22.836 7.19875 22.3433 7.47432C22.2553 7.28686 22.08 7.07818 21.7952 6.94563C21.7623 6.93286 21.7341 6.91021 21.7145 6.88078C21.6949 6.85134 21.6848 6.81655 21.6856 6.78113C21.6856 6.65982 21.7952 6.50531 21.9264 6.43941ZM20.2714 7.24293C20.5568 7.51801 20.8083 7.63907 21.1153 7.63907C21.2356 7.63907 21.3786 7.60587 21.4556 7.60587C21.5541 7.60587 21.6197 7.65006 21.6197 7.72694C21.6197 7.84825 21.5101 8.04645 21.3783 8.15653C21.5098 8.2117 21.6528 8.23341 21.8061 8.23341C22.4305 8.23341 23.1432 7.83702 23.1432 6.84678C23.2747 7.02227 23.352 7.38571 23.352 7.55071C23.352 8.75037 22.4743 9.21292 21.6639 9.21292C21.1377 9.21292 20.8745 9.03694 20.8086 9.03694C20.6008 9.03694 20.6115 9.45505 20.4688 9.44406C20.2167 9.40038 19.9868 8.83849 19.9868 8.2444C19.9863 7.89219 20.0743 7.51801 20.2714 7.24293ZM12.6536 4.03982C12.6536 4.42474 14.0237 6.30736 14.2865 6.30736C14.5055 6.30736 14.67 5.92195 14.67 5.59145C14.67 5.50384 14.6482 5.41572 14.6044 5.34982C14.4068 5.07449 13.0145 3.97368 12.7083 3.97368C12.6755 3.97393 12.6536 4.00688 12.6536 4.03982ZM28.4704 3.13671C28.4704 2.35565 26.6076 2.15745 26.6076 1.98097C26.6076 1.83794 27.6486 1.59556 28.186 1.58433C27.363 0.528193 26.1912 0.638275 26.1912 0.451061C26.1912 0.340729 27.0685 0.120067 27.8788 0.120067C28.5584 0.120067 29.195 0.27458 29.195 0.792039C29.195 1.07835 28.9643 1.3759 28.9643 1.81572C28.9643 2.05785 29.0846 2.26728 29.4033 2.26728C29.7431 2.26728 29.8199 1.90384 29.8199 1.51843C29.8199 1.19992 29.765 0.957287 29.765 0.803272C29.765 0.340729 30.0819 0.0327001 30.5316 0.0327001C30.9045 0.0327001 30.992 0.197448 31.5401 0.197448C31.2445 0.373679 31.1346 0.693191 31.1346 0.847205C31.1346 1.30975 31.4312 1.62876 31.4312 2.57581C31.4312 4.31465 29.8092 4.93121 27.8239 4.93121C27.2758 4.93121 26.6956 4.88703 26.1256 4.79891C26.0374 4.78793 26.0155 4.76621 26.0155 4.71105C26.0155 4.56777 26.7943 4.49089 26.7943 3.78621C26.7943 3.51113 26.706 3.24654 26.706 3.14769C26.7059 3.13603 26.7081 3.12445 26.7125 3.11366C26.7169 3.10286 26.7234 3.09305 26.7316 3.08482C26.7398 3.07658 26.7496 3.07008 26.7604 3.0657C26.7711 3.06133 26.7827 3.05916 26.7943 3.05932C26.9588 3.05932 27.2865 3.69835 27.9002 3.69835C28.065 3.6986 28.4704 3.64343 28.4704 3.13671ZM30.3225 2.02515C30.3225 3.00491 29.6114 3.75351 28.3282 3.96294C28.4704 3.97393 28.6027 3.97393 28.7342 3.97393C30.2353 3.97393 30.7834 3.29122 30.7834 2.71909C30.7834 2.39958 30.6082 2.11352 30.3225 2.02515ZM29.2823 10.8759C29.2823 10.6445 28.7011 10.6225 28.6462 9.97276C28.635 9.87391 28.6024 9.69768 28.4816 9.69768C28.2845 9.69768 28.4374 10.303 28.2184 10.303C27.7135 10.303 27.5494 9.31277 27.363 9.31277C27.3193 9.31277 27.2646 9.34571 27.2646 9.47776C27.2646 9.59883 27.2865 9.67596 27.2865 9.81874C27.2865 9.96152 27.2534 10.0609 27.1234 10.0609C26.8273 10.0609 26.5641 9.36743 26.3115 9.36743C26.2566 9.36743 26.2024 9.40088 26.2024 9.45555C26.2024 9.58809 26.4214 9.82947 26.4214 9.95054C26.4214 10.2151 25.7083 10.0714 25.7083 10.292C25.7083 10.3914 25.8072 10.4243 25.9389 10.4243C26.1696 10.4243 26.5313 10.325 26.7172 10.325C26.8273 10.325 26.9919 10.3474 26.9919 10.4902C26.9919 10.6445 26.5967 10.8429 26.5967 10.9857C26.5967 11.0521 26.6628 11.0846 26.717 11.0846C27.013 11.0846 27.5385 10.5676 27.9114 10.5676C27.9775 10.5676 28.1425 10.6008 28.1425 10.6999C28.1425 10.8429 27.7692 11.0955 27.7692 11.3047C27.7692 11.3599 27.8022 11.426 27.8676 11.426C28.0652 11.426 28.3285 10.9086 28.7013 10.9086C28.8435 10.9086 29.0523 10.964 29.1617 10.964C29.2497 10.964 29.2823 10.9086 29.2823 10.8759ZM21.433 2.47671C21.433 2.35565 21.0057 2.12425 21.0057 1.99245C21.0057 1.97024 21.0281 1.95926 21.0601 1.95926C21.1805 1.95926 21.3888 2.00319 21.5538 2.00319C21.696 2.00319 21.7179 1.38738 21.8282 1.38738C21.9046 1.38738 22.0365 1.97024 22.1569 1.97024C22.299 1.97024 22.5618 1.80499 22.6719 1.80499C22.6938 1.80499 22.7152 1.81597 22.7152 1.83819C22.7152 1.91557 22.4412 2.21237 22.4412 2.30073C22.4412 2.39983 23.056 2.5209 23.056 2.60926C23.056 2.71909 22.43 2.70836 22.43 2.80671C22.43 2.88384 22.6607 3.19187 22.6607 3.29147C22.6607 3.31344 22.6495 3.32442 22.6277 3.32442C22.5402 3.32442 22.2009 3.17015 22.1019 3.17015C21.9816 3.17015 21.784 3.62171 21.6853 3.62171C21.6523 3.62171 21.6304 3.57728 21.6304 3.52237L21.608 3.08204C21.608 3.03786 21.5866 2.99392 21.5312 2.99392C21.3997 2.99392 21.1476 2.98269 21.0708 2.98269C21.0164 2.98269 20.9945 2.97171 20.9945 2.94949C20.9953 2.86163 21.433 2.5536 21.433 2.47671ZM23.5713 4.56802C22.8032 4.56802 22.2993 4.18261 22.2993 3.98491C22.2993 3.88581 22.3654 3.81966 22.4522 3.81966C22.694 3.81966 23.2203 4.19334 23.3955 4.19334C23.4393 4.19334 23.4723 4.17162 23.4723 4.10572C23.4723 3.90778 23.2859 3.57728 23.2859 3.41228C23.2859 3.36835 23.3189 3.33515 23.3848 3.33515C23.6804 3.33515 24.1194 3.45647 24.3495 3.45647C24.4268 3.45647 24.448 3.41203 24.448 3.3681C24.448 3.12547 23.7358 2.6527 23.7358 2.50966C23.7358 2.37762 24.6227 2.17942 24.6227 1.96999C24.6227 1.74983 23.4171 1.90384 23.4171 1.69441C23.4171 1.5404 23.6473 1.27655 23.6473 1.15573C23.6473 1.10032 23.6036 1.0786 23.527 1.0786C23.4286 1.0786 22.9016 1.28778 22.6828 1.28778C22.5732 1.28778 22.4415 1.26582 22.4415 1.11155C22.4415 0.858438 22.8693 0.582859 23.5382 0.582859C24.6227 0.582859 25.27 1.33171 25.27 2.5868C25.27 4.17162 24.1631 4.56802 23.5713 4.56802ZM16.1503 23.6119C16.1503 23.7105 16.117 23.8208 16.0292 23.9307C15.9092 23.7103 15.5686 23.6002 15.4163 23.6002C14.2865 23.6002 14.7143 25.2402 13.5082 25.2402C13.0038 25.2402 12.9596 25.174 12.7741 25.174C12.6971 25.174 12.6533 25.2072 12.6533 25.2729C12.6533 25.5589 13.0588 26.2644 14.1875 26.2644C15.3176 26.2644 16.4018 25.5704 16.4018 24.711C16.3996 24.5554 16.3659 24.4018 16.3029 24.2597C16.3472 24.1935 16.4565 24.1496 16.555 24.1496C16.7307 24.1496 16.8294 24.348 16.9937 24.348C17.1692 24.348 17.3004 24.216 17.3004 24.041C17.3004 23.8977 17.2236 23.7986 17.0919 23.732C17.1799 23.6663 17.2455 23.5562 17.2455 23.4354C17.2455 23.248 17.1138 23.072 16.8953 23.072C16.7963 23.072 16.7307 23.1052 16.6542 23.1818C16.632 22.9836 16.5227 22.7964 16.3141 22.7964C16.1503 22.7964 16.0292 22.9177 16.0292 23.1049C16.0292 23.2809 16.1503 23.4239 16.1503 23.6119ZM13.2012 24.0298C12.8726 24.0298 12.3797 23.6773 12.3797 23.4791C12.3797 23.3139 12.5333 23.2257 12.6536 23.2257C12.9278 23.2257 13.4207 23.5672 13.4207 23.8535C13.4207 23.9307 13.3658 24.0298 13.2012 24.0298ZM10.143 21.563C11.0204 21.7835 11.4584 22.2567 11.5462 22.8184C11.6339 23.358 11.7433 23.7989 11.9519 24.0188C12.226 24.3258 12.7635 24.6011 13.2343 24.6011C13.629 24.6011 13.9474 24.4696 13.9474 24.1072C13.9474 23.7105 13.41 22.8186 12.6205 22.8186C12.544 22.8186 12.445 22.8299 12.3357 22.8299C12.237 22.8299 12.094 22.8076 12.0063 22.7308C11.8306 22.577 11.7761 21.7508 11.447 21.2563C11.0858 20.7056 10.6911 20.5516 10.1539 20.5516C9.77012 20.5516 9.34282 20.7608 9.34282 21.069C9.34307 21.2558 9.44175 21.3871 10.143 21.563ZM15.6457 20.2208C15.6457 19.7256 14.6265 19.7144 14.6265 18.966C14.6265 18.7788 14.7466 18.4593 14.9887 18.1178C15.0869 18.6904 15.3178 18.9877 15.8102 19.1749C16.7857 19.5379 16.9174 20.088 16.9174 20.6721C16.9174 21.6621 16.2269 22.8958 14.4513 22.8958C13.026 22.8958 12.0065 21.6182 12.0065 20.5399C12.0065 20.2426 12.0834 19.9121 12.27 19.9121C12.4341 19.9121 12.489 20.0441 12.6208 20.1764C13.1137 20.6719 13.6511 20.8039 14.4292 20.8039C15.1309 20.8042 15.6457 20.5181 15.6457 20.2208ZM15.6894 21.0136C15.3064 21.1674 15.1639 21.1562 15.1639 21.5408C15.1639 21.6841 15.1311 21.8713 15.1311 21.9704C15.1311 22.1027 15.153 22.1798 15.3066 22.1798C15.7006 22.1798 16.3253 21.5084 16.3253 20.9362C16.3253 20.7822 16.238 20.7163 16.1396 20.7163C16.0514 20.7163 15.9527 20.8923 15.6894 21.0136ZM12.193 15.4539C12.193 14.7497 13.8594 14.3753 13.8594 13.5059C13.8594 13.3628 13.8045 13.1102 13.7058 12.9227C14.2865 13.2415 14.7143 13.7814 14.7143 14.2213C14.7143 14.9811 13.9253 15.3328 13.9253 15.8063C13.9253 16.3572 14.7692 16.4451 14.7692 17.1276C14.7692 17.689 13.969 18.3382 13.969 19.0651C13.969 19.626 14.3628 20.0883 14.9663 20.1657C14.7692 20.2099 14.5935 20.2428 14.407 20.2428C13.3001 20.2428 12.1599 19.329 12.1599 18.2394C12.1599 17.6999 12.3906 17.2267 12.7413 16.8854C13.0478 17.1495 13.3551 17.326 13.5519 17.326C13.7277 17.326 13.8045 17.2376 13.8045 17.1059C13.8045 16.6977 12.193 16.324 12.193 15.4539ZM14.4535 39.0036C14.7635 39.0036 15.2957 38.9025 15.7148 38.2281C15.4754 37.6946 15.3044 36.6138 15.28 36.2209C15.1567 34.2107 15.9283 32.3196 16.7727 32.2677C17.3919 32.2305 17.8871 32.8188 17.944 33.7701C18.0969 36.2765 17.2647 37.3227 16.8498 38.2236C16.9199 38.5745 17.51 39.1699 18.0685 39.1699C18.2749 39.1699 18.5234 39.0665 18.5856 38.9824C18.5281 38.7874 18.5 38.5849 18.5021 38.3816C18.5021 36.9303 19.4327 35.7047 20.2376 35.7047C20.8789 35.7047 21.2488 36.5551 21.2488 37.1173C21.2488 37.7797 20.6915 38.3199 19.8657 38.8386C20.0114 38.9824 20.2784 39.0872 20.5071 39.0872C21.6843 39.0872 22.303 37.6567 22.7584 36.3479C22.8409 36.0991 22.9866 35.7466 23.2745 35.7466C23.7706 35.7466 23.9779 39.0241 24.8027 39.0241C25.1547 39.0241 25.443 38.298 25.443 37.7396C25.443 37.3242 25.2988 37.2828 25.2988 36.6802C25.2988 36.0172 25.6498 35.4568 26.1261 35.4568C26.4145 35.4568 26.5184 35.7469 26.5184 36.0993C26.5184 37.4275 25.5683 39.8965 24.1641 39.8965C23.1091 39.8965 23.1912 38.0693 22.8208 38.0693C22.4067 38.0693 21.828 39.9177 19.7835 39.9177C19.4519 39.9177 19.1014 39.7517 18.813 39.418C18.3169 39.7517 17.9027 39.8965 17.4275 39.8965C16.6638 39.8965 16.333 39.1075 16.024 39.1075C15.6514 39.1075 15.2398 39.9177 13.9991 39.9177C13.0068 39.9177 12.8418 38.5903 12.4915 38.5903C12.1813 38.5903 11.7063 39.9177 11.1902 39.9177C10.3207 39.9177 10.1365 37.615 9.37165 37.615C8.77209 37.615 6.87969 39.9532 6.36539 39.8998C6.15882 39.8778 6.07232 39.723 6.09394 39.5151C6.12302 39.2283 6.36862 38.4602 6.46929 38.0958C6.63633 37.4662 6.7897 36.7733 6.87521 36.5529C6.95998 36.3307 7.19041 36.1722 7.37361 36.1892C7.46632 36.1982 7.49416 36.3719 7.523 36.5147C7.62666 37.0294 7.77331 37.5518 7.93787 37.5518C8.22771 37.5518 9.18646 35.7047 9.74352 35.7047C10.4259 35.7047 10.5081 38.61 11.4376 38.61C11.7478 38.61 11.9762 38.2363 12.1818 37.78C12.2029 37.0114 12.409 35.9134 13.0287 35.9134C13.4634 35.9134 13.6698 36.8871 13.359 37.7393C13.3588 38.7543 14.0195 39.0036 14.4535 39.0036ZM29.8647 37.0541C29.8647 36.5357 29.3904 35.8088 28.6879 35.8088C27.7582 35.8088 26.8502 36.8255 26.8502 38.2361C26.8502 39.5004 27.6332 39.9172 28.4185 39.9172C29.7821 39.9172 30.6094 38.7947 31.0427 37.8624C31.25 38.4847 31.3718 39.9172 31.8898 39.9172C32.0961 39.9172 32.2408 39.8131 32.4899 39.2528C33.1078 37.8624 33.7069 36.2651 34.5344 36.2651C34.8431 36.2651 34.6582 36.8255 35.4014 36.8255C35.7529 36.8255 36 36.5357 36 36.2019C36 35.7249 35.5665 35.352 34.9053 35.352C32.9646 35.352 32.5515 38.2777 32.2408 38.2777C31.7243 38.2777 31.8898 35.9336 31.5174 35.9336C31.1868 35.9336 31.0213 36.3282 30.98 36.5139C30.7111 37.5928 29.9479 39.1494 28.7898 39.1494C28.5219 39.1494 28.0466 39.0453 28.0466 38.7755C28.0466 38.4847 29.8647 38.4445 29.8647 37.0541ZM17.2748 34.3305C17.2393 33.7514 17.0991 33.4898 16.7899 33.5105C16.378 33.536 16.1883 34.8353 16.2718 36.2009C16.3253 37.0928 16.4573 37.2293 16.5808 37.2211C16.8085 37.2076 17.3539 35.6151 17.2748 34.3305ZM13.9159 33.1131C13.8962 32.7801 13.6278 32.5525 13.2765 32.5525C12.8838 32.5525 12.5109 32.9671 12.5539 33.4856C12.5539 33.7963 12.7804 34.1081 13.1741 34.1081C13.628 34.1081 13.9584 33.5907 13.9159 33.1131ZM20.3418 37.3442C20.3418 36.9927 20.1553 36.7009 19.9286 36.7009C19.7417 36.7009 19.3092 36.9083 19.3092 37.5721C19.3092 38.0908 19.4941 38.3389 19.5781 38.4445C20.1757 38.2568 20.3418 37.7585 20.3418 37.3442ZM28.4185 36.6397C28.8525 36.6397 28.9773 37.157 28.8739 37.4687C28.7699 37.7795 28.3991 38.132 27.8199 38.2358C27.6961 37.924 27.6335 36.6397 28.4185 36.6397ZM0.00435128 36.9715C-0.0162804 36.1193 0.0252317 35.2696 0.376965 34.0667C0.562402 33.4247 0.72845 33.195 1.30589 33.0717C1.76029 32.9883 1.71977 33.4646 1.61661 34.0252C1.38966 35.2693 1.28476 35.8709 1.36853 37.2823C1.44957 38.7752 2.13265 39.3566 2.87564 39.3566C3.99125 39.3778 4.4874 38.4447 4.69372 37.0955C4.85828 36.0167 4.73424 35.497 4.63083 35.1662C4.56943 34.9795 4.40413 34.5642 4.34198 34.2539C4.25996 33.4648 4.63083 33.0932 4.94155 32.9886C5.31367 32.8842 5.45883 33.0719 5.60226 33.508C5.78894 34.1713 5.80957 35.0412 5.74718 36.2853C5.6649 37.9859 4.81751 40.0418 2.71059 39.9994C0.892509 39.9589 0.0881211 38.7755 0.00435128 36.9715Z" fill="#2267AE"/>
</svg>
