<svg width="20" height="20" viewBox="0 0 20 20" fill="none" xmlns="http://www.w3.org/2000/svg">
<path d="M16 0.409912C17.0609 0.409912 18.0783 0.831339 18.8284 1.58148C19.5786 2.33163 20 3.34905 20 4.40991V12.4099C20 13.4708 19.5786 14.4882 18.8284 15.2383C18.0783 15.9885 17.0609 16.4099 16 16.4099H11.276L6.514 19.2669C6.37059 19.353 6.20788 19.4017 6.04077 19.4086C5.87366 19.4155 5.70749 19.3804 5.55746 19.3065C5.40743 19.2326 5.27833 19.1222 5.18199 18.9855C5.08565 18.8488 5.02514 18.6901 5.006 18.5239L5 18.4099V16.4099H4C2.97376 16.4099 1.98677 16.0155 1.24319 15.3082C0.499605 14.6009 0.0563122 13.6349 0.00500011 12.6099L0 12.4099V4.40991C0 3.34905 0.421427 2.33163 1.17157 1.58148C1.92172 0.831339 2.93913 0.409912 4 0.409912H16ZM12 9.40991H6C5.73478 9.40991 5.48043 9.51527 5.29289 9.70281C5.10536 9.89034 5 10.1447 5 10.4099C5 10.6751 5.10536 10.9295 5.29289 11.117C5.48043 11.3046 5.73478 11.4099 6 11.4099H12C12.2652 11.4099 12.5196 11.3046 12.7071 11.117C12.8946 10.9295 13 10.6751 13 10.4099C13 10.1447 12.8946 9.89034 12.7071 9.70281C12.5196 9.51527 12.2652 9.40991 12 9.40991ZM14 5.40991H6C5.73478 5.40991 5.48043 5.51527 5.29289 5.70281C5.10536 5.89034 5 6.1447 5 6.40991C5 6.67513 5.10536 6.92948 5.29289 7.11702C5.48043 7.30455 5.73478 7.40991 6 7.40991H14C14.2652 7.40991 14.5196 7.30455 14.7071 7.11702C14.8946 6.92948 15 6.67513 15 6.40991C15 6.1447 14.8946 5.89034 14.7071 5.70281C14.5196 5.51527 14.2652 5.40991 14 5.40991Z" fill="#2157FF"/>
</svg>
