<svg width="60" height="51" viewBox="0 0 60 51" fill="none" xmlns="http://www.w3.org/2000/svg">
<path d="M54.8365 0.5H4.91346C3.70979 0.5 2.55541 0.978895 1.70428 1.83133C0.853158 2.68377 0.375 3.83993 0.375 5.04545V45.9545C0.375 47.1601 0.853158 48.3162 1.70428 49.1687C2.55541 50.0211 3.70979 50.5 4.91346 50.5H8.71159C9.14106 50.5001 9.56175 50.3782 9.92478 50.1484C10.2878 49.9186 10.5783 49.5903 10.7624 49.2017C11.8659 46.8684 13.608 44.8968 15.7863 43.5161C17.9646 42.1355 20.4895 41.4025 23.0673 41.4025C25.6451 41.4025 28.17 42.1355 30.3483 43.5161C32.5266 44.8968 34.2687 46.8684 35.3722 49.2017C35.5564 49.5903 35.8468 49.9186 36.2098 50.1484C36.5729 50.3782 36.9936 50.5001 37.423 50.5H54.8365C56.0402 50.5 57.1946 50.0211 58.0457 49.1687C58.8968 48.3162 59.375 47.1601 59.375 45.9545V5.04545C59.375 3.83993 58.8968 2.68377 58.0457 1.83133C57.1946 0.978895 56.0402 0.5 54.8365 0.5ZM23.0673 36.8636C21.2721 36.8636 19.5171 36.3305 18.0244 35.3315C16.5317 34.3326 15.3683 32.9128 14.6813 31.2517C13.9943 29.5905 13.8146 27.7626 14.1648 25.9992C14.515 24.2357 15.3795 22.6159 16.649 21.3445C17.9184 20.0731 19.5357 19.2073 21.2965 18.8565C23.0572 18.5057 24.8823 18.6858 26.5409 19.3738C28.1995 20.0619 29.6171 21.2271 30.6145 22.7221C31.6119 24.2171 32.1442 25.9747 32.1442 27.7727C32.1442 30.1838 31.1879 32.4961 29.4857 34.201C27.7834 35.9058 25.4747 36.8636 23.0673 36.8636ZM54.8365 45.9545H38.7902C37.8007 44.2464 36.5399 42.7112 35.0574 41.4091H48.0288C48.6307 41.4091 49.2079 41.1696 49.6334 40.7434C50.059 40.3172 50.2981 39.7391 50.2981 39.1364V11.8636C50.2981 11.2609 50.059 10.6828 49.6334 10.2566C49.2079 9.83036 48.6307 9.59091 48.0288 9.59091H11.7212C11.1193 9.59091 10.5421 9.83036 10.1166 10.2566C9.691 10.6828 9.45192 11.2609 9.45192 11.8636V39.1364C9.45167 39.6404 9.61873 40.1302 9.92682 40.5288C10.2349 40.9274 10.6666 41.2121 11.1538 41.3381C9.63683 42.6543 8.34938 44.2145 7.34438 45.9545H4.91346V5.04545H54.8365V45.9545Z" fill="url(#paint0_linear_454_227)"/>
<defs>
<linearGradient id="paint0_linear_454_227" x1="3.375" y1="-4" x2="63.375" y2="55" gradientUnits="userSpaceOnUse">
<stop stop-color="#3021FF"/>
<stop offset="1" stop-color="#1ED760"/>
</linearGradient>
</defs>
</svg>
