<svg width="32" height="33" viewBox="0 0 32 33" fill="none" xmlns="http://www.w3.org/2000/svg">
<rect y="0.909668" width="32" height="32" rx="16" fill="#F7F8F9"/>
<path d="M20.2421 21.1522C20.5025 20.8919 20.5025 20.4698 20.2421 20.2094L16.9428 16.91L20.243 13.6098C20.5034 13.3494 20.5034 12.9273 20.243 12.6669C19.9827 12.4066 19.5606 12.4066 19.3002 12.6669L15.9999 15.9672L12.6997 12.6669C12.4393 12.4066 12.0172 12.4066 11.7568 12.6669C11.4965 12.9273 11.4965 13.3494 11.7568 13.6098L15.0571 16.91L11.7578 20.2094C11.4974 20.4698 11.4974 20.8919 11.7578 21.1522C12.0181 21.4126 12.4402 21.4126 12.7006 21.1522L15.9999 17.8528L19.2993 21.1522C19.5597 21.4126 19.9818 21.4126 20.2421 21.1522Z" fill="#191D23"/>
</svg>
