<svg width="20" height="21" viewBox="0 0 20 21" fill="none" xmlns="http://www.w3.org/2000/svg">
<path d="M10 0.909668C4.47709 0.909668 0 5.38676 0 10.9097C0 16.4326 4.47709 20.9097 10 20.9097C15.5229 20.9097 20 16.4326 20 10.9097C20 5.38676 15.5229 0.909668 10 0.909668ZM10.8635 16.3314V17.7399H9.51631V16.3473C7.30563 16.0445 6.33755 14.2281 6.33755 14.2281L7.71364 13.077C7.71364 13.077 8.59227 14.6065 10.1816 14.6065C11.0596 14.6065 11.7256 14.1366 11.7256 13.3336C11.7256 11.4567 6.6685 11.6844 6.6685 8.20222C6.6685 6.68853 7.86569 5.59798 9.51562 5.33997V3.93292H10.8628V5.33997C12.0132 5.49134 13.3755 6.09682 13.3755 7.39928V8.39832H11.5894V7.91393C11.5894 7.41442 10.9529 7.0814 10.2408 7.0814C9.3326 7.0814 8.66726 7.53551 8.66726 8.17126C8.66726 10.0937 13.7244 9.62441 13.7244 13.2731C13.7244 14.773 12.6042 16.0734 10.8635 16.3314Z" fill="#2157FF"/>
</svg>
