<svg width="187" height="51" viewBox="0 0 187 51" fill="none" xmlns="http://www.w3.org/2000/svg">
<path d="M70.55 6.39912V18.0991H67.7V6.39912H70.55ZM84.4821 8.69912C85.6376 8.69912 86.5543 9.04912 87.2321 9.74912C87.9209 10.4491 88.2654 11.4213 88.2654 12.6658V18.0991H85.4321V13.0491C85.4321 12.4491 85.2709 11.988 84.9487 11.6658C84.6376 11.3325 84.2043 11.1658 83.6487 11.1658C83.0932 11.1658 82.6543 11.3325 82.3321 11.6658C82.0209 11.988 81.8654 12.4491 81.8654 13.0491V18.0991H79.0321V13.0491C79.0321 12.4491 78.8709 11.988 78.5487 11.6658C78.2376 11.3325 77.8043 11.1658 77.2487 11.1658C76.6932 11.1658 76.2543 11.3325 75.9321 11.6658C75.6209 11.988 75.4654 12.4491 75.4654 13.0491V18.0991H72.6154V8.79912H75.4654V9.96579C75.7543 9.5769 76.1321 9.27134 76.5987 9.04912C77.0654 8.81579 77.5932 8.69912 78.1821 8.69912C78.8821 8.69912 79.5043 8.84912 80.0487 9.14912C80.6043 9.44912 81.0376 9.8769 81.3487 10.4325C81.6709 9.92134 82.1098 9.50468 82.6654 9.18245C83.2209 8.86023 83.8265 8.69912 84.4821 8.69912ZM89.6919 13.4325C89.6919 12.4769 89.8697 11.638 90.2253 10.9158C90.5919 10.1936 91.0864 9.63801 91.7086 9.24912C92.3308 8.86023 93.0253 8.66579 93.7919 8.66579C94.4475 8.66579 95.0197 8.79912 95.5086 9.06579C96.0086 9.33245 96.3919 9.68245 96.6586 10.1158V8.79912H99.5086V18.0991H96.6586V16.7825C96.3808 17.2158 95.9919 17.5658 95.4919 17.8325C95.0031 18.0991 94.4308 18.2325 93.7753 18.2325C93.0197 18.2325 92.3308 18.038 91.7086 17.6491C91.0864 17.2491 90.5919 16.688 90.2253 15.9658C89.8697 15.2325 89.6919 14.388 89.6919 13.4325ZM96.6586 13.4491C96.6586 12.738 96.4586 12.1769 96.0586 11.7658C95.6697 11.3547 95.1919 11.1491 94.6253 11.1491C94.0586 11.1491 93.5753 11.3547 93.1753 11.7658C92.7864 12.1658 92.5919 12.7213 92.5919 13.4325C92.5919 14.1436 92.7864 14.7102 93.1753 15.1325C93.5753 15.5436 94.0586 15.7491 94.6253 15.7491C95.1919 15.7491 95.6697 15.5436 96.0586 15.1325C96.4586 14.7213 96.6586 14.1602 96.6586 13.4491ZM105.104 8.66579C105.759 8.66579 106.332 8.79912 106.82 9.06579C107.32 9.33245 107.704 9.68245 107.97 10.1158V8.79912H110.82V18.0825C110.82 18.938 110.648 19.7102 110.304 20.3991C109.97 21.0991 109.454 21.6547 108.754 22.0658C108.065 22.4769 107.204 22.6825 106.17 22.6825C104.793 22.6825 103.676 22.3547 102.82 21.6991C101.965 21.0547 101.476 20.1769 101.354 19.0658H104.17C104.259 19.4213 104.47 19.6991 104.804 19.8991C105.137 20.1102 105.548 20.2158 106.037 20.2158C106.626 20.2158 107.093 20.0436 107.437 19.6991C107.793 19.3658 107.97 18.8269 107.97 18.0825V16.7658C107.693 17.1991 107.309 17.5547 106.82 17.8325C106.332 18.0991 105.759 18.2325 105.104 18.2325C104.337 18.2325 103.643 18.038 103.02 17.6491C102.398 17.2491 101.904 16.688 101.537 15.9658C101.182 15.2325 101.004 14.388 101.004 13.4325C101.004 12.4769 101.182 11.638 101.537 10.9158C101.904 10.1936 102.398 9.63801 103.02 9.24912C103.643 8.86023 104.337 8.66579 105.104 8.66579ZM107.97 13.4491C107.97 12.738 107.77 12.1769 107.37 11.7658C106.982 11.3547 106.504 11.1491 105.937 11.1491C105.37 11.1491 104.887 11.3547 104.487 11.7658C104.098 12.1658 103.904 12.7213 103.904 13.4325C103.904 14.1436 104.098 14.7102 104.487 15.1325C104.887 15.5436 105.37 15.7491 105.937 15.7491C106.504 15.7491 106.982 15.5436 107.37 15.1325C107.77 14.7213 107.97 14.1602 107.97 13.4491ZM121.649 13.2991C121.649 13.5658 121.632 13.8436 121.599 14.1325H115.149C115.193 14.7102 115.377 15.1547 115.699 15.4658C116.032 15.7658 116.438 15.9158 116.916 15.9158C117.627 15.9158 118.121 15.6158 118.399 15.0158H121.432C121.277 15.6269 120.993 16.1769 120.582 16.6658C120.182 17.1547 119.677 17.538 119.066 17.8158C118.455 18.0936 117.771 18.2325 117.016 18.2325C116.105 18.2325 115.293 18.038 114.582 17.6491C113.871 17.2602 113.316 16.7047 112.916 15.9825C112.516 15.2602 112.316 14.4158 112.316 13.4491C112.316 12.4825 112.51 11.638 112.899 10.9158C113.299 10.1936 113.855 9.63801 114.566 9.24912C115.277 8.86023 116.093 8.66579 117.016 8.66579C117.916 8.66579 118.716 8.85468 119.416 9.23245C120.116 9.61023 120.66 10.1491 121.049 10.8491C121.449 11.5491 121.649 12.3658 121.649 13.2991ZM118.732 12.5491C118.732 12.0602 118.566 11.6713 118.232 11.3825C117.899 11.0936 117.482 10.9491 116.982 10.9491C116.505 10.9491 116.099 11.088 115.766 11.3658C115.443 11.6436 115.243 12.038 115.166 12.5491H118.732ZM137.151 18.0991H134.301L129.534 10.8825V18.0991H126.684V6.39912H129.534L134.301 13.6491V6.39912H137.151V18.0991ZM138.65 13.4325C138.65 12.4769 138.828 11.638 139.184 10.9158C139.55 10.1936 140.045 9.63801 140.667 9.24912C141.289 8.86023 141.984 8.66579 142.75 8.66579C143.406 8.66579 143.978 8.79912 144.467 9.06579C144.967 9.33245 145.35 9.68245 145.617 10.1158V8.79912H148.467V18.0991H145.617V16.7825C145.339 17.2158 144.95 17.5658 144.45 17.8325C143.961 18.0991 143.389 18.2325 142.734 18.2325C141.978 18.2325 141.289 18.038 140.667 17.6491C140.045 17.2491 139.55 16.688 139.184 15.9658C138.828 15.2325 138.65 14.388 138.65 13.4325ZM145.617 13.4491C145.617 12.738 145.417 12.1769 145.017 11.7658C144.628 11.3547 144.15 11.1491 143.584 11.1491C143.017 11.1491 142.534 11.3547 142.134 11.7658C141.745 12.1658 141.55 12.7213 141.55 13.4325C141.55 14.1436 141.745 14.7102 142.134 15.1325C142.534 15.5436 143.017 15.7491 143.584 15.7491C144.15 15.7491 144.628 15.5436 145.017 15.1325C145.417 14.7213 145.617 14.1602 145.617 13.4491ZM155.712 15.6825V18.0991H154.262C153.229 18.0991 152.423 17.8491 151.845 17.3491C151.268 16.838 150.979 16.0102 150.979 14.8658V11.1658H149.845V8.79912H150.979V6.53245H153.829V8.79912H155.695V11.1658H153.829V14.8991C153.829 15.1769 153.895 15.3769 154.029 15.4991C154.162 15.6213 154.384 15.6825 154.695 15.6825H155.712ZM158.733 7.83245C158.233 7.83245 157.822 7.68801 157.5 7.39912C157.189 7.09912 157.033 6.73245 157.033 6.29912C157.033 5.85468 157.189 5.48801 157.5 5.19912C157.822 4.89912 158.233 4.74912 158.733 4.74912C159.222 4.74912 159.622 4.89912 159.933 5.19912C160.255 5.48801 160.416 5.85468 160.416 6.29912C160.416 6.73245 160.255 7.09912 159.933 7.39912C159.622 7.68801 159.222 7.83245 158.733 7.83245ZM160.15 8.79912V18.0991H157.3V8.79912H160.15ZM166.448 18.2325C165.537 18.2325 164.715 18.038 163.982 17.6491C163.259 17.2602 162.687 16.7047 162.265 15.9825C161.854 15.2602 161.648 14.4158 161.648 13.4491C161.648 12.4936 161.859 11.6547 162.282 10.9325C162.704 10.1991 163.282 9.63801 164.015 9.24912C164.748 8.86023 165.571 8.66579 166.482 8.66579C167.393 8.66579 168.215 8.86023 168.948 9.24912C169.682 9.63801 170.259 10.1991 170.682 10.9325C171.104 11.6547 171.315 12.4936 171.315 13.4491C171.315 14.4047 171.098 15.2491 170.665 15.9825C170.243 16.7047 169.659 17.2602 168.915 17.6491C168.182 18.038 167.359 18.2325 166.448 18.2325ZM166.448 15.7658C166.993 15.7658 167.454 15.5658 167.832 15.1658C168.221 14.7658 168.415 14.1936 168.415 13.4491C168.415 12.7047 168.226 12.1325 167.848 11.7325C167.482 11.3325 167.026 11.1325 166.482 11.1325C165.926 11.1325 165.465 11.3325 165.098 11.7325C164.732 12.1213 164.548 12.6936 164.548 13.4491C164.548 14.1936 164.726 14.7658 165.082 15.1658C165.448 15.5658 165.904 15.7658 166.448 15.7658ZM178.494 8.69912C179.583 8.69912 180.449 9.05468 181.094 9.76579C181.749 10.4658 182.077 11.4325 182.077 12.6658V18.0991H179.244V13.0491C179.244 12.4269 179.083 11.9436 178.76 11.5991C178.438 11.2547 178.005 11.0825 177.46 11.0825C176.916 11.0825 176.483 11.2547 176.16 11.5991C175.838 11.9436 175.677 12.4269 175.677 13.0491V18.0991H172.827V8.79912H175.677V10.0325C175.966 9.62134 176.355 9.29912 176.844 9.06579C177.333 8.82134 177.883 8.69912 178.494 8.69912ZM70.55 33.6825V36.0491H74.3667V38.2491H70.55V40.8158H74.8667V43.0991H67.7V31.3991H74.8667V33.6825H70.55ZM76.1503 38.4325C76.1503 37.4769 76.3281 36.638 76.6836 35.9158C77.0503 35.1936 77.5447 34.638 78.1669 34.2491C78.7892 33.8602 79.4836 33.6658 80.2503 33.6658C80.8614 33.6658 81.4169 33.7936 81.9169 34.0491C82.4281 34.3047 82.8281 34.6491 83.1169 35.0825V30.7658H85.9669V43.0991H83.1169V41.7658C82.8503 42.2102 82.4669 42.5658 81.9669 42.8325C81.4781 43.0991 80.9058 43.2325 80.2503 43.2325C79.4836 43.2325 78.7892 43.038 78.1669 42.6491C77.5447 42.2491 77.0503 41.688 76.6836 40.9658C76.3281 40.2325 76.1503 39.388 76.1503 38.4325ZM83.1169 38.4491C83.1169 37.738 82.9169 37.1769 82.5169 36.7658C82.1281 36.3547 81.6503 36.1491 81.0836 36.1491C80.5169 36.1491 80.0336 36.3547 79.6336 36.7658C79.2447 37.1658 79.0503 37.7213 79.0503 38.4325C79.0503 39.1436 79.2447 39.7102 79.6336 40.1325C80.0336 40.5436 80.5169 40.7491 81.0836 40.7491C81.6503 40.7491 82.1281 40.5436 82.5169 40.1325C82.9169 39.7213 83.1169 39.1602 83.1169 38.4491ZM97.2121 33.7991V43.0991H94.3621V41.8325C94.0732 42.2436 93.6788 42.5769 93.1788 42.8325C92.6899 43.0769 92.1455 43.1991 91.5455 43.1991C90.8344 43.1991 90.2066 43.0436 89.6621 42.7325C89.1177 42.4102 88.6955 41.9491 88.3955 41.3491C88.0955 40.7491 87.9455 40.0436 87.9455 39.2325V33.7991H90.7788V38.8491C90.7788 39.4713 90.9399 39.9547 91.2621 40.2991C91.5844 40.6436 92.0177 40.8158 92.5621 40.8158C93.1177 40.8158 93.5566 40.6436 93.8788 40.2991C94.201 39.9547 94.3621 39.4713 94.3621 38.8491V33.7991H97.2121ZM104.443 40.6825V43.0991H102.993C101.959 43.0991 101.154 42.8491 100.576 42.3491C99.9982 41.838 99.7093 41.0102 99.7093 39.8658V36.1658H98.5759V33.7991H99.7093V31.5325H102.559V33.7991H104.426V36.1658H102.559V39.8991C102.559 40.1769 102.626 40.3769 102.759 40.4991C102.893 40.6213 103.115 40.6825 103.426 40.6825H104.443ZM114.797 38.2991C114.797 38.5658 114.78 38.8436 114.747 39.1325H108.297C108.341 39.7102 108.525 40.1547 108.847 40.4658C109.18 40.7658 109.586 40.9158 110.063 40.9158C110.775 40.9158 111.269 40.6158 111.547 40.0158H114.58C114.425 40.6269 114.141 41.1769 113.73 41.6658C113.33 42.1547 112.825 42.538 112.213 42.8158C111.602 43.0936 110.919 43.2325 110.163 43.2325C109.252 43.2325 108.441 43.038 107.73 42.6491C107.019 42.2602 106.463 41.7047 106.063 40.9825C105.663 40.2602 105.463 39.4158 105.463 38.4491C105.463 37.4825 105.658 36.638 106.047 35.9158C106.447 35.1936 107.002 34.638 107.713 34.2491C108.425 33.8602 109.241 33.6658 110.163 33.6658C111.063 33.6658 111.863 33.8547 112.563 34.2325C113.263 34.6102 113.808 35.1491 114.197 35.8491C114.597 36.5491 114.797 37.3658 114.797 38.2991ZM111.88 37.5491C111.88 37.0602 111.713 36.6713 111.38 36.3825C111.047 36.0936 110.63 35.9491 110.13 35.9491C109.652 35.9491 109.247 36.088 108.913 36.3658C108.591 36.6436 108.391 37.038 108.313 37.5491H111.88ZM115.734 38.4491C115.734 37.4825 115.928 36.638 116.317 35.9158C116.717 35.1936 117.267 34.638 117.967 34.2491C118.678 33.8602 119.489 33.6658 120.4 33.6658C121.567 33.6658 122.539 33.9713 123.317 34.5825C124.106 35.1936 124.623 36.0547 124.867 37.1658H121.834C121.578 36.4547 121.084 36.0991 120.35 36.0991C119.828 36.0991 119.411 36.3047 119.1 36.7158C118.789 37.1158 118.634 37.6936 118.634 38.4491C118.634 39.2047 118.789 39.788 119.1 40.1991C119.411 40.5991 119.828 40.7991 120.35 40.7991C121.084 40.7991 121.578 40.4436 121.834 39.7325H124.867C124.623 40.8213 124.106 41.6769 123.317 42.2991C122.528 42.9213 121.556 43.2325 120.4 43.2325C119.489 43.2325 118.678 43.038 117.967 42.6491C117.267 42.2602 116.717 41.7047 116.317 40.9825C115.928 40.2602 115.734 39.4158 115.734 38.4491ZM132.108 33.6991C133.175 33.6991 134.03 34.0547 134.675 34.7658C135.319 35.4658 135.641 36.4325 135.641 37.6658V43.0991H132.808V38.0491C132.808 37.4269 132.647 36.9436 132.325 36.5991C132.003 36.2547 131.569 36.0825 131.025 36.0825C130.48 36.0825 130.047 36.2547 129.725 36.5991C129.403 36.9436 129.241 37.4269 129.241 38.0491V43.0991H126.391V30.7658H129.241V35.0491C129.53 34.638 129.925 34.3102 130.425 34.0658C130.925 33.8213 131.486 33.6991 132.108 33.6991Z" fill="white"/>
<path d="M30.9531 3.0752C30.1697 3.0752 29.3959 3.21096 28.6608 3.47278L1.52973 13.2961C0.610849 13.6355 0.0014888 14.5083 0.0014888 15.4877C0.0014888 16.4672 0.610849 17.3399 1.52973 17.6793L7.13004 19.7061C5.54377 22.208 4.64423 25.1656 4.64423 28.2785V31.0034C4.64423 33.7574 3.59962 36.5987 2.48729 38.8388C1.85859 40.0995 1.14283 41.3407 0.311005 42.485C0.0014888 42.902 -0.0855627 43.445 0.0885403 43.9396C0.262643 44.4341 0.668884 44.8026 1.17185 44.9287L7.36217 46.4803C7.76841 46.5869 8.20367 46.5094 8.56155 46.2863C8.91943 46.0633 9.17091 45.6948 9.24829 45.2778C10.0801 41.1274 9.6642 37.4036 9.04517 34.7369C8.73565 33.3598 8.31974 31.9537 7.7394 30.664V28.2785C7.7394 25.3499 8.72598 22.5861 10.438 20.3752C11.6857 18.8721 13.301 17.6599 15.1968 16.9132L30.3825 10.93C31.1756 10.6197 32.0751 11.0076 32.3846 11.8028C32.6942 12.5979 32.3073 13.4998 31.5141 13.8101L16.3285 19.7933C15.1291 20.2685 14.0748 20.9958 13.214 21.8879L28.6511 27.4736C29.3862 27.7354 30.16 27.8712 30.9435 27.8712C31.7269 27.8712 32.5007 27.7354 33.2358 27.4736L60.3765 17.6793C61.2954 17.3496 61.9048 16.4672 61.9048 15.4877C61.9048 14.5083 61.2954 13.6355 60.3765 13.2961L33.2455 3.47278C32.5104 3.21096 31.7366 3.0752 30.9531 3.0752ZM12.3821 39.537C12.3821 42.9602 20.7004 46.5191 30.9531 46.5191C41.2059 46.5191 49.5241 42.9602 49.5241 39.537L48.0442 25.4372L34.2901 30.4216C33.2165 30.8095 32.0848 31.0034 30.9531 31.0034C29.8215 31.0034 28.6801 30.8095 27.6162 30.4216L13.862 25.4372L12.3821 39.537Z" fill="white"/>
</svg>
