<svg width="56" height="50" viewBox="0 0 56 50" fill="none" xmlns="http://www.w3.org/2000/svg">
<path d="M53 30.0021H50.5C50.5 20.328 42.675 12.5038 33 12.5038H30.5V9.32917C31.2603 8.89026 31.8916 8.25894 32.3304 7.49867C32.7693 6.73841 33.0002 5.87601 33 4.9982C32.9998 4.12039 32.7684 3.25812 32.3292 2.49808C31.8899 1.73804 31.2583 1.10704 30.4978 0.668523C29.7373 0.230008 28.8747 -0.000561575 27.9968 1.02712e-06C27.1189 0.000563629 26.2566 0.232238 25.4967 0.671728C24.7367 1.11122 24.1059 1.74303 23.6676 2.50363C23.2294 3.26423 22.9991 4.1268 23 5.00461C23 6.85442 24 8.47926 25.5 9.32917V12.5038H23C13.325 12.5038 5.5 20.328 5.5 30.0021H3C1.625 30.0021 0.5 31.1269 0.5 32.5018V40.001C0.5 41.3759 1.625 42.5008 3 42.5008H5.5V45.0005C5.5 46.3265 6.02678 47.5981 6.96447 48.5357C7.90215 49.4733 9.17392 50 10.5 50H45.5C48.275 50 50.5 47.7752 50.5 45.0005V42.5008H53C54.375 42.5008 55.5 41.3759 55.5 40.001V32.5018C55.5 31.1269 54.375 30.0021 53 30.0021ZM16.75 40.001C15.0924 40.001 13.5027 39.3426 12.3306 38.1706C11.1585 36.9986 10.5 35.4091 10.5 33.7517C10.5 31.7019 11.5 29.9021 13 28.7522L22.575 35.9514C21.75 38.3012 19.425 40.001 16.75 40.001ZM39.25 40.001C36.575 40.001 34.25 38.3012 33.425 35.9514L43 28.7522C44.5 29.9021 45.5 31.7019 45.5 33.7517C45.5 35.4091 44.8415 36.9986 43.6694 38.1706C42.4973 39.3426 40.9076 40.001 39.25 40.001Z" fill="url(#paint0_linear_454_195)"/>
<defs>
<linearGradient id="paint0_linear_454_195" x1="9.5" y1="14" x2="56" y2="58.5" gradientUnits="userSpaceOnUse">
<stop stop-color="#3021FF"/>
<stop offset="1" stop-color="#FF0004"/>
</linearGradient>
</defs>
</svg>
