<svg width="39" height="39" viewBox="0 0 39 39" fill="none" xmlns="http://www.w3.org/2000/svg">
<path d="M19.7425 0.490479C21.4266 0.490479 23.058 0.712258 24.6104 1.12763L20.6146 5.12154C20.3115 5.42589 20.0441 5.76389 19.8177 6.12895H19.7425C17.1404 6.12895 14.5968 6.90056 12.4332 8.34621C10.2696 9.79185 8.58335 11.8466 7.58758 14.2506C6.5918 16.6547 6.33126 19.3 6.8389 21.8521C7.34654 24.4042 8.59957 26.7484 10.4395 28.5884C12.2795 30.4283 14.6237 31.6814 17.1758 32.189C19.7279 32.6967 22.3733 32.4361 24.7773 31.4403C27.1813 30.4446 29.2361 28.7583 30.6817 26.5947C32.1274 24.4311 32.899 21.8875 32.899 19.2854V19.2102C33.2623 18.9847 33.5975 18.7184 33.9045 18.4114L37.9003 14.4175C38.3157 15.97 38.5374 17.6014 38.5374 19.2854C38.5374 29.6658 30.123 38.0803 19.7425 38.0803C9.36211 38.0803 0.947632 29.6658 0.947632 19.2854C0.947632 8.90496 9.36211 0.490479 19.7425 0.490479ZM18.9644 9.91988C18.9644 11.5193 18.8855 13.1413 18.9719 14.7389L17.957 15.7538C17.6079 16.1029 17.331 16.5174 17.142 16.9736C16.9531 17.4297 16.8558 17.9186 16.8558 18.4124C16.8558 18.9061 16.9531 19.395 17.142 19.8511C17.331 20.3073 17.6079 20.7218 17.957 21.0709C18.3061 21.42 18.7206 21.697 19.1768 21.8859C19.6329 22.0749 20.1218 22.1721 20.6156 22.1721C21.1093 22.1721 21.5982 22.0749 22.0543 21.8859C22.5105 21.697 22.925 21.42 23.2741 21.0709L24.289 20.056C25.8866 20.1424 27.5067 20.0635 29.108 20.0635C28.9596 21.8496 28.3034 23.5561 27.2169 24.9816C26.1305 26.4071 24.659 27.4921 22.9761 28.1088C21.2932 28.7254 19.4691 28.848 17.7188 28.4619C15.9686 28.0759 14.3652 27.1974 13.0979 25.93C11.8305 24.6627 10.952 23.0593 10.566 21.3091C10.18 19.5588 10.3025 17.7347 10.9192 16.0518C11.5358 14.3689 12.6209 12.8974 14.0463 11.811C15.4718 10.7245 17.1783 10.0684 18.9644 9.91988ZM31.9667 0.729174C32.3098 0.871412 32.603 1.1121 32.8094 1.42084C33.0158 1.72959 33.1261 2.09256 33.1264 2.46394V5.90341H36.564C36.9356 5.90349 37.2989 6.01376 37.6079 6.22029C37.917 6.42682 38.1578 6.72032 38.3 7.0637C38.4422 7.40709 38.4795 7.78493 38.407 8.14946C38.3345 8.51399 38.1555 8.84885 37.8928 9.1117L31.245 15.7519C30.8926 16.1044 30.4146 16.3025 29.9162 16.3026H25.381L21.9453 19.7402C21.5926 20.0929 21.1143 20.291 20.6156 20.291C20.1168 20.291 19.6385 20.0929 19.2858 19.7402C18.9331 19.3875 18.735 18.9092 18.735 18.4105C18.735 17.9117 18.9331 17.4334 19.2858 17.0807L22.7234 13.6469V9.10982C22.7232 8.86271 22.7717 8.61798 22.8662 8.38964C22.9607 8.16131 23.0993 7.95385 23.2741 7.77914L29.9181 1.13514C30.1809 0.872141 30.5159 0.693009 30.8805 0.62041C31.2452 0.547811 31.6232 0.585008 31.9667 0.727294" fill="#2563EB"/>
</svg>
