<svg width="131" height="45" viewBox="0 0 131 45" fill="none" xmlns="http://www.w3.org/2000/svg">
<path d="M79.306 13.9892V39.2612H73.15V13.9892H79.306ZM106.375 39.2612H100.219L89.9232 23.6732V39.2612H83.7672V13.9892H89.9232L100.219 29.6492V13.9892H106.375V39.2612ZM116.993 18.9212V24.0332H125.237V28.7852H116.993V34.3292H126.317V39.2612H110.837V13.9892H126.317V18.9212H116.993Z" fill="white"/>
<path d="M31.8566 0C31.0503 0 30.2539 0.139725 29.4974 0.409194L1.57438 10.5193C0.628679 10.8686 0.00153226 11.7668 0.00153226 12.7748C0.00153226 13.7829 0.628679 14.6811 1.57438 15.0304L7.33816 17.1163C5.70558 19.6912 4.7798 22.7352 4.7798 25.9389V28.7434C4.7798 31.5778 3.70469 34.5021 2.55989 36.8075C1.91284 38.105 1.17619 39.3825 0.320083 40.5601C0.00153226 40.9893 -0.0880602 41.5482 0.0911247 42.0572C0.27031 42.5662 0.688408 42.9454 1.20605 43.0752L7.57707 44.672C7.99517 44.7818 8.44313 44.702 8.81145 44.4724C9.17978 44.2429 9.4386 43.8636 9.51824 43.4345C10.3743 39.1629 9.94629 35.3304 9.30919 32.5858C8.99064 31.1686 8.56259 29.7215 7.9653 28.3941V25.9389C7.9653 22.9249 8.98069 20.0805 10.7427 17.8049C12.0268 16.258 13.6893 15.0104 15.6404 14.242L31.2693 8.08408C32.0856 7.76471 33.0114 8.16392 33.3299 8.98231C33.6485 9.8007 33.2503 10.7289 32.434 11.0482L16.8051 17.2061C15.5707 17.6952 14.4856 18.4437 13.5997 19.3619L29.4874 25.1106C30.244 25.38 31.0403 25.5198 31.8467 25.5198C32.653 25.5198 33.4494 25.38 34.2059 25.1106L62.1389 15.0304C63.0846 14.6911 63.7117 13.7829 63.7117 12.7748C63.7117 11.7668 63.0846 10.8686 62.1389 10.5193L34.2159 0.409194C33.4593 0.139725 32.663 0 31.8566 0ZM12.7436 37.5261C12.7436 41.0492 21.3046 44.712 31.8566 44.712C42.4086 44.712 50.9697 41.0492 50.9697 37.5261L49.4466 23.0147L35.291 28.1446C34.186 28.5438 33.0213 28.7434 31.8566 28.7434C30.6919 28.7434 29.5173 28.5438 28.4222 28.1446L14.2666 23.0147L12.7436 37.5261Z" fill="white"/>
</svg>
