<svg width="44" height="42" viewBox="0 0 44 42" fill="none" xmlns="http://www.w3.org/2000/svg">
<path d="M18.0187 0.419312H26.6187C27.7591 0.419312 28.8528 0.874009 29.6592 1.68338C30.4656 2.49274 30.9187 3.59048 30.9187 4.7351V9.05089H39.5187C40.6591 9.05089 41.7528 9.50559 42.5592 10.315C43.3656 11.1243 43.8187 12.2221 43.8187 13.3667V37.1035C43.8187 38.2481 43.3656 39.3459 42.5592 40.1552C41.7528 40.9646 40.6591 41.4193 39.5187 41.4193H5.11866C3.97823 41.4193 2.88451 40.9646 2.07811 40.1552C1.2717 39.3459 0.818665 38.2481 0.818665 37.1035V13.3667C0.818665 10.9714 2.73216 9.05089 5.11866 9.05089H13.7187V4.7351C13.7187 2.33984 15.6322 0.419312 18.0187 0.419312ZM26.6187 9.05089V4.7351H18.0187V9.05089H26.6187Z" fill="#050395"/>
</svg>
