<svg width="32" height="42" viewBox="0 0 32 42" fill="none" xmlns="http://www.w3.org/2000/svg">
<path d="M0.567154 16.0288C0.567073 13.49 1.20084 10.9906 2.41186 8.7539C3.62288 6.51719 5.37346 4.61277 7.50729 3.21069C9.64112 1.8086 12.0918 0.952496 14.6405 0.718806C17.1891 0.485117 19.7565 0.88112 22.1132 1.87146C24.47 2.86179 26.5429 4.41564 28.1467 6.39425C29.7506 8.37285 30.8355 10.7146 31.3046 13.2105C31.7737 15.7064 31.6124 18.2786 30.8351 20.6976C30.0578 23.1165 28.6887 25.3069 26.85 27.0731C26.3256 27.5753 25.9226 28.0981 25.6797 28.6592L23.7112 33.1923C23.6113 33.422 23.4458 33.6177 23.2351 33.7552C23.0244 33.8927 22.7777 33.9661 22.5255 33.9661H9.60882C9.35614 33.9666 9.10889 33.8935 8.89767 33.7559C8.68645 33.6184 8.52054 33.4224 8.42048 33.1923L6.45457 28.6567C6.17102 28.0589 5.77365 27.5212 5.28432 27.0731C3.7897 25.6414 2.60159 23.9255 1.79107 22.0278C0.980548 20.1301 0.564274 18.0898 0.567154 16.0288ZM8.31715 37.8098C8.31715 37.47 8.45324 37.1441 8.69547 36.9039C8.9377 36.6636 9.26624 36.5286 9.60882 36.5286H22.5255C22.868 36.5286 23.1966 36.6636 23.4388 36.9039C23.6811 37.1441 23.8171 37.47 23.8171 37.8098C23.8171 38.1496 23.6811 38.4755 23.4388 38.7158C23.1966 38.9561 22.868 39.0911 22.5255 39.0911L21.9468 40.2365C21.7324 40.6621 21.4028 41.02 20.9949 41.2703C20.587 41.5206 20.1169 41.6533 19.6373 41.6535H12.497C12.0174 41.6533 11.5473 41.5206 11.1394 41.2703C10.7315 41.02 10.4019 40.6621 10.1875 40.2365L9.60882 39.0911C9.26624 39.0911 8.9377 38.9561 8.69547 38.7158C8.45324 38.4755 8.31715 38.1496 8.31715 37.8098Z" fill="#4A7EEE"/>
</svg>
