<svg width="51" height="50" viewBox="0 0 51 50" fill="none" xmlns="http://www.w3.org/2000/svg">
<path d="M30.8083 30.475L10.3333 40L19.8583 19.525L40.3333 10M25.3333 0C22.0502 0 18.7993 0.646644 15.7662 1.90301C12.733 3.15938 9.97705 5.00087 7.65558 7.32233C2.96717 12.0107 0.333252 18.3696 0.333252 25C0.333252 31.6304 2.96717 37.9893 7.65558 42.6777C9.97705 44.9991 12.733 46.8406 15.7662 48.097C18.7993 49.3534 22.0502 50 25.3333 50C31.9637 50 38.3225 47.3661 43.0109 42.6777C47.6993 37.9893 50.3333 31.6304 50.3333 25C50.3333 21.717 49.6866 18.4661 48.4302 15.4329C47.1739 12.3998 45.3324 9.6438 43.0109 7.32233C40.6895 5.00087 37.9335 3.15938 34.9003 1.90301C31.8672 0.646644 28.6163 0 25.3333 0ZM25.3333 22.25C24.6039 22.25 23.9044 22.5397 23.3887 23.0555C22.873 23.5712 22.5833 24.2707 22.5833 25C22.5833 25.7293 22.873 26.4288 23.3887 26.9445C23.9044 27.4603 24.6039 27.75 25.3333 27.75C26.0626 27.75 26.7621 27.4603 27.2778 26.9445C27.7935 26.4288 28.0833 25.7293 28.0833 25C28.0833 24.2707 27.7935 23.5712 27.2778 23.0555C26.7621 22.5397 26.0626 22.25 25.3333 22.25Z" fill="url(#paint0_linear_454_200)"/>
<defs>
<linearGradient id="paint0_linear_454_200" x1="0.333252" y1="0" x2="53.3541" y2="53.6458" gradientUnits="userSpaceOnUse">
<stop stop-color="#3021FF"/>
<stop offset="1" stop-color="#FF0004"/>
</linearGradient>
</defs>
</svg>
