<svg width="64" height="51" viewBox="0 0 64 51" fill="none" xmlns="http://www.w3.org/2000/svg">
<path d="M63.375 41.0625V44.1875C63.375 45.8451 62.716 47.4343 61.5439 48.6064C60.3718 49.7785 58.7826 50.4375 57.125 50.4375H7.125C5.4674 50.4375 3.87816 49.7785 2.70605 48.6064C1.53395 47.4343 0.875 45.8451 0.875 44.1875V41.0625H63.375ZM50.8184 0.5625C53.9183 0.5625 56.3749 3.09364 56.375 6.14355V34.9375H6.375V6.14355C6.3751 3.09052 8.83171 0.5625 11.9316 0.5625H50.8184ZM21.9248 6.8125C21.5145 6.82237 21.1097 6.91294 20.7344 7.0791C20.3592 7.24527 20.0204 7.48416 19.7373 7.78125C19.4541 8.07832 19.2319 8.4287 19.084 8.81152C18.9362 9.19426 18.8651 9.60252 18.875 10.0127C18.8849 10.423 18.9754 10.8278 19.1416 11.2031C19.3078 11.5783 19.5467 11.9171 19.8438 12.2002L25.6719 17.75L19.8438 23.2998C19.2437 23.8717 18.8949 24.6586 18.875 25.4873C18.8551 26.3159 19.1655 27.1187 19.7373 27.7188C20.3092 28.3188 21.0961 28.6676 21.9248 28.6875C22.7534 28.7074 23.5562 28.397 24.1562 27.8252L32.3594 20.0127C32.6657 19.7208 32.9095 19.3694 33.0762 18.9805C33.2427 18.5916 33.3291 18.173 33.3291 17.75C33.3291 17.327 33.2427 16.9084 33.0762 16.5195C32.9095 16.1306 32.6657 15.7792 32.3594 15.4873L24.1562 7.6748C23.8592 7.39163 23.5088 7.16941 23.126 7.02148C22.7432 6.87366 22.335 6.80264 21.9248 6.8125ZM34.5 22.4375C33.6712 22.4375 32.8761 22.7665 32.29 23.3525C31.704 23.9386 31.375 24.7337 31.375 25.5625C31.375 26.3913 31.704 27.1864 32.29 27.7725C32.8761 28.3585 33.6712 28.6875 34.5 28.6875H40.75C41.5788 28.6875 42.3739 28.3585 42.96 27.7725C43.546 27.1864 43.875 26.3913 43.875 25.5625C43.875 24.7337 43.546 23.9386 42.96 23.3525C42.3739 22.7665 41.5788 22.4375 40.75 22.4375H34.5Z" fill="url(#paint0_linear_454_220)"/>
<defs>
<linearGradient id="paint0_linear_454_220" x1="0.625003" y1="-9" x2="63.625" y2="58" gradientUnits="userSpaceOnUse">
<stop stop-color="#3021FF"/>
<stop offset="1" stop-color="#02FB5B"/>
</linearGradient>
</defs>
</svg>
