<svg width="16" height="20" viewBox="0 0 16 20" fill="none" xmlns="http://www.w3.org/2000/svg">
<path d="M0 20V13.8918C0 13.5481 0.0793332 13.2217 0.238 12.9124C0.396666 12.6031 0.617333 12.354 0.9 12.1649L2 11.4175C2.11667 12.8608 2.3 14.0893 2.55 15.1031C2.8 16.1168 3.19167 17.2423 3.725 18.4794L0 20ZM5.225 17.9381C4.64167 16.8041 4.20833 15.6014 3.925 14.3299C3.64167 13.0584 3.5 11.744 3.5 10.3866C3.5 8.23883 3.91267 6.21581 4.738 4.31753C5.56333 2.41924 6.65067 0.980069 8 0C9.35 0.979382 10.4377 2.41856 11.263 4.31753C12.0883 6.2165 12.5007 8.23952 12.5 10.3866C12.5 11.7268 12.3583 13.0285 12.075 14.2918C11.7917 15.555 11.3583 16.7704 10.775 17.9381H5.225ZM8 10.7217C8.55 10.7217 9.021 10.5199 9.413 10.1165C9.805 9.71306 10.0007 9.22749 10 8.65979C9.99933 8.0921 9.80366 7.60687 9.413 7.20412C9.02233 6.80138 8.55133 6.59931 8 6.59794C7.44867 6.59656 6.978 6.79863 6.588 7.20412C6.198 7.60962 6.002 8.09485 6 8.65979C5.998 9.22474 6.194 9.71031 6.588 10.1165C6.982 10.5227 7.45266 10.7244 8 10.7217ZM16 20L12.275 18.4794C12.8083 17.2423 13.2 16.1168 13.45 15.1031C13.7 14.0893 13.8833 12.8608 14 11.4175L15.1 12.1649C15.3833 12.354 15.6043 12.6031 15.763 12.9124C15.9217 13.2217 16.0007 13.5481 16 13.8918V20Z" fill="#2157FF"/>
</svg>
