<svg width="42" height="43" viewBox="0 0 42 43" fill="none" xmlns="http://www.w3.org/2000/svg">
<path d="M20.7436 28.9277C18.804 28.9277 16.9438 28.1572 15.5723 26.7857C14.2008 25.4142 13.4303 23.554 13.4303 21.6144C13.4303 19.6748 14.2008 17.8146 15.5723 16.4431C16.9438 15.0716 18.804 14.301 20.7436 14.301C22.6833 14.301 24.5434 15.0716 25.915 16.4431C27.2865 17.8146 28.057 19.6748 28.057 21.6144C28.057 23.554 27.2865 25.4142 25.915 26.7857C24.5434 28.1572 22.6833 28.9277 20.7436 28.9277ZM36.2688 23.6412C36.3524 22.9726 36.4151 22.3039 36.4151 21.6144C36.4151 20.9248 36.3524 20.2353 36.2688 19.5249L40.6777 16.1189C41.0747 15.8055 41.1792 15.2413 40.9285 14.7816L36.7494 7.55187C36.4987 7.09218 35.9345 6.90412 35.4748 7.09218L30.2719 9.1817C29.1853 8.36679 28.057 7.65635 26.7406 7.13397L25.9675 1.59672C25.925 1.35061 25.7968 1.12747 25.6056 0.966837C25.4144 0.806203 25.1724 0.718448 24.9227 0.71912H16.5646C16.0422 0.71912 15.6034 1.09524 15.5198 1.59672L14.7467 7.13397C13.4303 7.65635 12.302 8.36679 11.2154 9.1817L6.01248 7.09218C5.55278 6.90412 4.98861 7.09218 4.73786 7.55187L0.558811 14.7816C0.287172 15.2413 0.412544 15.8055 0.809554 16.1189L5.21846 19.5249C5.13488 20.2353 5.07219 20.9248 5.07219 21.6144C5.07219 22.3039 5.13488 22.9726 5.21846 23.6412L0.809554 27.1098C0.412544 27.4233 0.287172 27.9874 0.558811 28.4471L4.73786 35.6769C4.98861 36.1366 5.55278 36.3038 6.01248 36.1366L11.2154 34.0262C12.302 34.862 13.4303 35.5724 14.7467 36.0948L15.5198 41.6321C15.6034 42.1335 16.0422 42.5097 16.5646 42.5097H24.9227C25.4451 42.5097 25.8839 42.1335 25.9675 41.6321L26.7406 36.0948C28.057 35.5515 29.1853 34.862 30.2719 34.0262L35.4748 36.1366C35.9345 36.3038 36.4987 36.1366 36.7494 35.6769L40.9285 28.4471C41.1792 27.9874 41.0747 27.4233 40.6777 27.1098L36.2688 23.6412Z" fill="#7193FF"/>
</svg>
