<svg width="49" height="51" viewBox="0 0 49 51" fill="none" xmlns="http://www.w3.org/2000/svg">
<path d="M24.3804 34.25C22.0901 34.25 19.8936 33.3281 18.2741 31.6872C16.6546 30.0462 15.7448 27.8206 15.7448 25.5C15.7448 23.1794 16.6546 20.9538 18.2741 19.3128C19.8936 17.6719 22.0901 16.75 24.3804 16.75C26.6708 16.75 28.8673 17.6719 30.4868 19.3128C32.1063 20.9538 33.0161 23.1794 33.0161 25.5C33.0161 27.8206 32.1063 30.0462 30.4868 31.6872C28.8673 33.3281 26.6708 34.25 24.3804 34.25ZM42.7127 27.925C42.8114 27.125 42.8854 26.325 42.8854 25.5C42.8854 24.675 42.8114 23.85 42.7127 23L47.9188 18.925C48.3876 18.55 48.5109 17.875 48.2148 17.325L43.2802 8.675C42.9841 8.125 42.3179 7.9 41.7751 8.125L35.6315 10.625C34.3484 9.65 33.0161 8.8 31.4617 8.175L30.5488 1.55C30.4986 1.25555 30.3473 0.988572 30.1215 0.796383C29.8957 0.604195 29.61 0.499201 29.3151 0.500005H19.4458C18.829 0.500005 18.3108 0.950005 18.2121 1.55L17.2992 8.175C15.7448 8.8 14.4124 9.65 13.1294 10.625L6.98579 8.125C6.44298 7.9 5.7768 8.125 5.48072 8.675L0.546064 17.325C0.225311 17.875 0.373351 18.55 0.842143 18.925L6.0482 23C5.94951 23.85 5.87549 24.675 5.87549 25.5C5.87549 26.325 5.94951 27.125 6.0482 27.925L0.842143 32.075C0.373351 32.45 0.225311 33.125 0.546064 33.675L5.48072 42.325C5.7768 42.875 6.44298 43.075 6.98579 42.875L13.1294 40.35C14.4124 41.35 15.7448 42.2 17.2992 42.825L18.2121 49.45C18.3108 50.05 18.829 50.5 19.4458 50.5H29.3151C29.9319 50.5 30.4501 50.05 30.5488 49.45L31.4617 42.825C33.0161 42.175 34.3484 41.35 35.6315 40.35L41.7751 42.875C42.3179 43.075 42.9841 42.875 43.2802 42.325L48.2148 33.675C48.5109 33.125 48.3876 32.45 47.9188 32.075L42.7127 27.925Z" fill="url(#paint0_linear_454_214)"/>
<defs>
<linearGradient id="paint0_linear_454_214" x1="0.875" y1="1" x2="48.875" y2="51" gradientUnits="userSpaceOnUse">
<stop stop-color="#3021FF"/>
<stop offset="1" stop-color="#1ED760"/>
</linearGradient>
</defs>
</svg>
