<svg width="56" height="51" viewBox="0 0 56 51" fill="none" xmlns="http://www.w3.org/2000/svg">
<path d="M52.625 30.5021H50.125C50.125 20.828 42.3 13.0038 32.625 13.0038H30.125V9.82917C30.8853 9.39026 31.5166 8.75894 31.9554 7.99867C32.3943 7.23841 32.6252 6.37601 32.625 5.4982C32.6248 4.62039 32.3934 3.75812 31.9542 2.99808C31.5149 2.23804 30.8833 1.60704 30.1228 1.16852C29.3623 0.730008 28.4997 0.499438 27.6218 0.500001C26.7439 0.500564 25.8816 0.732238 25.1217 1.17173C24.3617 1.61122 23.7309 2.24303 23.2926 3.00363C22.8544 3.76423 22.6241 4.6268 22.625 5.50461C22.625 7.35442 23.625 8.97926 25.125 9.82917V13.0038H22.625C12.95 13.0038 5.125 20.828 5.125 30.5021H2.625C1.25 30.5021 0.125 31.6269 0.125 33.0018V40.501C0.125 41.8759 1.25 43.0008 2.625 43.0008H5.125V45.5005C5.125 46.8265 5.65178 48.0981 6.58947 49.0357C7.52715 49.9733 8.79892 50.5 10.125 50.5H45.125C47.9 50.5 50.125 48.2752 50.125 45.5005V43.0008H52.625C54 43.0008 55.125 41.8759 55.125 40.501V33.0018C55.125 31.6269 54 30.5021 52.625 30.5021ZM22.1 36.7514C21.125 34.5516 18.95 33.0018 16.375 33.0018C13.8 33.0018 11.625 34.5516 10.65 36.7514C10.325 35.9765 10.125 35.1516 10.125 34.2517C10.125 32.5942 10.7835 31.0047 11.9556 29.8327C13.1277 28.6607 14.7174 28.0023 16.375 28.0023C18.0326 28.0023 19.6223 28.6607 20.7944 29.8327C21.9665 31.0047 22.625 32.5942 22.625 34.2517C22.625 35.1516 22.425 35.9765 22.1 36.7514ZM44.6 36.7514C43.625 34.5516 41.375 33.0018 38.875 33.0018C36.375 33.0018 34.125 34.5516 33.15 36.7514C32.825 35.9765 32.625 35.1516 32.625 34.2517C32.625 32.5942 33.2835 31.0047 34.4556 29.8327C35.6277 28.6607 37.2174 28.0023 38.875 28.0023C40.5326 28.0023 42.1223 28.6607 43.2944 29.8327C44.4665 31.0047 45.125 32.5942 45.125 34.2517C45.125 35.1516 44.925 35.9765 44.6 36.7514Z" fill="url(#paint0_linear_454_232)"/>
<defs>
<linearGradient id="paint0_linear_454_232" x1="8.625" y1="12" x2="48.625" y2="56" gradientUnits="userSpaceOnUse">
<stop stop-color="#3021FF"/>
<stop offset="1" stop-color="#1ED760"/>
</linearGradient>
</defs>
</svg>
