<svg width="19" height="19" viewBox="0 0 19 19" fill="none" xmlns="http://www.w3.org/2000/svg">
<path d="M9.91743 1.14154L12.6151 6.6257L18.6455 7.50533C18.7221 7.51671 18.7939 7.54923 18.853 7.59924C18.912 7.64924 18.9559 7.71473 18.9798 7.78834C19.0036 7.86196 19.0064 7.94076 18.9879 8.01589C18.9694 8.09102 18.9302 8.15948 18.8749 8.21356L14.5121 12.4814L15.5422 18.509C15.5554 18.5852 15.5471 18.6636 15.5181 18.7353C15.4891 18.807 15.4406 18.8691 15.3781 18.9146C15.3155 18.9602 15.2415 18.9873 15.1644 18.9929C15.0872 18.9985 15.0101 18.9824 14.9416 18.9463L9.54749 16.1011L4.15336 18.9472C4.08496 18.9833 4.0078 18.9996 3.93063 18.994C3.85347 18.9885 3.7794 18.9615 3.71684 18.916C3.65429 18.8704 3.60576 18.8083 3.57676 18.7366C3.54776 18.6648 3.53947 18.5864 3.55282 18.5102L4.5829 12.4814L0.218837 8.21356C0.163503 8.15948 0.124368 8.09102 0.10584 8.01589C0.0873116 7.94076 0.0901258 7.86196 0.113966 7.78834C0.137805 7.71473 0.181724 7.64924 0.240775 7.59924C0.299826 7.54923 0.371665 7.51671 0.4482 7.50533L6.47863 6.6257L9.17755 1.14154C9.21121 1.07205 9.26376 1.01344 9.32919 0.972428C9.39462 0.931418 9.47027 0.909668 9.54749 0.909668C9.62471 0.909668 9.70037 0.931418 9.76579 0.972428C9.83122 1.01344 9.88377 1.07205 9.91743 1.14154Z" fill="#2563EB"/>
</svg>
