<svg width="25" height="25" viewBox="0 0 25 25" fill="none" xmlns="http://www.w3.org/2000/svg">
<path d="M15.309 2.49063C14.3357 -0.104876 10.6643 -0.104872 9.69101 2.49063L8.20608 6.45046C7.90185 7.26173 7.26173 7.90185 6.45046 8.20608L2.49063 9.69101C-0.104876 10.6643 -0.104872 14.3357 2.49063 15.309L6.45046 16.7939C7.26173 17.0982 7.90185 17.7383 8.20608 18.5495L9.69101 22.5094C10.6643 25.1049 14.3357 25.1049 15.309 22.5094L16.7939 18.5495C17.0982 17.7383 17.7383 17.0981 18.5495 16.7939L22.5094 15.309C25.1049 14.3357 25.1049 10.6643 22.5094 9.69101L18.5495 8.20608C17.7383 7.90185 17.0981 7.26173 16.7939 6.45046L15.309 2.49063Z" fill="url(#paint0_linear_454_205)"/>
<defs>
<linearGradient id="paint0_linear_454_205" x1="10" y1="4.5" x2="12.5" y2="30" gradientUnits="userSpaceOnUse">
<stop stop-color="#43B0FF"/>
<stop offset="1" stop-color="#1D1499"/>
</linearGradient>
</defs>
</svg>
