<svg width="40" height="20" viewBox="0 0 40 20" fill="none" xmlns="http://www.w3.org/2000/svg">
<path d="M20 0.5C23.39 0.5 26.167 3.27703 26.167 6.66699C26.1669 8.527 25.2994 10.188 23.9668 11.3281L23.4053 11.8086L24.0596 12.1514C25.4087 12.8589 26.585 13.923 27.415 15.1904L27.8223 15.8125L28.2451 15.2012C28.6883 14.5592 29.2665 13.972 29.9053 13.5391L30.4121 13.1953L29.9746 12.7676C29.0706 11.8827 28.5 10.6722 28.5 9.33301C28.5002 6.67968 30.6797 4.50018 33.333 4.5C35.9865 4.5 38.1668 6.67957 38.167 9.33301C38.167 10.6721 37.5963 11.8827 36.6924 12.7676L36.2549 13.1953L36.7607 13.5391C38.2745 14.5649 39.3205 16.2563 39.4775 18.167H37.8057C37.5565 15.9193 35.6463 14.167 33.333 14.167C30.851 14.1672 28.833 16.1849 28.833 18.667V19.5H27.1475C26.8895 15.7831 23.7808 12.833 20 12.833C16.2192 12.833 13.1105 15.7831 12.8525 19.5H11.167V18.667C11.167 16.1849 9.14905 14.1672 6.66699 14.167C4.35367 14.167 2.44352 15.9193 2.19434 18.167H0.522461C0.679498 16.2563 1.72549 14.5649 3.23926 13.5391L3.74512 13.1953L3.30762 12.7676C2.40367 11.8827 1.83301 10.6721 1.83301 9.33301C1.83319 6.67957 4.01352 4.5 6.66699 4.5C9.32032 4.50018 11.4998 6.67968 11.5 9.33301C11.5 10.6722 10.9294 11.8827 10.0254 12.7676L9.58789 13.1953L10.0947 13.5391C10.7335 13.972 11.3117 14.5592 11.7549 15.2012L12.1777 15.8125L12.585 15.1904C13.415 13.923 14.5913 12.8589 15.9404 12.1514L16.5947 11.8086L16.0332 11.3281C14.7006 10.188 13.8331 8.527 13.833 6.66699C13.833 3.27703 16.61 0.5 20 0.5ZM6.66699 6.16699C4.90241 6.16699 3.50017 7.56847 3.5 9.33301C3.5 11.0977 4.9023 12.5 6.66699 12.5C8.43153 12.4998 9.83301 11.0976 9.83301 9.33301C9.83284 7.56857 8.43142 6.16716 6.66699 6.16699ZM33.333 6.16699C31.5686 6.16717 30.1672 7.56858 30.167 9.33301C30.167 11.0976 31.5685 12.4998 33.333 12.5C35.0977 12.5 36.5 11.0977 36.5 9.33301C36.4998 7.56847 35.0976 6.16699 33.333 6.16699ZM20 2.16699C17.4989 2.16699 15.5 4.16592 15.5 6.66699C15.5002 9.16791 17.499 11.167 20 11.167C22.501 11.167 24.4998 9.16791 24.5 6.66699C24.5 4.16592 22.5011 2.16699 20 2.16699Z" fill="#2157FF" stroke="#2157FF"/>
</svg>
